<svg width="40" height="53" viewBox="0 0 40 53" fill="none" xmlns="http://www.w3.org/2000/svg">
    <path fill-rule="evenodd" clip-rule="evenodd" d="M4.51569 32.5504C1.69336 29.1139 0 24.7207 0 19.9333C0 8.92443 8.9543 0 20 0C31.0457 0 40 8.92443 40 19.9333C40 24.7393 38.2935 29.148 35.4514 32.5904L21.6313 52.1565C20.994 53.0587 19.746 53.2735 18.8438 52.6362C18.6577 52.5048 18.4955 52.3426 18.3641 52.1565L4.51569 32.5504ZM19.9977 30.9905C26.1334 30.9905 31.1075 26.0325 31.1075 19.9164C31.1075 13.8004 26.1334 8.8424 19.9977 8.8424C13.8619 8.8424 8.88785 13.8004 8.88785 19.9164C8.88785 26.0325 13.8619 30.9905 19.9977 30.9905Z" fill="url(#paint0_linear_121:925)"/>
    <defs>
        <linearGradient id="paint0_linear_121:925" x1="0" y1="26.5014" x2="54.4509" y2="42.5017" gradientUnits="userSpaceOnUse">
            <stop stop-color="#05CBFF"/>
            <stop offset="0.371272" stop-color="#33ACFF"/>
            <stop offset="1" stop-color="#1E5AFF"/>
        </linearGradient>
    </defs>
</svg>
