<svg width="48" height="48" viewBox="0 0 48 48" fill="none" xmlns="http://www.w3.org/2000/svg">
    <path d="M23.9091 0C21.5416 0 19.3747 0.473613 17.7216 1.3125C16.0685 2.15138 14.7727 3.4546 14.7727 5.16477C14.7727 6.87495 16.0685 8.17816 17.7216 9.01705C19.3747 9.85593 21.5416 10.3295 23.9091 10.3295C26.2767 10.3295 28.4265 9.85593 30.0796 9.01705C31.7326 8.17816 33.0284 6.87495 33.0284 5.16477C33.0284 3.4546 31.7326 2.15138 30.0796 1.3125C28.4265 0.473613 26.2767 0 23.9091 0ZM23.9091 2.18182C25.9792 2.18182 27.8359 2.61879 29.0909 3.25568C30.346 3.89258 30.8466 4.62299 30.8466 5.16477C30.8466 5.70656 30.346 6.43697 29.0909 7.07386C27.8359 7.71076 25.9792 8.16477 23.9091 8.16477C21.8391 8.16477 19.9653 7.71076 18.7102 7.07386C17.4552 6.43697 16.9716 5.70656 16.9716 5.16477C16.9716 4.62299 17.4552 3.89258 18.7102 3.25568C19.9653 2.61879 21.8391 2.18182 23.9091 2.18182ZM15.7443 8.57386C15.4763 8.60758 15.2303 8.73956 15.0539 8.94423C14.8776 9.14891 14.7835 9.41173 14.7898 9.68182V13.2955C14.7722 13.3119 14.7551 13.329 14.7387 13.3466L6.47161 24.5114C5.55191 24.7316 4.70917 25.0205 3.96593 25.3977C2.31286 26.2366 1.01706 27.5398 1.01706 29.25C1.01706 30.9602 2.31286 32.2634 3.96593 33.1023C5.61899 33.9411 7.76883 34.4148 10.1364 34.4148C12.5039 34.4148 14.6538 33.9411 16.3068 33.1023C17.9599 32.2634 19.2557 30.9602 19.2557 29.25C19.2557 27.5398 17.9599 26.2366 16.3068 25.3977C14.6538 24.5588 12.5039 24.0852 10.1364 24.0852C9.9144 24.0852 9.68961 24.094 9.47161 24.1023L14.7898 16.9261V18.733C14.7898 20.4411 16.0832 21.7628 17.7387 22.6023C19.3941 23.4418 21.5406 23.9148 23.9091 23.9148C26.2777 23.9148 28.4438 23.4422 30.0966 22.6023C31.7494 21.7624 33.0455 20.4392 33.0455 18.733V16.9432L38.3466 24.1023C38.1286 24.094 37.9038 24.0852 37.6818 24.0852C35.3143 24.0852 33.1644 24.5588 31.5114 25.3977C29.8583 26.2366 28.5625 27.5398 28.5625 29.25C28.5625 30.9602 29.8583 32.2634 31.5114 33.1023C33.1644 33.9411 35.3143 34.4148 37.6818 34.4148C40.0494 34.4148 42.1992 33.9411 43.8523 33.1023C45.5054 32.2634 46.8012 30.9602 46.8012 29.25C46.8012 27.5398 45.5054 26.2366 43.8523 25.3977C43.1091 25.0205 42.2663 24.7316 41.3466 24.5114L33.0796 13.3466C33.0687 13.3292 33.0573 13.3122 33.0455 13.2955V9.68182C33.0475 9.53726 33.0208 9.39374 32.9669 9.25959C32.913 9.12544 32.833 9.00335 32.7315 8.9004C32.63 8.79745 32.509 8.7157 32.3756 8.6599C32.2423 8.60411 32.0991 8.57537 31.9546 8.57537C31.81 8.57537 31.6669 8.60411 31.5335 8.6599C31.4001 8.7157 31.2792 8.79745 31.1777 8.9004C31.0762 9.00335 30.9961 9.12544 30.9422 9.25959C30.8883 9.39374 30.8616 9.53726 30.8637 9.68182V9.97159C30.8494 10.0163 30.838 10.0618 30.8296 10.108C30.7228 10.6178 30.0823 11.3421 28.8352 11.9148C27.5882 12.4875 25.8399 12.8864 23.9091 12.8864C21.9783 12.8864 20.2301 12.4875 18.983 11.9148C17.7359 11.3421 17.0954 10.6178 16.9887 10.108C16.9846 10.0736 16.9789 10.0395 16.9716 10.0057V9.68182C16.9753 9.52491 16.9451 9.36905 16.883 9.22489C16.8209 9.08073 16.7285 8.95165 16.612 8.84647C16.4955 8.7413 16.3577 8.6625 16.2079 8.61545C16.0582 8.56841 15.9001 8.55422 15.7443 8.57386ZM16.9716 13.3125C17.3134 13.5335 17.673 13.7302 18.0625 13.9091C19.6686 14.6466 21.698 15.0682 23.9091 15.0682C26.1203 15.0682 28.1497 14.6466 29.7557 13.9091C30.1454 13.7301 30.5201 13.5337 30.8637 13.3125V14.4886C30.8494 14.5333 30.838 14.5789 30.8296 14.625C30.7228 15.1349 30.0823 15.8762 28.8352 16.4489C27.5882 17.0216 25.8399 17.4034 23.9091 17.4034C21.9783 17.4034 20.2301 17.0216 18.983 16.4489C17.7359 15.8762 17.0954 15.1349 16.9887 14.625C16.9834 14.6078 16.9777 14.5908 16.9716 14.5739V13.3125ZM16.9716 17.8295C17.3134 18.0506 17.673 18.2473 18.0625 18.4261C19.6686 19.1637 21.698 19.5852 23.9091 19.5852C26.1203 19.5852 28.1497 19.1637 29.7557 18.4261C30.1454 18.2472 30.5201 18.0507 30.8637 17.8295V18.733C30.8637 19.2787 30.3612 20.0223 29.108 20.6591C27.8547 21.2959 25.9782 21.733 23.9091 21.733C21.8401 21.733 19.9839 21.2963 18.7273 20.6591C17.4707 20.0219 16.9716 19.2767 16.9716 18.733V17.8295ZM10.1364 26.267C12.2064 26.267 14.0632 26.704 15.3182 27.3409C16.5732 27.9778 17.0739 28.7082 17.0739 29.25C17.0739 29.7917 16.5732 30.5222 15.3182 31.1591C14.0632 31.796 12.2064 32.233 10.1364 32.233C8.06633 32.233 6.19255 31.796 4.93752 31.1591C3.68248 30.5222 3.18184 29.7917 3.18184 29.25C3.18184 28.7082 3.68248 27.9778 4.93752 27.3409C6.19255 26.704 8.06633 26.267 10.1364 26.267ZM37.6818 26.267C39.7519 26.267 41.6257 26.704 42.8807 27.3409C44.1357 27.9778 44.6364 28.7082 44.6364 29.25C44.6364 29.7917 44.1357 30.5222 42.8807 31.1591C41.6257 31.796 39.7519 32.233 37.6818 32.233C35.6118 32.233 33.7551 31.796 32.5 31.1591C31.245 30.5222 30.7443 29.7917 30.7443 29.25C30.7443 28.7082 31.245 27.9778 32.5 27.3409C33.7551 26.704 35.6118 26.267 37.6818 26.267ZM1.97161 32.6591C1.70344 32.6886 1.45572 32.8165 1.27628 33.0179C1.09685 33.2194 0.998425 33.4802 1.00002 33.75V42.8182C1.00002 44.5244 2.29606 45.8476 3.94888 46.6875C5.6017 47.5273 7.75078 48 10.1193 48C12.4879 48 14.6514 47.527 16.3068 46.6875C17.9623 45.848 19.2557 44.5263 19.2557 42.8182V37.5C19.3011 37.5028 19.3467 37.5028 19.3921 37.5L28.5625 37.5511V42.8182C28.5625 44.5263 29.8559 45.848 31.5114 46.6875C33.1669 47.527 35.3303 48 37.6989 48C40.0674 48 42.2165 47.5273 43.8693 46.6875C45.5222 45.8476 46.8182 44.5244 46.8182 42.8182V33.75C46.8202 33.6054 46.7935 33.4619 46.7396 33.3278C46.6857 33.1936 46.6057 33.0715 46.5042 32.9686C46.4027 32.8656 46.2817 32.7839 46.1484 32.7281C46.015 32.6723 45.8719 32.6436 45.7273 32.6436C45.5827 32.6436 45.4396 32.6723 45.3062 32.7281C45.1728 32.7839 45.0519 32.8656 44.9504 32.9686C44.8489 33.0715 44.7689 33.1936 44.715 33.3278C44.661 33.4619 44.6343 33.6054 44.6364 33.75V34.0909C44.6296 34.1191 44.6239 34.1475 44.6193 34.1761C44.5126 34.686 43.8721 35.4273 42.625 36C41.3779 36.5727 39.6126 36.9545 37.6818 36.9545C35.7511 36.9545 34.0028 36.5727 32.7557 36C31.5086 35.4273 30.8682 34.686 30.7614 34.1761C30.7561 34.159 30.7504 34.1419 30.7443 34.125V33.75C30.7452 33.5961 30.7136 33.4438 30.6515 33.303C30.5893 33.1623 30.4981 33.0362 30.3838 32.9332C30.2695 32.8302 30.1347 32.7525 29.9883 32.7052C29.8418 32.658 29.6871 32.6423 29.5341 32.6591C29.2659 32.6886 29.0182 32.8165 28.8388 33.0179C28.6593 33.2194 28.5609 33.4802 28.5625 33.75V35.3693L19.4091 35.3182C19.375 35.3166 19.3409 35.3166 19.3068 35.3182C19.2898 35.3178 19.2727 35.3178 19.2557 35.3182V33.75C19.2577 33.6054 19.231 33.4619 19.1771 33.3278C19.1232 33.1936 19.0432 33.0715 18.9417 32.9686C18.8402 32.8656 18.7192 32.7839 18.5859 32.7281C18.4525 32.6723 18.3094 32.6436 18.1648 32.6436C18.0202 32.6436 17.8771 32.6723 17.7437 32.7281C17.6103 32.7839 17.4894 32.8656 17.3879 32.9686C17.2864 33.0715 17.2064 33.1936 17.1525 33.3278C17.0985 33.4619 17.0718 33.6054 17.0739 33.75V34.0909C17.0671 34.1191 17.0614 34.1475 17.0568 34.1761C16.9501 34.686 16.3096 35.4273 15.0625 36C13.8154 36.5727 12.0672 36.9545 10.1364 36.9545C8.20559 36.9545 6.4403 36.5727 5.1932 36C3.9461 35.4273 3.30567 34.686 3.19888 34.1761C3.19362 34.159 3.18794 34.1419 3.18184 34.125V33.75C3.18274 33.5961 3.15109 33.4438 3.08896 33.303C3.02682 33.1623 2.93562 33.0362 2.82132 32.9332C2.70703 32.8302 2.57223 32.7525 2.42579 32.7052C2.27934 32.658 2.12456 32.6423 1.97161 32.6591ZM3.18184 37.3977C3.52535 37.6189 3.90005 37.8153 4.28979 37.9943C5.89584 38.7319 7.92524 39.1364 10.1364 39.1364C12.3475 39.1364 14.3599 38.7319 15.9659 37.9943C16.3557 37.8153 16.7304 37.6189 17.0739 37.3977V38.625C17.0671 38.6532 17.0614 38.6816 17.0568 38.7102C16.95 39.2201 16.3096 39.9614 15.0625 40.5341C13.8154 41.1068 12.0672 41.4886 10.1364 41.4886C8.20559 41.4886 6.4403 41.1068 5.1932 40.5341C3.94611 39.9614 3.30567 39.2201 3.19888 38.7102C3.19362 38.693 3.18794 38.676 3.18184 38.6591V37.3977ZM30.7443 37.3977C31.0879 37.6189 31.4625 37.8153 31.8523 37.9943C33.4583 38.7319 35.4707 39.1364 37.6818 39.1364C39.893 39.1364 41.9224 38.7319 43.5284 37.9943C43.9182 37.8153 44.2929 37.6189 44.6364 37.3977V38.625C44.6296 38.6532 44.6239 38.6816 44.6193 38.7102C44.5126 39.2201 43.8721 39.9614 42.625 40.5341C41.3779 41.1068 39.6126 41.4886 37.6818 41.4886C35.7511 41.4886 34.0028 41.1068 32.7557 40.5341C31.5086 39.9614 30.8682 39.2201 30.7614 38.7102C30.7561 38.693 30.7504 38.676 30.7443 38.6591V37.3977ZM3.18184 41.9148C3.52535 42.136 3.90005 42.3324 4.28979 42.5114C5.89584 43.2489 7.92524 43.6705 10.1364 43.6705C12.3475 43.6705 14.3599 43.2489 15.9659 42.5114C16.3557 42.3324 16.7304 42.136 17.0739 41.9148V42.8182C17.0739 43.362 16.5748 44.09 15.3182 44.7273C14.0616 45.3645 12.1884 45.8182 10.1193 45.8182C8.05028 45.8182 6.19075 45.3641 4.93752 44.7273C3.68429 44.0905 3.18184 43.3639 3.18184 42.8182V41.9148ZM30.7443 41.9148C31.0879 42.136 31.4625 42.3324 31.8523 42.5114C33.4583 43.2489 35.4707 43.6705 37.6818 43.6705C39.893 43.6705 41.9224 43.2489 43.5284 42.5114C43.9182 42.3324 44.2929 42.136 44.6364 41.9148V42.8182C44.6364 43.3639 44.1339 44.0905 42.8807 44.7273C41.6275 45.3641 39.7679 45.8182 37.6989 45.8182C35.6298 45.8182 33.7567 45.3645 32.5 44.7273C31.2434 44.09 30.7443 43.362 30.7443 42.8182V41.9148Z" fill="#49A3D1"/>
</svg>
