<svg width="48" height="48" viewBox="0 0 48 48" fill="none" xmlns="http://www.w3.org/2000/svg">
    <path d="M0.988645 4.0012C0.717403 4.02676 0.46554 4.15289 0.282588 4.35476C0.0996357 4.55664 -0.00116463 4.81966 1.01541e-05 5.09211V35.8932C3.90526e-05 36.1825 0.114983 36.46 0.319562 36.6646C0.52414 36.8691 0.8016 36.9841 1.09092 36.9841H22.7386C22.8832 36.9862 23.0267 36.9595 23.1608 36.9055C23.295 36.8516 23.4171 36.7716 23.52 36.6701C23.623 36.5686 23.7047 36.4477 23.7605 36.3143C23.8163 36.1809 23.8451 36.0378 23.8451 35.8932C23.8451 35.7486 23.8163 35.6055 23.7605 35.4721C23.7047 35.3388 23.623 35.2178 23.52 35.1163C23.4171 35.0148 23.295 34.9348 23.1608 34.8809C23.0267 34.827 22.8832 34.8003 22.7386 34.8023H2.18183V12.2001H36.5454C36.69 12.2021 36.8335 12.1754 36.9676 12.1215C37.1018 12.0676 37.2239 11.9875 37.3268 11.886C37.4298 11.7845 37.5115 11.6636 37.5673 11.5302C37.6231 11.3968 37.6519 11.2537 37.6519 11.1091C37.6519 10.9646 37.6231 10.8214 37.5673 10.6881C37.5115 10.5547 37.4298 10.4338 37.3268 10.3322C37.2239 10.2307 37.1018 10.1507 36.9676 10.0968C36.8335 10.0429 36.69 10.0162 36.5454 10.0182H2.18183V6.18301H39.2727V18.1148C39.2706 18.2594 39.2974 18.4029 39.3513 18.537C39.4052 18.6712 39.4852 18.7933 39.5867 18.8962C39.6882 18.9992 39.8092 19.0809 39.9425 19.1367C40.0759 19.1925 40.219 19.2213 40.3636 19.2213C40.5082 19.2213 40.6513 19.1925 40.7847 19.1367C40.918 19.0809 41.039 18.9992 41.1405 18.8962C41.242 18.7933 41.322 18.6712 41.3759 18.537C41.4298 18.4029 41.4566 18.2594 41.4545 18.1148V5.09211C41.4545 4.80279 41.3395 4.52533 41.135 4.32075C40.9304 4.11617 40.6529 4.00123 40.3636 4.0012H1.09092C1.05685 3.9996 1.02272 3.9996 0.988645 4.0012ZM4.29546 7.1546C3.77901 7.1546 3.35796 7.55937 3.35796 8.07506C3.35796 8.59075 3.77901 9.01256 4.29546 9.01256C4.81191 9.01256 5.23296 8.59075 5.23296 8.07506C5.23296 7.55937 4.81191 7.1546 4.29546 7.1546ZM7.43182 7.1546C6.91537 7.1546 6.49432 7.55937 6.49432 8.07506C6.49432 8.59075 6.91537 9.01256 7.43182 9.01256C7.94827 9.01256 8.36932 8.59075 8.36932 8.07506C8.36932 7.55937 7.94827 7.1546 7.43182 7.1546ZM10.5511 7.1546C10.0347 7.1546 9.61364 7.55937 9.61364 8.07506C9.61364 8.59075 10.0347 9.01256 10.5511 9.01256C11.0676 9.01256 11.4886 8.59075 11.4886 8.07506C11.4886 7.55937 11.0676 7.1546 10.5511 7.1546ZM33.8011 18.2171C33.5498 18.2205 33.3074 18.3106 33.1149 18.4721C32.9223 18.6336 32.7914 18.8566 32.7443 19.1035L32.267 21.5069C31.906 21.6343 31.5477 21.7674 31.2102 21.933L29.1477 20.5864C28.939 20.4499 28.6899 20.389 28.4418 20.4138C28.1937 20.4386 27.9616 20.5476 27.7841 20.7228C27.0316 21.4762 26.2236 22.2482 25.4318 23.041C25.2524 23.2195 25.1408 23.4549 25.1159 23.7068C25.091 23.9587 25.1545 24.2114 25.2954 24.4216L26.6761 26.4841C26.5128 26.8221 26.375 27.1671 26.25 27.5239L23.7784 28.0523C23.535 28.1069 23.3176 28.2432 23.1625 28.4387C23.0074 28.6341 22.924 28.8767 22.9261 29.1262C22.9262 30.2193 22.9261 31.2716 22.9261 32.3648C22.924 32.6143 23.0074 32.8569 23.1625 33.0523C23.3176 33.2477 23.535 33.3841 23.7784 33.4387L26.25 33.9671C26.375 34.3239 26.5128 34.6687 26.6761 35.0068L25.2954 37.0864C25.1589 37.295 25.098 37.5442 25.1228 37.7923C25.1476 38.0404 25.2567 38.2725 25.4318 38.45C26.2236 39.2426 27.0314 40.0148 27.7841 40.7682C27.9616 40.9433 28.1937 41.0524 28.4418 41.0772C28.6899 41.102 28.939 41.0411 29.1477 40.9046L31.2102 39.558C31.5477 39.7236 31.906 39.8567 32.267 39.9841L32.7443 42.3875C32.7914 42.6344 32.9223 42.8574 33.1149 43.0189C33.3074 43.1804 33.5498 43.2705 33.8011 43.2739H37.1079C37.3621 43.2744 37.6086 43.1861 37.8046 43.0243C38.0007 42.8625 38.1341 42.6372 38.1818 42.3875L38.6591 39.9841C39.0201 39.8567 39.3784 39.7236 39.7159 39.558L41.7784 40.9046C41.987 41.0411 42.2362 41.102 42.4843 41.0772C42.7324 41.0524 42.9645 40.9433 43.142 40.7682C43.8943 40.0152 44.7021 39.243 45.4943 38.45C45.6694 38.2725 45.7785 38.0404 45.8033 37.7923C45.8281 37.5442 45.7672 37.295 45.6306 37.0864L44.25 35.0068C44.4133 34.6687 44.5511 34.3239 44.6761 33.9671L47.1477 33.4387C47.3911 33.3841 47.6085 33.2477 47.7636 33.0523C47.9186 32.8569 48.0021 32.6143 48 32.3648C47.9999 31.2716 47.9999 30.2193 48 29.1262C48.0021 28.8767 47.9186 28.6341 47.7636 28.4387C47.6085 28.2432 47.3911 28.1069 47.1477 28.0523L44.6761 27.5239C44.5511 27.1671 44.4133 26.8221 44.25 26.4841L45.6306 24.4216C45.7716 24.2114 45.8351 23.9587 45.8102 23.7068C45.7853 23.4549 45.6736 23.2195 45.4943 23.041C44.702 22.2479 43.8941 21.4758 43.142 20.7228C42.9645 20.5476 42.7324 20.4386 42.4843 20.4138C42.2362 20.389 41.987 20.4499 41.7784 20.5864L39.7159 21.933C39.3784 21.7674 39.0201 21.6343 38.6591 21.5069L38.1818 19.1035C38.1341 18.8537 38.0007 18.6285 37.8046 18.4667C37.6086 18.3049 37.3621 18.2166 37.1079 18.2171H33.8011ZM34.7045 20.3989H36.2216L36.6306 22.4785C36.6695 22.6819 36.7655 22.8701 36.9074 23.021C37.0492 23.1719 37.2311 23.2794 37.4318 23.3307C38.0873 23.5037 38.7013 23.7576 39.2897 24.0978C39.4646 24.1982 39.664 24.2482 39.8656 24.2422C40.0672 24.2362 40.2632 24.1744 40.4318 24.0637L42.2216 22.8875C42.5889 23.2444 42.9535 23.596 43.3125 23.9444L42.1022 25.7341C41.9882 25.9046 41.9245 26.1038 41.9185 26.3088C41.9124 26.5138 41.9643 26.7163 42.0681 26.8932C42.397 27.459 42.6755 28.0993 42.8522 28.7512C42.9037 28.9443 43.0073 29.1195 43.1515 29.2578C43.2958 29.396 43.4753 29.492 43.6704 29.5353L45.8181 29.9955C45.8181 30.4963 45.8181 30.9948 45.8181 31.4955L43.6704 31.9557C43.4753 31.9989 43.2958 32.0949 43.1515 32.2332C43.0073 32.3715 42.9037 32.5467 42.8522 32.7398C42.6755 33.3918 42.3969 34.032 42.0681 34.5978C41.9643 34.7746 41.9124 34.9772 41.9185 35.1822C41.9245 35.3872 41.9882 35.5864 42.1022 35.7568L43.3125 37.5466C42.9535 37.895 42.5888 38.2465 42.2216 38.6034L40.4318 37.4273C40.2632 37.3166 40.0672 37.2548 39.8656 37.2488C39.664 37.2428 39.4646 37.2928 39.2897 37.3932C38.7015 37.7334 38.0875 37.9872 37.4318 38.1603C37.2311 38.2116 37.0492 38.319 36.9074 38.47C36.7655 38.6209 36.6695 38.8091 36.6306 39.0125L36.2216 41.0921H34.7045L34.2954 39.0125C34.2566 38.8091 34.1606 38.6209 34.0187 38.47C33.8769 38.319 33.695 38.2116 33.4943 38.1603C32.8386 37.9872 32.2246 37.7334 31.6363 37.3932C31.4614 37.2928 31.2621 37.2428 31.0605 37.2488C30.8589 37.2548 30.6629 37.3166 30.4943 37.4273L28.7045 38.6034C28.3375 38.2467 27.9725 37.8951 27.6136 37.5466L28.8068 35.7568C28.9235 35.588 28.9902 35.3897 28.9992 35.1847C29.0083 34.9796 28.9593 34.7762 28.8579 34.5978C28.5291 34.032 28.2506 33.3917 28.0738 32.7398C28.0224 32.5467 27.9188 32.3715 27.7745 32.2332C27.6303 32.0949 27.4508 31.9989 27.2557 31.9557L25.1079 31.4955C25.1079 30.9948 25.1079 30.4963 25.1079 29.9955L27.2557 29.5353C27.4508 29.492 27.6303 29.396 27.7745 29.2578C27.9188 29.1195 28.0224 28.9443 28.0738 28.7512C28.2506 28.0993 28.5291 27.459 28.8579 26.8932C28.9593 26.7148 29.0083 26.5113 28.9992 26.3063C28.9902 26.1013 28.9235 25.903 28.8068 25.7341L27.6136 23.9444C27.9725 23.5959 28.3375 23.2444 28.7045 22.8875L30.4943 24.0637C30.6629 24.1744 30.8589 24.2362 31.0605 24.2422C31.2621 24.2482 31.4614 24.1982 31.6363 24.0978C32.2248 23.7576 32.8387 23.5037 33.4943 23.3307C33.695 23.2794 33.8769 23.1719 34.0187 23.021C34.1606 22.8701 34.2566 22.6819 34.2954 22.4785L34.7045 20.3989ZM35.4545 25.4444C32.5402 25.4444 30.1534 27.8329 30.1534 30.7455C30.1534 33.6582 32.5402 36.0466 35.4545 36.0466C38.3688 36.0466 40.7727 33.6582 40.7727 30.7455C40.7727 27.8329 38.3688 25.4444 35.4545 25.4444ZM35.4545 27.6262C37.1818 27.6262 38.5909 29.0233 38.5909 30.7455C38.5909 32.4677 37.1818 33.8648 35.4545 33.8648C33.7272 33.8648 32.3352 32.4677 32.3352 30.7455C32.3352 29.0233 33.7272 27.6262 35.4545 27.6262Z" fill="#49A3D1"/>
</svg>
