<svg width="48" height="48" viewBox="0 0 48 48" fill="none" xmlns="http://www.w3.org/2000/svg">
    <path d="M6.98795 6.0012C6.7167 6.02676 6.46482 6.15288 6.28186 6.35475C6.09891 6.55662 5.9981 6.81964 5.99928 7.09207V28.3811L0.118358 40.4148C0.0338841 40.5811 -0.00656651 40.7662 0.000867376 40.9525C0.00830126 41.1388 0.0633716 41.3201 0.160821 41.4791C0.258271 41.6381 0.394847 41.7695 0.557513 41.8607C0.720178 41.9518 0.903503 41.9998 1.08999 42H46.91C47.0965 41.9998 47.2798 41.9518 47.4425 41.8607C47.6051 41.7695 47.7417 41.6381 47.8392 41.4791C47.9366 41.3201 47.9917 41.1388 47.9991 40.9525C48.0066 40.7662 47.9661 40.5811 47.8816 40.4148L42.0007 28.3811V7.09207C42.0007 6.80276 41.8857 6.52531 41.6812 6.32074C41.4766 6.11617 41.1991 6.00123 40.9098 6.0012H7.09023C7.05616 5.9996 7.02203 5.9996 6.98795 6.0012ZM8.18118 8.18294H39.8188V27.6141H8.18118V8.18294ZM24 8.77952C23.612 8.77952 23.3011 9.09037 23.3011 9.47836C23.3011 9.86634 23.612 10.1942 24 10.1942C24.388 10.1942 24.6989 9.86634 24.6989 9.47836C24.6989 9.09037 24.388 8.77952 24 8.77952ZM7.73798 29.7959H40.262L45.1713 39.8183H32.8981L30.3582 35.54C30.2631 35.3752 30.1265 35.2382 29.962 35.1425C29.7976 35.0468 29.6109 34.9958 29.4207 34.9946H18.5793C18.5396 34.9924 18.4997 34.9924 18.46 34.9946C18.2904 35.0151 18.1281 35.0751 17.986 35.1699C17.8438 35.2646 17.726 35.3914 17.6418 35.54L15.1019 39.8183H2.82869L7.73798 29.7959ZM9.45964 31.4322C9.31636 31.4389 9.17579 31.4737 9.04597 31.5347C8.91616 31.5957 8.79963 31.6817 8.70306 31.7878C8.60648 31.8938 8.53174 32.0179 8.4831 32.1528C8.43447 32.2877 8.41289 32.4309 8.41961 32.5742C8.42633 32.7175 8.4612 32.858 8.52225 32.9878C8.58329 33.1176 8.66931 33.2341 8.77538 33.3306C8.88146 33.4272 9.00552 33.5019 9.14047 33.5505C9.27543 33.5991 9.41864 33.6207 9.56192 33.6139H12.0336C12.1782 33.616 12.3217 33.5893 12.4559 33.5353C12.59 33.4814 12.7121 33.4014 12.8151 33.2999C12.918 33.1984 12.9998 33.0775 13.0556 32.9441C13.1114 32.8107 13.1401 32.6676 13.1401 32.523C13.1401 32.3785 13.1114 32.2353 13.0556 32.102C12.9998 31.9686 12.918 31.8477 12.8151 31.7462C12.7121 31.6447 12.59 31.5646 12.4559 31.5107C12.3217 31.4568 12.1782 31.4301 12.0336 31.4322H9.56192C9.52784 31.4306 9.49372 31.4306 9.45964 31.4322ZM16.0565 31.4322C15.9132 31.4389 15.7726 31.4737 15.6428 31.5347C15.513 31.5957 15.3965 31.6817 15.2999 31.7878C15.2033 31.8938 15.1286 32.0179 15.08 32.1528C15.0313 32.2877 15.0097 32.4309 15.0165 32.5742C15.0232 32.7175 15.0581 32.858 15.1191 32.9878C15.1801 33.1176 15.2662 33.2341 15.3722 33.3306C15.4783 33.4272 15.6024 33.5019 15.7373 33.5505C15.8723 33.5991 16.0155 33.6207 16.1588 33.6139H18.6305C18.775 33.616 18.9186 33.5893 19.0527 33.5353C19.1869 33.4814 19.309 33.4014 19.4119 33.2999C19.5149 33.1984 19.5966 33.0775 19.6524 32.9441C19.7082 32.8107 19.7369 32.6676 19.7369 32.523C19.7369 32.3785 19.7082 32.2353 19.6524 32.102C19.5966 31.9686 19.5149 31.8477 19.4119 31.7462C19.309 31.6447 19.1869 31.5646 19.0527 31.5107C18.9186 31.4568 18.775 31.4301 18.6305 31.4322H16.1588C16.1247 31.4306 16.0906 31.4306 16.0565 31.4322ZM22.6534 31.4322C22.5101 31.44 22.3697 31.476 22.2404 31.538C22.111 31.6001 21.9951 31.687 21.8993 31.7938C21.8036 31.9007 21.7298 32.0253 21.6822 32.1607C21.6346 32.296 21.6141 32.4394 21.622 32.5827C21.6298 32.726 21.6658 32.8663 21.7278 32.9956C21.7899 33.125 21.8769 33.2409 21.9837 33.3366C22.0906 33.4324 22.2152 33.5062 22.3506 33.5537C22.486 33.6013 22.6294 33.6218 22.7727 33.6139H25.2273C25.3719 33.616 25.5154 33.5893 25.6496 33.5353C25.7837 33.4814 25.9058 33.4014 26.0088 33.2999C26.1117 33.1984 26.1935 33.0775 26.2493 32.9441C26.3051 32.8107 26.3338 32.6676 26.3338 32.523C26.3338 32.3785 26.3051 32.2353 26.2493 32.102C26.1935 31.9686 26.1117 31.8477 26.0088 31.7462C25.9058 31.6447 25.7837 31.5646 25.6496 31.5107C25.5154 31.4568 25.3719 31.4301 25.2273 31.4322H22.7727C22.7329 31.43 22.6931 31.43 22.6534 31.4322ZM29.2673 31.4322C29.124 31.4389 28.9834 31.4737 28.8536 31.5347C28.7238 31.5957 28.6072 31.6817 28.5107 31.7878C28.4141 31.8938 28.3393 32.0179 28.2907 32.1528C28.2421 32.2877 28.2205 32.4309 28.2272 32.5742C28.2339 32.7175 28.2688 32.858 28.3299 32.9878C28.3909 33.1176 28.4769 33.2341 28.583 33.3306C28.6891 33.4272 28.8131 33.5019 28.9481 33.5505C29.083 33.5991 29.2262 33.6207 29.3695 33.6139H31.8412C31.9858 33.616 32.1293 33.5893 32.2635 33.5353C32.3976 33.4814 32.5197 33.4014 32.6227 33.2999C32.7256 33.1984 32.8074 33.0775 32.8632 32.9441C32.919 32.8107 32.9477 32.6676 32.9477 32.523C32.9477 32.3785 32.919 32.2353 32.8632 32.102C32.8074 31.9686 32.7256 31.8477 32.6227 31.7462C32.5197 31.6447 32.3976 31.5646 32.2635 31.5107C32.1293 31.4568 31.9858 31.4301 31.8412 31.4322H29.3695C29.3355 31.4306 29.3013 31.4306 29.2673 31.4322ZM35.8641 31.4322C35.7208 31.4389 35.5803 31.4737 35.4504 31.5347C35.3206 31.5957 35.2041 31.6817 35.1075 31.7878C35.0109 31.8938 34.9362 32.0179 34.8876 32.1528C34.8389 32.2877 34.8174 32.4309 34.8241 32.5742C34.8308 32.7175 34.8657 32.858 34.9267 32.9878C34.9878 33.1176 35.0738 33.2341 35.1799 33.3306C35.2859 33.4272 35.41 33.5019 35.5449 33.5505C35.6799 33.5991 35.8231 33.6207 35.9664 33.6139H38.4381C38.5826 33.616 38.7262 33.5893 38.8603 33.5353C38.9945 33.4814 39.1166 33.4014 39.2195 33.2999C39.3225 33.1984 39.4042 33.0775 39.46 32.9441C39.5158 32.8107 39.5446 32.6676 39.5446 32.523C39.5446 32.3785 39.5158 32.2353 39.46 32.102C39.4042 31.9686 39.3225 31.8477 39.2195 31.7462C39.1166 31.6447 38.9945 31.5646 38.8603 31.5107C38.7262 31.4568 38.5826 31.4301 38.4381 31.4322H35.9664C35.9323 31.4306 35.8982 31.4306 35.8641 31.4322ZM19.193 37.1763H28.807L30.3582 39.8183H17.6418L19.193 37.1763Z" fill="#49A3D1"/>
    <path fill-rule="evenodd" clip-rule="evenodd" d="M21.767 12.8532C19.5316 12.8532 17.6588 14.6262 17.6588 16.8417C17.6588 16.8674 17.6631 16.8908 17.6674 16.9142C17.6712 16.9349 17.675 16.9557 17.6759 16.9781C16.4046 17.5639 15.511 18.8187 15.511 20.3019C15.511 22.3274 17.152 24.0006 19.1759 24.0006H29.2332C31.2571 24.0006 32.8981 22.3274 32.8981 20.3019C32.8981 18.4717 31.5298 17.0025 29.7786 16.7224C29.2867 15.1095 27.7967 13.9271 26.0114 13.9271C25.5714 13.9271 25.1645 14.0022 24.7671 14.1316C24.0128 13.3429 22.947 12.8532 21.767 12.8532ZM23.4716 16.0065C23.1551 15.4419 22.5288 15.035 21.767 15.035C20.6651 15.035 19.8407 15.8637 19.8407 16.8417C19.8407 17.0243 19.8665 17.192 19.926 17.3701C19.9779 17.525 19.9944 17.6896 19.9742 17.8518C19.954 18.0139 19.8976 18.1694 19.8093 18.3069C19.7209 18.4443 19.6028 18.5601 19.4637 18.6458C19.3246 18.7315 19.168 18.7848 19.0055 18.8019C18.2572 18.8848 17.6929 19.495 17.6929 20.3019C17.6929 21.1653 18.3395 21.8189 19.1759 21.8189H29.2332C30.0696 21.8189 30.7162 21.1653 30.7162 20.3019C30.7162 19.4385 30.073 18.7849 29.2332 18.7849H28.9093C28.6286 18.7851 28.3586 18.6773 28.1554 18.4836C27.9522 18.29 27.8315 18.0255 27.8183 17.7451C27.7883 16.8528 27.0301 16.1088 26.0114 16.1088C25.6304 16.1088 25.2981 16.214 25.0057 16.3986C24.8803 16.4775 24.7402 16.5301 24.5938 16.553C24.4474 16.576 24.2979 16.569 24.1544 16.5323C24.0108 16.4956 23.8763 16.4301 23.7589 16.3397C23.6415 16.2493 23.5437 16.1359 23.4716 16.0065Z" fill="#49A3D1"/>
</svg>
