<svg width="48" height="48" viewBox="0 0 48 48" fill="none" xmlns="http://www.w3.org/2000/svg">
    <path d="M5.46592 0C2.46273 0 0 2.52845 0 5.61089C0 8.25775 1.82009 10.4891 4.23416 11.0681V14.5653C4.23416 18.0487 7.09193 20.8871 10.5854 20.8871H17.1099C16.8588 21.4797 16.6726 22.1134 16.571 22.7702H10.6431C7.14967 22.7702 4.2919 25.6086 4.2919 29.0921V36.9127C1.84807 37.4689 0 39.7204 0 42.3891C0 45.4715 2.46273 48 5.46592 48C8.46911 48 10.9318 45.4715 10.9318 42.3891C10.9318 39.764 9.13973 37.5523 6.75541 36.9512V29.0921C6.75541 26.9326 8.46798 25.2298 10.6431 25.2298H16.571C17.0758 28.4924 19.5564 31.1026 22.7105 31.6861V36.9319C20.2964 37.5109 18.4763 39.7422 18.4763 42.3891C18.4763 45.4715 20.9391 48 23.9423 48C26.9454 48 29.4082 45.4715 29.4082 42.3891C29.4082 39.7422 27.5881 37.5109 25.174 36.9319V31.7054C26.7978 31.4549 28.267 30.6888 29.3889 29.5532H37.4146C39.5898 29.5532 41.3023 31.256 41.3023 33.4155V36.9319C38.8882 37.5109 37.0682 39.7422 37.0682 42.3891C37.0682 45.4715 39.5309 48 42.5341 48C45.5373 48 48 45.4715 48 42.3891C48 39.7422 46.1799 37.5109 43.7658 36.9319V33.4155C43.7658 29.932 40.9081 27.0937 37.4146 27.0937H31.0441C31.2944 26.5025 31.4631 25.8652 31.5638 25.2106H37.3569C40.8503 25.2106 43.7081 22.3722 43.7081 18.8887V11.0873C46.1519 10.5311 48 8.27954 48 5.61089C48 2.52845 45.5373 0 42.5341 0C39.5309 0 37.0682 2.52845 37.0682 5.61089C37.0682 8.23596 38.8603 10.4477 41.2446 11.0488V18.8887C41.2446 21.0482 39.532 22.751 37.3569 22.751H31.5445C31.0219 19.4644 28.4886 16.8598 25.2895 16.3139V11.0681C27.7036 10.4891 29.5237 8.25775 29.5237 5.61089C29.5237 2.52845 27.0609 0 24.0577 0C21.0546 0 18.5918 2.52845 18.5918 5.61089C18.5918 8.25775 20.4119 10.4891 22.826 11.0681V16.3139C21.2558 16.5797 19.8533 17.3269 18.765 18.4275H10.5854C8.41024 18.4275 6.69767 16.7248 6.69767 14.5653V11.0681C9.11175 10.4891 10.9318 8.25775 10.9318 5.61089C10.9318 2.52845 8.46911 0 5.46592 0ZM5.46592 2.498C7.156 2.498 8.50682 3.87622 8.50682 5.61089C8.50682 7.34557 7.156 8.72378 5.46592 8.72378C3.77584 8.72378 2.44427 7.34557 2.44427 5.61089C2.44427 3.87622 3.77584 2.498 5.46592 2.498ZM24.0577 2.498C25.7478 2.498 27.0986 3.87622 27.0986 5.61089C27.0986 7.34557 25.7478 8.72378 24.0577 8.72378C22.3677 8.72378 21.0168 7.34557 21.0168 5.61089C21.0168 3.87622 22.3677 2.498 24.0577 2.498ZM42.5341 2.498C44.2242 2.498 45.5557 3.87622 45.5557 5.61089C45.5557 7.34557 44.2242 8.72378 42.5341 8.72378C40.844 8.72378 39.4932 7.34557 39.4932 5.61089C39.4932 3.87622 40.844 2.498 42.5341 2.498ZM24.0577 18.7158C26.9242 18.7158 29.235 21.058 29.235 24C29.235 26.942 26.9242 29.2842 24.0577 29.2842C21.1913 29.2842 18.8998 26.942 18.8998 24C18.8998 21.058 21.1913 18.7158 24.0577 18.7158ZM5.46592 39.2762C7.156 39.2762 8.50682 40.6544 8.50682 42.3891C8.50682 44.1238 7.156 45.502 5.46592 45.502C3.77584 45.502 2.44427 44.1238 2.44427 42.3891C2.44427 40.6544 3.77584 39.2762 5.46592 39.2762ZM23.9423 39.2762C25.6323 39.2762 26.9832 40.6544 26.9832 42.3891C26.9832 44.1238 25.6323 45.502 23.9423 45.502C22.2522 45.502 20.9014 44.1238 20.9014 42.3891C20.9014 40.6544 22.2522 39.2762 23.9423 39.2762ZM42.5341 39.2762C44.2242 39.2762 45.5557 40.6544 45.5557 42.3891C45.5557 44.1238 44.2242 45.502 42.5341 45.502C40.844 45.502 39.4932 44.1238 39.4932 42.3891C39.4932 40.6544 40.844 39.2762 42.5341 39.2762Z" fill="#49A3D1"/>
</svg>
