<svg width="48" height="48" viewBox="0 0 48 48" fill="none" xmlns="http://www.w3.org/2000/svg">
    <path d="M33.4835 4C27.6574 4 22.9358 8.70336 22.9358 14.5136V32.7293C22.9358 37.3644 19.2291 41.0789 14.5691 41.0789C10.4164 41.0789 6.99874 38.1448 6.30478 34.2289H9.61053C10.1815 34.2288 10.701 33.7093 10.7011 33.1383V18.1261C10.701 17.5551 10.1815 17.0356 9.61053 17.0356H8.75853V14.224C8.75847 13.653 8.23897 13.1335 7.66797 13.1334H3.03311C2.46211 13.1335 1.94261 13.653 1.94255 14.224V17.0356H1.09056C0.519558 17.0356 5.70906e-05 17.5551 0 18.1261V33.1383C5.70906e-05 33.7093 0.519558 34.2288 1.09056 34.2289H4.12367C4.84774 39.3392 9.24953 43.26 14.5691 43.26C20.3952 43.26 25.1169 38.5396 25.1169 32.7293V14.5136C25.1169 9.87852 28.8235 6.18111 33.4835 6.18111C37.667 6.18111 41.1066 9.17378 41.7649 13.1334H38.3739C37.8029 13.1335 37.2834 13.653 37.2834 14.224V29.2191C37.281 29.7576 37.7356 30.2591 38.2717 30.3097C38.3058 30.3112 38.3399 30.3112 38.3739 30.3097H39.2259V33.1383C39.226 33.7093 39.7455 34.2288 40.3165 34.2289H44.9514C45.5224 34.2288 46.0419 33.7093 46.0419 33.1383V30.3097H46.8939C47.4649 30.3096 47.9844 29.7901 47.9845 29.2191V17.3764C47.9926 16.8002 47.4701 16.2703 46.8939 16.2703C46.3177 16.2703 45.7952 16.8002 45.8034 17.3764V23.4596H39.4645V15.3145H46.8939C47.4701 15.3227 48 14.8002 48 14.224C48 13.6478 47.4701 13.1253 46.8939 13.1334H43.929C43.2526 7.97181 38.8408 4 33.4835 4ZM4.12367 15.3145H6.57742V17.0356H4.12367V15.3145ZM2.18111 19.2167H8.51997V21.4492H2.18111V19.2167ZM2.18111 23.6303H8.51997V32.0477H2.18111V23.6303ZM39.4645 25.6407H45.8034V28.1286H39.4645V25.6407ZM41.4071 30.3097H43.8608V32.0477H41.4071V30.3097Z" fill="#49A3D1"/>
</svg>
