<svg width="48" height="48" viewBox="0 0 48 48" fill="none" xmlns="http://www.w3.org/2000/svg">
    <path d="M23.9107 1.00473C23.8136 1.01036 23.7176 1.02836 23.625 1.0583L13.4822 4.52259C13.3391 4.57066 13.2069 4.64644 13.0932 4.74559C12.9794 4.84475 12.8863 4.96534 12.8191 5.10048C12.752 5.23563 12.7121 5.38267 12.7018 5.53323C12.6914 5.68378 12.7109 5.8349 12.7589 5.97795C12.807 6.12099 12.8828 6.25317 12.9819 6.36693C13.0811 6.48069 13.2017 6.57381 13.3368 6.64097C13.472 6.70812 13.619 6.748 13.7696 6.75833C13.9201 6.76866 14.0712 6.74923 14.2143 6.70116L24 3.34402L33 6.4333V20.219C33 21.9794 32.0905 23.757 30.1786 25.4333C28.5017 26.9035 26.0927 28.0221 24 28.5047C21.9073 28.0221 19.4983 26.9035 17.8214 25.4333C15.9095 23.757 15 21.9794 15 20.219V8.79045C15.0021 8.639 14.9742 8.48865 14.9177 8.34812C14.8612 8.20758 14.7774 8.07968 14.671 7.97183C14.5647 7.86398 14.438 7.77834 14.2983 7.71988C14.1586 7.66143 14.0086 7.63133 13.8572 7.63133C13.7057 7.63133 13.5557 7.66143 13.416 7.71988C13.2763 7.77834 13.1496 7.86398 13.0433 7.97183C12.9369 8.07968 12.8531 8.20758 12.7966 8.34812C12.7401 8.48865 12.7122 8.639 12.7143 8.79045V10.1476H1.14287C1.10717 10.1459 1.07142 10.1459 1.03572 10.1476C0.751566 10.1744 0.487709 10.3065 0.296045 10.518C0.104381 10.7295 -0.00122007 11.005 1.06374e-05 11.2904V40.1119C4.09272e-05 40.415 0.120458 40.7056 0.334779 40.92C0.5491 41.1343 0.839772 41.2547 1.14287 41.2547H16.75V44.4333H13.6072C13.5715 44.4316 13.5357 44.4316 13.5 44.4333C13.3499 44.4403 13.2027 44.4768 13.0667 44.5407C12.9307 44.6047 12.8086 44.6947 12.7074 44.8058C12.6063 44.9169 12.528 45.0469 12.477 45.1883C12.4261 45.3296 12.4035 45.4796 12.4105 45.6297C12.4175 45.7798 12.4541 45.9271 12.518 46.0631C12.582 46.199 12.6721 46.3211 12.7832 46.4222C12.8943 46.5234 13.0243 46.6017 13.1657 46.6526C13.307 46.7035 13.4571 46.7261 13.6072 46.719H34.3929C34.5443 46.7211 34.6947 46.6932 34.8352 46.6367C34.9757 46.5802 35.1036 46.4964 35.2115 46.39C35.3193 46.2837 35.405 46.157 35.4634 46.0173C35.5219 45.8776 35.552 45.7276 35.552 45.5762C35.552 45.4247 35.5219 45.2747 35.4634 45.135C35.405 44.9953 35.3193 44.8686 35.2115 44.7623C35.1036 44.6559 34.9757 44.5721 34.8352 44.5156C34.6947 44.4591 34.5443 44.4312 34.3929 44.4333H31.25V43.2904C31.2524 43.1373 31.224 42.9853 31.1665 42.8434C31.109 42.7015 31.0236 42.5726 30.9154 42.4644C30.8071 42.3561 30.6782 42.2707 30.5363 42.2132C30.3944 42.1557 30.2424 42.1273 30.0893 42.1297C29.9392 42.1321 29.7911 42.1639 29.6533 42.2235C29.5155 42.2831 29.3909 42.3693 29.2864 42.4771C29.1819 42.5849 29.0997 42.7122 29.0444 42.8517C28.9892 42.9913 28.9619 43.1404 28.9643 43.2904V44.4333H19.0357V41.2547H46.8571C47.1602 41.2547 47.4509 41.1343 47.6652 40.92C47.8796 40.7056 48 40.415 48 40.1119V11.2904C48 10.9873 47.8796 10.6967 47.6652 10.4824C47.4509 10.268 47.1602 10.1476 46.8571 10.1476H37.9643C37.8128 10.1454 37.6625 10.1734 37.522 10.2299C37.3814 10.2864 37.2535 10.3702 37.1457 10.4765C37.0378 10.5829 36.9522 10.7096 36.8937 10.8493C36.8353 10.989 36.8052 11.139 36.8052 11.2904C36.8052 11.4419 36.8353 11.5918 36.8937 11.7316C36.9522 11.8713 37.0378 11.998 37.1457 12.1043C37.2535 12.2107 37.3814 12.2945 37.522 12.351C37.6625 12.4075 37.8128 12.4354 37.9643 12.4333H45.7143V38.969H2.28572V36.9333H42.5357C42.6872 36.9354 42.8375 36.9075 42.9781 36.851C43.1186 36.7945 43.2465 36.7107 43.3543 36.6043C43.4622 36.498 43.5478 36.3713 43.6063 36.2316C43.6647 36.0918 43.6948 35.9419 43.6948 35.7904C43.6948 35.639 43.6647 35.489 43.6063 35.3493C43.5478 35.2096 43.4622 35.0829 43.3543 34.9765C43.2465 34.8702 43.1186 34.7864 42.9781 34.7299C42.8375 34.6734 42.6872 34.6454 42.5357 34.6476H2.28572V12.4333H12.7143V20.219C12.7143 22.7852 14.0725 25.1759 16.3214 27.1476C18.4242 28.9912 21.2072 30.2897 23.7679 30.8262C23.921 30.8579 24.079 30.8579 24.2321 30.8262C26.7928 30.2897 29.5758 28.9912 31.6786 27.1476C33.9275 25.1759 35.2857 22.7852 35.2857 20.219V5.61187C35.2877 5.37281 35.2147 5.13914 35.077 4.94373C34.9392 4.74833 34.7437 4.60104 34.5179 4.52259L24.375 1.0583C24.2256 1.00866 24.0675 0.99042 23.9107 1.00473ZM28.75 10.0047C28.5322 10.0259 28.325 10.1092 28.1531 10.2447C27.9812 10.3802 27.8519 10.5622 27.7804 10.7691C27.7089 10.976 27.6984 11.199 27.75 11.4117C27.8015 11.6245 27.9131 11.8179 28.0714 11.969L29.1429 13.0404L22.5357 19.6654L18.9107 16.0226L19.6786 15.3262L22.0893 16.7547C22.2803 16.8683 22.5003 16.9237 22.7223 16.9142C22.9443 16.9047 23.1587 16.8306 23.3393 16.7012L26.8571 14.2012C26.992 14.1199 27.1086 14.0117 27.1997 13.8833C27.2908 13.7549 27.3544 13.609 27.3865 13.4549C27.4185 13.3007 27.4184 13.1416 27.3861 12.9875C27.3538 12.8335 27.29 12.6877 27.1987 12.5594C27.1075 12.4311 26.9907 12.3231 26.8557 12.2421C26.7207 12.161 26.5704 12.1088 26.4143 12.0886C26.2581 12.0683 26.0995 12.0806 25.9483 12.1245C25.7971 12.1685 25.6567 12.2432 25.5357 12.344L22.625 14.4154L20.1072 12.9333C19.8975 12.8122 19.6549 12.7608 19.4142 12.7865C19.1735 12.8122 18.9472 12.9136 18.7679 13.0762L16.4822 15.1297C16.3669 15.2341 16.2741 15.3609 16.2096 15.5023C16.145 15.6438 16.11 15.7969 16.1066 15.9524C16.1033 16.1079 16.1317 16.2624 16.1901 16.4065C16.2486 16.5506 16.3358 16.6812 16.4464 16.7904L21.7322 22.1119C21.8384 22.2193 21.965 22.3046 22.1044 22.3628C22.2439 22.421 22.3935 22.451 22.5446 22.451C22.6958 22.451 22.8454 22.421 22.9849 22.3628C23.1243 22.3046 23.2509 22.2193 23.3571 22.1119L31.5536 13.844C31.7651 13.6301 31.8837 13.3413 31.8837 13.0404C31.8837 12.7396 31.7651 12.4508 31.5536 12.2369L29.6964 10.3619C29.5767 10.2337 29.429 10.1348 29.2649 10.0729C29.1008 10.011 28.9246 9.98764 28.75 10.0047Z" fill="#49A3D1"/>
</svg>
