<svg width="180" height="80" viewBox="0 0 180 80" fill="none" xmlns="http://www.w3.org/2000/svg">
    <path fill-rule="evenodd" clip-rule="evenodd" d="M131.113 47.6026C131.113 46.9192 131.664 46.4153 132.314 46.4153C132.959 46.4153 133.51 46.9192 133.51 47.6026C133.51 48.2922 132.959 48.7961 132.314 48.7961C131.664 48.7961 131.113 48.2922 131.113 47.6026ZM132.314 48.598C132.85 48.598 133.272 48.1761 133.272 47.6026C133.272 47.0389 132.85 46.6138 132.314 46.6138C131.773 46.6138 131.351 47.0389 131.351 47.6026C131.351 48.1761 131.773 48.598 132.314 48.598ZM132.064 48.2922H131.858V46.9192H132.377C132.699 46.9192 132.859 47.0389 132.859 47.3097C132.859 47.5556 132.706 47.6624 132.506 47.6877L132.894 48.2922H132.662L132.302 47.697H132.064V48.2922L132.311 47.5206C132.487 47.5206 132.643 47.5082 132.643 47.2972C132.643 47.1271 132.49 47.0956 132.346 47.0956H132.064V47.5206H132.311L132.064 48.2922Z" fill="black"/>
    <path fill-rule="evenodd" clip-rule="evenodd" d="M41.4536 55.8341L36.4096 46.7806H54.6466L45.489 27.2679L32.0632 55.8341H15.999L37.0307 17.2778H53.9481L74.8243 55.8341H41.4536Z" fill="#FF0000"/>
    <path fill-rule="evenodd" clip-rule="evenodd" d="M74.9029 33.4346H94.9252C99.9692 33.4346 101.987 33.1218 101.987 29.5317C101.987 26.098 100.358 25.7074 95.158 25.7074H74.8248L70.3237 17.2778H98.5722C111.921 17.2778 116.887 23.1317 116.887 29.3753C116.887 35.3856 112.308 42.0197 97.6409 42.0197H90.9671V55.8341H74.8248V33.4346H74.9029Z" fill="#FF0000"/>
    <path fill-rule="evenodd" clip-rule="evenodd" d="M158.717 53.4935C153.905 55.7565 147.929 56.8495 141.566 56.8495C122.319 56.8495 115.723 46.0791 115.723 37.1812C115.723 25.9426 125.501 17.2788 142.342 17.2788C148.473 17.2788 153.827 18.2154 158.328 19.9323V31.0932C153.672 28.5961 149.637 27.5031 144.903 27.5031C136.832 27.5031 130.235 31.1718 130.235 37.0248C130.235 42.8009 136.987 46.5474 145.058 46.5474C149.714 46.5474 153.516 45.6108 158.717 43.1915V53.4935Z" fill="#FF0000"/>
    <path fill-rule="evenodd" clip-rule="evenodd" d="M160.419 20.6113C160.419 19.5967 161.242 18.8486 162.214 18.8486C163.177 18.8486 164 19.5967 164 20.6113C164 21.635 163.177 22.3831 162.214 22.3831C161.242 22.3831 160.419 21.635 160.419 20.6113ZM162.214 22.089C163.013 22.089 163.645 21.4626 163.645 20.6113C163.645 19.7744 163.013 19.1434 162.214 19.1434C161.405 19.1434 160.774 19.7744 160.774 20.6113C160.774 21.4626 161.405 22.089 162.214 22.089ZM161.84 21.635H161.532V19.5967H162.308C162.789 19.5967 163.028 19.7744 163.028 20.1764C163.028 20.5415 162.798 20.7001 162.5 20.7376L163.079 21.635H162.733L162.196 20.7514H161.84V21.635L162.21 20.4896C162.471 20.4896 162.705 20.4711 162.705 20.1579C162.705 19.9053 162.476 19.8586 162.261 19.8586H161.84V20.4896H162.21L161.84 21.635Z" fill="black"/>
</svg>
