<svg width="181" height="80" viewBox="0 0 181 80" fill="none" xmlns="http://www.w3.org/2000/svg">
    <path fill-rule="evenodd" clip-rule="evenodd" d="M131.613 47.6026C131.613 46.9192 132.164 46.4153 132.814 46.4153C133.459 46.4153 134.01 46.9192 134.01 47.6026C134.01 48.2922 133.459 48.7961 132.814 48.7961C132.164 48.7961 131.613 48.2922 131.613 47.6026ZM132.814 48.598C133.35 48.598 133.772 48.1761 133.772 47.6026C133.772 47.0389 133.35 46.6138 132.814 46.6138C132.273 46.6138 131.851 47.0389 131.851 47.6026C131.851 48.1761 132.273 48.598 132.814 48.598ZM132.564 48.2922H132.358V46.9192H132.877C133.199 46.9192 133.359 47.0389 133.359 47.3097C133.359 47.5556 133.206 47.6624 133.006 47.6877L133.394 48.2922H133.162L132.802 47.697H132.564V48.2922L132.811 47.5206C132.987 47.5206 133.143 47.5082 133.143 47.2972C133.143 47.1271 132.99 47.0956 132.846 47.0956H132.564V47.5206H132.811L132.564 48.2922Z" fill="#A3B1BF"/>
    <path fill-rule="evenodd" clip-rule="evenodd" d="M41.9536 55.8341L36.9096 46.7806H55.1466L45.989 27.2679L32.5632 55.8341H16.499L37.5307 17.2778H54.4481L75.3243 55.8341H41.9536Z" fill="#A3B1BF"/>
    <path fill-rule="evenodd" clip-rule="evenodd" d="M75.4029 33.4346H95.4252C100.469 33.4346 102.487 33.1218 102.487 29.5317C102.487 26.098 100.858 25.7074 95.658 25.7074H75.3248L70.8237 17.2778H99.0722C112.421 17.2778 117.387 23.1317 117.387 29.3753C117.387 35.3856 112.808 42.0197 98.1409 42.0197H91.4671V55.8341H75.3248V33.4346H75.4029Z" fill="#A3B1BF"/>
    <path fill-rule="evenodd" clip-rule="evenodd" d="M159.217 53.4935C154.405 55.7565 148.43 56.8495 142.066 56.8495C122.82 56.8495 116.223 46.0791 116.223 37.1812C116.223 25.9426 126.001 17.2788 142.842 17.2788C148.973 17.2788 154.328 18.2154 158.829 19.9323V31.0932C154.172 28.5961 150.137 27.5031 145.403 27.5031C137.332 27.5031 130.735 31.1718 130.735 37.0248C130.735 42.8009 137.487 46.5474 145.558 46.5474C150.214 46.5474 154.017 45.6108 159.217 43.1915V53.4935Z" fill="#A3B1BF"/>
    <path fill-rule="evenodd" clip-rule="evenodd" d="M160.919 20.6113C160.919 19.5967 161.742 18.8486 162.714 18.8486C163.677 18.8486 164.5 19.5967 164.5 20.6113C164.5 21.635 163.677 22.3831 162.714 22.3831C161.742 22.3831 160.919 21.635 160.919 20.6113ZM162.714 22.089C163.513 22.089 164.145 21.4626 164.145 20.6113C164.145 19.7744 163.513 19.1434 162.714 19.1434C161.905 19.1434 161.274 19.7744 161.274 20.6113C161.274 21.4626 161.905 22.089 162.714 22.089ZM162.34 21.635H162.032V19.5967H162.807C163.289 19.5967 163.528 19.7744 163.528 20.1764C163.528 20.5415 163.298 20.7001 162.999 20.7376L163.579 21.635H163.233L162.696 20.7514H162.34V21.635L162.709 20.4896C162.971 20.4896 163.205 20.4711 163.205 20.1579C163.205 19.9053 162.976 19.8586 162.761 19.8586H162.34V20.4896H162.709L162.34 21.635Z" fill="#A3B1BF"/>
</svg>
