<svg width="180" height="80" viewBox="0 0 180 80" fill="none" xmlns="http://www.w3.org/2000/svg">
    <path fill-rule="evenodd" clip-rule="evenodd" d="M75.334 18.973H84.1961L84.3019 19.0789V57.5903L84.1961 57.6952H75.334C75.2282 57.6952 75.2282 57.5903 75.2282 57.5903V19.0789C75.2282 19.0789 75.2282 18.973 75.334 18.973ZM72.3794 18.973C72.3794 18.973 72.4852 19.0789 72.3794 19.1837L60.6676 38.1758C60.5627 38.2817 60.5627 38.4924 60.6676 38.7031L72.4852 57.4845C72.5901 57.5894 72.4852 57.6952 72.4852 57.6952H61.5123C61.4065 57.6952 61.3006 57.5903 61.1958 57.5903L54.1262 45.9834C54.0203 45.8785 54.0203 45.8785 53.9145 45.9834L47.2682 57.4855C47.1624 57.5903 47.0565 57.6962 46.9517 57.6962H36.7177C36.507 57.6962 36.507 57.5913 36.6128 57.5913L48.6402 37.6486C48.8509 37.4379 48.8509 37.2272 48.6402 37.0155L38.0887 19.1837C37.9838 19.0789 38.0887 18.973 38.0887 18.973H48.746C48.8509 18.973 48.9567 19.0789 48.9567 19.1837L55.3923 29.9459C55.4981 30.0518 55.4981 30.0518 55.603 29.9459L62.2502 19.1837C62.2502 19.0789 62.3551 18.973 62.4609 18.973H72.3794Z" fill="#272727"/>
    <path fill-rule="evenodd" clip-rule="evenodd" d="M148.136 8L180 57.6951H152.356L141.91 41.4469H140.646L139.905 40.2866H127.456L148.136 8Z" fill="#F3DD34"/>
    <path fill-rule="evenodd" clip-rule="evenodd" d="M146.13 38.7039L158.368 57.695H119.437L131.675 38.7039H146.13Z" fill="black"/>
    <path fill-rule="evenodd" clip-rule="evenodd" d="M142.966 38.7039L155.204 57.695H116.271L128.511 38.7039H142.966Z" fill="#AF4A42"/>
    <path fill-rule="evenodd" clip-rule="evenodd" d="M33.2362 18.9729H25.0063C24.9014 18.9729 24.7956 19.0787 24.7956 19.1836L0 57.5902C0 57.5902 -9.72741e-08 57.6951 0.105832 57.6951H10.1291C10.234 57.6951 10.3398 57.6951 10.3398 57.5902L13.7169 52.314C13.8217 52.314 13.8217 52.2091 13.9276 52.2091H24.4781C24.583 52.2091 24.583 52.314 24.583 52.314V57.4853C24.583 57.5902 24.583 57.6961 24.6888 57.6961H33.3411L33.446 57.5912V19.1836C33.4469 19.0787 33.3421 18.9729 33.2362 18.9729ZM24.5839 44.6132V44.7181H18.0425C17.9367 44.7181 17.9367 44.7181 17.9367 44.6132L24.9005 33.5335L24.5839 44.6132ZM89.4727 57.6951H101.184C102.66 57.5902 104.137 57.3776 105.509 56.9562C110.891 55.2686 113.74 49.8866 113.74 45.3512C113.74 38.0699 108.042 35.5376 101.289 32.6888C100.13 32.1616 98.6532 31.4227 98.6532 29.84C98.6532 28.2573 100.236 27.4135 101.922 27.4135H111.102C111.207 27.4135 111.207 27.4135 111.207 27.3087V18.9729C111.207 18.868 111.207 18.868 111.102 18.868H101.501C93.4828 18.868 88.7338 23.6161 88.7338 30.2633C88.7338 36.0658 92.4264 38.9146 97.8065 41.1313C101.606 42.6082 104.032 43.2413 104.032 46.3008C104.032 47.8835 103.084 49.4652 101.079 49.4652H89.4727V57.5902C89.4727 57.6951 89.5776 57.6951 89.4727 57.6951ZM118.699 18.7622C116.905 18.7622 115.533 20.239 115.533 22.0324C115.533 23.7209 116.905 25.1978 118.699 25.1978C120.491 25.1978 121.968 23.7209 121.968 22.0324C121.964 21.1666 121.618 20.3375 121.006 19.7251C120.394 19.1128 119.565 18.7668 118.699 18.7622ZM118.699 24.8812C118.324 24.8829 117.953 24.8103 117.607 24.6678C117.26 24.5252 116.946 24.3154 116.681 24.0505C116.416 23.7857 116.206 23.471 116.064 23.1246C115.921 22.7782 115.848 22.407 115.85 22.0324C115.85 20.3449 117.116 19.0787 118.699 19.0787C120.386 19.0787 121.653 20.3449 121.653 22.0324C121.653 23.6161 120.386 24.8812 118.699 24.8812Z" fill="#272727"/>
    <path fill-rule="evenodd" clip-rule="evenodd" d="M120.282 23.8268L119.543 22.1392C119.965 22.0334 120.176 21.612 120.176 21.1896C120.176 20.8731 120.071 20.5565 119.753 20.3458C119.543 20.1351 119.227 20.1351 118.91 20.1351H117.538V23.8277H117.96V22.245H119.014L119.753 23.8277H120.282V23.8268ZM117.96 21.8217V20.4507H118.909C119.119 20.4507 119.331 20.4507 119.437 20.6614C119.647 20.7672 119.752 20.8731 119.752 21.1896C119.752 21.2945 119.647 21.5061 119.542 21.611C119.331 21.8217 119.119 21.8217 118.909 21.8217H117.96ZM7.80853 72.044C6.75309 72.5722 5.90932 72.783 4.74901 72.783C1.68949 72.783 0.212646 70.8828 0.212646 68.9855C0.212646 66.9804 1.90116 65.0803 4.85484 65.0803C6.01515 65.0803 6.96476 65.291 7.70366 65.7133V67.4028C6.85989 66.9805 6.01515 66.6639 5.06555 66.6639C3.378 66.6639 2.21673 67.6126 2.21673 68.9845C2.21673 70.2487 3.378 71.2003 4.95971 71.2003C6.01515 71.2003 6.64822 70.9877 7.80853 70.4614V72.044ZM18.8863 72.783C16.0375 72.783 14.4558 70.8828 14.4558 68.9855C14.4558 67.0853 16.0385 65.0803 18.8863 65.0803C21.841 65.0803 23.3178 67.1902 23.3178 68.9855C23.3178 70.8828 21.7351 72.783 18.8863 72.783ZM18.8863 66.6649C17.4095 66.6649 16.4599 67.6135 16.4599 68.9855C16.4599 70.3575 17.4095 71.2012 18.8863 71.2012C20.3641 71.2012 21.3128 70.3575 21.3128 68.9855C21.3128 67.6135 20.3641 66.6649 18.8863 66.6649ZM36.7181 65.1851H38.3008V72.6781H36.4006V68.034L34.2917 70.3565H34.08L31.9701 68.034V72.6781H30.0709V65.1851H31.6536L34.1858 68.034L36.7181 65.1851ZM52.5439 65.1851H54.2324V72.6781H52.3332V68.034L50.2233 70.3565H49.9068L47.7959 68.034V72.6781H45.8976V65.1851H47.5852L50.1175 68.034L52.5439 65.1851ZM69.0038 65.1851V69.5108C69.0038 71.9382 67.2094 72.782 65.0995 72.782C62.8838 72.782 61.3011 71.8333 61.3011 69.5108V65.1851H63.2003V69.5108C63.2003 70.5672 64.0441 71.2003 65.0995 71.2003C66.154 71.2003 67.1036 70.7779 67.1036 69.4059V65.1851H69.0038ZM83.8809 72.6781H82.2982L77.9716 67.9291V72.6781H76.0724V65.1851H77.8668L81.9808 69.8293V65.1851H83.8809V72.6781ZM91.2652 72.6781H93.1653V65.1851H91.2652V72.6781ZM107.094 72.044C106.037 72.5722 105.194 72.783 104.032 72.783C101.079 72.783 99.496 70.8828 99.496 68.9855C99.496 66.9804 101.184 65.0803 104.137 65.0803C105.299 65.0803 106.247 65.291 106.986 65.7133V67.4028C106.142 66.9805 105.299 66.6639 104.35 66.6639C102.66 66.6639 101.501 67.6126 101.501 68.9845C101.501 70.2487 102.66 71.2003 104.243 71.2003C105.299 71.2003 105.933 70.9877 107.094 70.4614V72.044ZM120.915 72.6781H118.91L118.276 71.2012H114.795L114.162 72.6781H112.158L115.218 65.1861H117.538L120.915 72.6781ZM116.376 66.9804L115.322 69.9341H117.642L116.376 66.9804ZM132.204 66.5571H129.461V72.6781H127.456V66.5571H124.712V65.1851H132.204V66.5571ZM138.112 72.6781H140.012V65.1851H138.112V72.6781ZM150.35 72.783C147.502 72.783 145.92 70.8828 145.92 68.9855C145.92 67.0853 147.397 65.0803 150.35 65.0803C153.199 65.0803 154.781 67.1902 154.781 68.9855C154.782 70.8828 153.094 72.783 150.35 72.783ZM150.35 66.6649C148.874 66.6649 147.925 67.6135 147.925 68.9855C147.925 70.3575 148.874 71.2012 150.35 71.2012C151.827 71.2012 152.778 70.3575 152.778 68.9855C152.778 67.6135 151.828 66.6649 150.35 66.6649ZM168.287 72.6781H166.705L162.379 67.9291V72.6781H160.48V65.1851H162.274L166.389 69.8293V65.1851H168.287V72.6781ZM179.577 67.1902C178.417 66.6639 177.784 66.4513 177.045 66.4513C176.412 66.4513 175.989 66.7688 175.989 67.0844C175.989 68.2456 179.894 67.9281 179.894 70.5662C179.894 71.9382 178.628 72.782 176.94 72.782C175.567 72.782 174.935 72.4664 174.09 72.0431V70.4604C175.251 71.1993 175.884 71.4091 176.728 71.4091C177.467 71.4091 177.889 71.1984 177.889 70.776C177.889 69.5098 173.984 69.9322 173.984 67.2941C173.984 65.9221 175.145 65.0784 176.939 65.0784C177.783 65.0784 178.522 65.2891 179.576 65.7114V67.1902H179.577Z" fill="#272727"/>
</svg>
