<svg width="181" height="80" viewBox="0 0 181 80" fill="none" xmlns="http://www.w3.org/2000/svg">
    <g clip-path="url(#clip0_50:1424)">
        <path fill-rule="evenodd" clip-rule="evenodd" d="M75.8343 18.973H84.6963L84.8021 19.0789V57.5903L84.6963 57.6952H75.8343C75.7284 57.6952 75.7284 57.5903 75.7284 57.5903V19.0789C75.7284 19.0789 75.7284 18.973 75.8343 18.973ZM72.8796 18.973C72.8796 18.973 72.9855 19.0789 72.8796 19.1837L61.1678 38.1758C61.0629 38.2817 61.0629 38.4924 61.1678 38.7031L72.9855 57.4845C73.0903 57.5894 72.9855 57.6952 72.9855 57.6952H62.0125C61.9067 57.6952 61.8009 57.5903 61.696 57.5903L54.6264 45.9834C54.5206 45.8785 54.5206 45.8785 54.4147 45.9834L47.7685 57.4855C47.6626 57.5903 47.5568 57.6962 47.4519 57.6962H37.2179C37.0072 57.6962 37.0072 57.5913 37.113 57.5913L49.1404 37.6486C49.3511 37.4379 49.3511 37.2272 49.1404 37.0155L38.5889 19.1837C38.4841 19.0789 38.5889 18.973 38.5889 18.973H49.2463C49.3511 18.973 49.457 19.0789 49.457 19.1837L55.8925 29.9459C55.9984 30.0518 55.9984 30.0518 56.1032 29.9459L62.7505 19.1837C62.7505 19.0789 62.8554 18.973 62.9612 18.973H72.8796Z" fill="#A3B1BF"/>
        <path fill-rule="evenodd" clip-rule="evenodd" d="M148.636 8L180.5 57.6951H152.856L142.41 41.4469H141.146L140.405 40.2866H127.956L148.636 8Z" fill="#A3B1BF"/>
        <path fill-rule="evenodd" clip-rule="evenodd" d="M146.63 38.7039L158.868 57.695H119.938L132.176 38.7039H146.63Z" fill="#A3B1BF"/>
        <path fill-rule="evenodd" clip-rule="evenodd" d="M143.466 38.7039L155.704 57.695H116.771L129.011 38.7039H143.466Z" fill="#A3B1BF"/>
        <path fill-rule="evenodd" clip-rule="evenodd" d="M33.7362 18.9729H25.5063C25.4014 18.9729 25.2956 19.0787 25.2956 19.1836L0.5 57.5902C0.5 57.5902 0.5 57.6951 0.605832 57.6951H10.6291C10.734 57.6951 10.8398 57.6951 10.8398 57.5902L14.2169 52.314C14.3217 52.314 14.3217 52.2091 14.4276 52.2091H24.9781C25.083 52.2091 25.083 52.314 25.083 52.314V57.4853C25.083 57.5902 25.083 57.6961 25.1888 57.6961H33.8411L33.946 57.5912V19.1836C33.9469 19.0787 33.8421 18.9729 33.7362 18.9729ZM25.0839 44.6132V44.7181H18.5425C18.4367 44.7181 18.4367 44.7181 18.4367 44.6132L25.4005 33.5335L25.0839 44.6132ZM89.9727 57.6951H101.684C103.16 57.5902 104.637 57.3776 106.009 56.9562C111.391 55.2686 114.24 49.8866 114.24 45.3512C114.24 38.0699 108.542 35.5376 101.789 32.6888C100.63 32.1616 99.1532 31.4227 99.1532 29.84C99.1532 28.2573 100.736 27.4135 102.422 27.4135H111.602C111.707 27.4135 111.707 27.4135 111.707 27.3087V18.9729C111.707 18.868 111.707 18.868 111.602 18.868H102.001C93.9828 18.868 89.2338 23.6161 89.2338 30.2633C89.2338 36.0658 92.9264 38.9146 98.3065 41.1313C102.106 42.6082 104.532 43.2413 104.532 46.3008C104.532 47.8835 103.584 49.4652 101.579 49.4652H89.9727V57.5902C89.9727 57.6951 90.0776 57.6951 89.9727 57.6951ZM119.199 18.7622C117.405 18.7622 116.033 20.239 116.033 22.0324C116.033 23.7209 117.405 25.1978 119.199 25.1978C120.991 25.1978 122.468 23.7209 122.468 22.0324C122.464 21.1666 122.118 20.3375 121.506 19.7251C120.894 19.1128 120.065 18.7668 119.199 18.7622ZM119.199 24.8812C118.824 24.8829 118.453 24.8103 118.107 24.6678C117.76 24.5252 117.446 24.3154 117.181 24.0505C116.916 23.7857 116.706 23.471 116.564 23.1246C116.421 22.7782 116.348 22.407 116.35 22.0324C116.35 20.3449 117.616 19.0787 119.199 19.0787C120.886 19.0787 122.153 20.3449 122.153 22.0324C122.153 23.6161 120.886 24.8812 119.199 24.8812Z" fill="#A3B1BF"/>
        <path fill-rule="evenodd" clip-rule="evenodd" d="M120.781 23.8268L120.042 22.1392C120.465 22.0334 120.675 21.612 120.675 21.1896C120.675 20.8731 120.571 20.5565 120.253 20.3458C120.042 20.1351 119.727 20.1351 119.409 20.1351H118.037V23.8277H118.46V22.245H119.514L120.253 23.8277H120.781V23.8268ZM118.46 21.8217V20.4507H119.408C119.619 20.4507 119.831 20.4507 119.937 20.6614C120.147 20.7672 120.252 20.8731 120.252 21.1896C120.252 21.2945 120.147 21.5061 120.041 21.611C119.831 21.8217 119.619 21.8217 119.408 21.8217H118.46ZM8.30829 72.044C7.25285 72.5722 6.40908 72.783 5.24877 72.783C2.18925 72.783 0.712402 70.8828 0.712402 68.9855C0.712402 66.9804 2.40091 65.0803 5.3546 65.0803C6.51491 65.0803 7.46451 65.291 8.20342 65.7133V67.4028C7.35964 66.9805 6.51491 66.6639 5.5653 66.6639C3.87776 66.6639 2.71648 67.6126 2.71648 68.9845C2.71648 70.2487 3.87776 71.2003 5.45947 71.2003C6.51491 71.2003 7.14798 70.9877 8.30829 70.4614V72.044ZM19.3861 72.783C16.5372 72.783 14.9555 70.8828 14.9555 68.9855C14.9555 67.0853 16.5382 65.0803 19.3861 65.0803C22.3407 65.0803 23.8176 67.1902 23.8176 68.9855C23.8176 70.8828 22.2349 72.783 19.3861 72.783ZM19.3861 66.6649C17.9092 66.6649 16.9596 67.6135 16.9596 68.9855C16.9596 70.3575 17.9092 71.2012 19.3861 71.2012C20.8639 71.2012 21.8125 70.3575 21.8125 68.9855C21.8125 67.6135 20.8639 66.6649 19.3861 66.6649ZM37.2179 65.1851H38.8006V72.6781H36.9004V68.034L34.7914 70.3565H34.5798L32.4698 68.034V72.6781H30.5706V65.1851H32.1533L34.6856 68.034L37.2179 65.1851ZM53.0437 65.1851H54.7322V72.6781H52.833V68.034L50.7231 70.3565H50.4065L48.2957 68.034V72.6781H46.3974V65.1851H48.0849L50.6172 68.034L53.0437 65.1851ZM69.5035 65.1851V69.5108C69.5035 71.9382 67.7092 72.782 65.5993 72.782C63.3835 72.782 61.8008 71.8333 61.8008 69.5108V65.1851H63.7001V69.5108C63.7001 70.5672 64.5438 71.2003 65.5993 71.2003C66.6537 71.2003 67.6033 70.7779 67.6033 69.4059V65.1851H69.5035ZM84.3807 72.6781H82.798L78.4714 67.9291V72.6781H76.5722V65.1851H78.3665L82.4805 69.8293V65.1851H84.3807V72.6781ZM91.7649 72.6781H93.6651V65.1851H91.7649V72.6781ZM107.594 72.044C106.537 72.5722 105.693 72.783 104.532 72.783C101.578 72.783 99.9958 70.8828 99.9958 68.9855C99.9958 66.9804 101.683 65.0803 104.637 65.0803C105.798 65.0803 106.747 65.291 107.486 65.7133V67.4028C106.642 66.9805 105.798 66.6639 104.85 66.6639C103.16 66.6639 102.001 67.6126 102.001 68.9845C102.001 70.2487 103.16 71.2003 104.743 71.2003C105.799 71.2003 106.432 70.9877 107.594 70.4614V72.044ZM121.414 72.6781H119.409L118.776 71.2012H115.294L114.661 72.6781H112.658L115.718 65.1861H118.037L121.414 72.6781ZM116.876 66.9804L115.822 69.9341H118.142L116.876 66.9804ZM132.704 66.5571H129.961V72.6781H127.956V66.5571H125.212V65.1851H132.704V66.5571ZM138.612 72.6781H140.511V65.1851H138.612V72.6781ZM150.85 72.783C148.001 72.783 146.42 70.8828 146.42 68.9855C146.42 67.0853 147.897 65.0803 150.85 65.0803C153.699 65.0803 155.281 67.1902 155.281 68.9855C155.282 70.8828 153.594 72.783 150.85 72.783ZM150.85 66.6649C149.373 66.6649 148.425 67.6135 148.425 68.9855C148.425 70.3575 149.373 71.2012 150.85 71.2012C152.327 71.2012 153.278 70.3575 153.278 68.9855C153.278 67.6135 152.328 66.6649 150.85 66.6649ZM168.787 72.6781H167.205L162.879 67.9291V72.6781H160.979V65.1851H162.774L166.889 69.8293V65.1851H168.787V72.6781ZM180.076 67.1902C178.917 66.6639 178.284 66.4513 177.545 66.4513C176.912 66.4513 176.489 66.7688 176.489 67.0844C176.489 68.2456 180.394 67.9281 180.394 70.5662C180.394 71.9382 179.128 72.782 177.44 72.782C176.066 72.782 175.435 72.4664 174.589 72.0431V70.4604C175.751 71.1993 176.384 71.4091 177.228 71.4091C177.966 71.4091 178.389 71.1984 178.389 70.776C178.389 69.5098 174.484 69.9322 174.484 67.2941C174.484 65.9221 175.645 65.0784 177.439 65.0784C178.283 65.0784 179.022 65.2891 180.075 65.7114V67.1902H180.076Z" fill="#A3B1BF"/>
    </g>
    <defs>
        <clipPath id="clip0_50:1424">
            <rect width="180" height="80" fill="white" transform="translate(0.5)"/>
        </clipPath>
    </defs>
</svg>
