<svg width="180" height="80" viewBox="0 0 180 80" fill="none" xmlns="http://www.w3.org/2000/svg">
    <path d="M63.8693 52.8168H57.2515V79.0367H63.8693V52.8168Z" fill="#C4122E"/>
    <path d="M117.23 60.3352C115.522 59.4027 113.605 58.9199 111.66 58.932C109.804 58.932 108.025 59.669 106.714 60.9807C105.402 62.2925 104.665 64.0716 104.665 65.9268C104.665 67.7819 105.402 69.561 106.714 70.8728C108.025 72.1846 109.804 72.9215 111.66 72.9215C113.605 72.9327 115.522 72.4499 117.23 71.5184V78.555C115.265 79.178 113.219 79.5096 111.157 79.5393C107.547 79.5393 104.084 78.1052 101.531 75.5523C98.9786 72.9995 97.5444 69.5371 97.5444 65.9268C97.5444 62.3165 98.9786 58.8541 101.531 56.3012C104.084 53.7484 107.547 52.3142 111.157 52.3142C113.204 52.3192 115.238 52.637 117.188 53.2566L117.23 60.3352Z" fill="#C4122E"/>
    <path d="M48.1203 60.335C46.422 59.3974 44.5104 58.914 42.5706 58.9319C40.7154 58.9319 38.9363 59.6689 37.6245 60.9806C36.3127 62.2924 35.5758 64.0715 35.5758 65.9267C35.5758 67.7818 36.3127 69.5609 37.6245 70.8727C38.9363 72.1845 40.7154 72.9214 42.5706 72.9214C44.5103 72.9383 46.4217 72.4551 48.1203 71.5183V78.5549C46.1667 79.162 44.1346 79.4795 42.0889 79.4974C38.4786 79.4974 35.0162 78.0632 32.4633 75.5103C29.9105 72.9575 28.4763 69.4951 28.4763 65.8848C28.4763 62.2745 29.9105 58.8121 32.4633 56.2592C35.0162 53.7064 38.4786 52.2722 42.0889 52.2722C44.136 52.2725 46.1707 52.5904 48.1203 53.2146V60.335Z" fill="#C4122E"/>
    <path d="M137.985 59.0366C136.619 59.0242 135.281 59.4177 134.14 60.1672C132.998 60.9167 132.106 61.9883 131.574 63.2462C131.043 64.504 130.898 65.8913 131.157 67.232C131.415 68.5726 132.066 69.8062 133.027 70.7761C133.989 71.7459 135.216 72.4084 136.554 72.6794C137.893 72.9504 139.281 72.8177 140.544 72.2981C141.806 71.7785 142.886 70.8954 143.646 69.7611C144.406 68.6267 144.812 67.2921 144.812 65.9267C144.826 65.0233 144.659 64.1263 144.322 63.2881C143.984 62.45 143.483 61.6877 142.847 61.0459C142.211 60.4041 141.454 59.8958 140.619 59.5508C139.784 59.2058 138.888 59.031 137.985 59.0366ZM151.828 65.9267C151.873 68.6739 151.1 71.3726 149.607 73.6792C148.114 75.9857 145.969 77.7958 143.444 78.879C140.919 79.9621 138.128 80.2693 135.428 79.7615C132.728 79.2537 130.24 77.9538 128.281 76.0273C126.321 74.1008 124.98 71.6349 124.427 68.9435C123.874 66.2522 124.134 63.4571 125.175 60.9142C126.215 58.3713 127.989 56.1956 130.27 54.6641C132.552 53.1325 135.237 52.3145 137.985 52.3141C139.794 52.2605 141.596 52.5728 143.282 53.2323C144.967 53.8918 146.503 54.885 147.795 56.1522C149.088 57.4195 150.111 58.9348 150.804 60.6072C151.497 62.2796 151.845 64.0747 151.828 65.8848" fill="#C4122E"/>
    <path d="M88.9367 58.7854C87.2371 58.3098 85.4861 58.0426 83.722 57.9896C81.0623 57.9896 79.5335 58.8692 79.5335 60.0838C79.5335 61.6754 81.4812 62.1781 82.5702 62.576L84.3922 63.1624C86.1313 63.5206 87.6984 64.4562 88.8389 65.8172C89.9794 67.1782 90.6264 68.8847 90.6749 70.6597C90.6749 77.2357 84.8948 79.4556 79.8267 79.4556C77.4367 79.4325 75.0536 79.1942 72.7063 78.7435V72.754C74.7505 73.3435 76.8621 73.6673 78.989 73.7173C82.277 73.7173 83.7848 72.754 83.7848 71.2671C83.7848 69.7802 82.4864 69.1728 80.832 68.6702L79.5335 68.2095C75.8058 66.9739 72.7272 64.8796 72.7272 60.5446C72.7272 55.644 76.4131 52.3561 82.5073 52.3561C84.676 52.38 86.8342 52.6612 88.9367 53.1938V58.7854Z" fill="#C4122E"/>
    <path d="M21.1673 24.6703C21.1013 23.8463 20.7275 23.0774 20.1201 22.5166C19.5127 21.9559 18.7164 21.6445 17.8898 21.6445C17.0631 21.6445 16.2668 21.9559 15.6595 22.5166C15.0521 23.0774 14.6782 23.8463 14.6123 24.6703V31.5394C14.5761 31.9918 14.634 32.4469 14.7822 32.8758C14.9305 33.3048 15.166 33.6984 15.4739 34.0319C15.7818 34.3654 16.1554 34.6315 16.5711 34.8136C16.9869 34.9956 17.4359 35.0896 17.8898 35.0896C18.3436 35.0896 18.7926 34.9956 19.2084 34.8136C19.6242 34.6315 19.9977 34.3654 20.3056 34.0319C20.6135 33.6984 20.849 33.3048 20.9973 32.8758C21.1456 32.4469 21.2034 31.9918 21.1673 31.5394V24.6703Z" fill="#15495D"/>
    <path d="M39.1987 15.644C39.1328 14.82 38.7589 14.0511 38.1516 13.4904C37.5442 12.9297 36.7479 12.6183 35.9213 12.6183C35.0946 12.6183 34.2983 12.9297 33.6909 13.4904C33.0836 14.0511 32.7097 14.82 32.6438 15.644V31.5393C32.6076 31.9918 32.6654 32.4468 32.8137 32.8758C32.962 33.3047 33.1975 33.6984 33.5054 34.0318C33.8133 34.3653 34.1869 34.6315 34.6026 34.8135C35.0184 34.9955 35.4674 35.0895 35.9213 35.0895C36.3751 35.0895 36.8241 34.9955 37.2399 34.8135C37.6557 34.6315 38.0292 34.3653 38.3371 34.0318C38.645 33.6984 38.8805 33.3047 39.0288 32.8758C39.1771 32.4468 39.2349 31.9918 39.1987 31.5393V15.644Z" fill="#15495D"/>
    <path d="M57.231 3.28809C57.1651 2.46409 56.7912 1.69515 56.1838 1.13443C55.5764 0.5737 54.7801 0.262329 53.9535 0.262329C53.1269 0.262329 52.3306 0.5737 51.7232 1.13443C51.1158 1.69515 50.7419 2.46409 50.676 3.28809V38.0734C50.6398 38.5259 50.6977 38.9809 50.846 39.4099C50.9943 39.8388 51.2297 40.2324 51.5376 40.5659C51.8455 40.8994 52.2191 41.1656 52.6349 41.3476C53.0507 41.5296 53.4996 41.6236 53.9535 41.6236C54.4074 41.6236 54.8563 41.5296 55.2721 41.3476C55.6879 41.1656 56.0615 40.8994 56.3693 40.5659C56.6772 40.2324 56.9127 39.8388 57.061 39.4099C57.2093 38.9809 57.2672 38.5259 57.231 38.0734V3.28809Z" fill="#15495D"/>
    <path d="M75.3462 15.644C75.2803 14.82 74.9064 14.0511 74.299 13.4904C73.6917 12.9297 72.8954 12.6183 72.0687 12.6183C71.2421 12.6183 70.4458 12.9297 69.8384 13.4904C69.231 14.0511 68.8572 14.82 68.7912 15.644V31.5393C68.755 31.9918 68.8129 32.4468 68.9612 32.8758C69.1095 33.3047 69.345 33.6984 69.6529 34.0318C69.9607 34.3653 70.3343 34.6315 70.7501 34.8135C71.1659 34.9955 71.6148 35.0895 72.0687 35.0895C72.5226 35.0895 72.9716 34.9955 73.3873 34.8135C73.8031 34.6315 74.1767 34.3653 74.4846 34.0318C74.7925 33.6984 75.028 33.3047 75.1762 32.8758C75.3245 32.4468 75.3824 31.9918 75.3462 31.5393V15.644Z" fill="#15495D"/>
    <path d="M93.2713 24.6703C93.2713 23.8039 92.9271 22.9729 92.3145 22.3602C91.7018 21.7475 90.8708 21.4033 90.0043 21.4033C89.1379 21.4033 88.3069 21.7475 87.6942 22.3602C87.0815 22.9729 86.7373 23.8039 86.7373 24.6703V31.5394C86.7373 32.4059 87.0815 33.2369 87.6942 33.8496C88.3069 34.4623 89.1379 34.8065 90.0043 34.8065C90.8708 34.8065 91.7018 34.4623 92.3145 33.8496C92.9271 33.2369 93.2713 32.4059 93.2713 31.5394V24.6703Z" fill="#15495D"/>
    <path d="M93.293 24.67C93.293 23.798 92.9465 22.9617 92.3299 22.3451C91.7133 21.7285 90.877 21.3821 90.005 21.3821C89.133 21.3821 88.2967 21.7285 87.6801 22.3451C87.0635 22.9617 86.717 23.798 86.717 24.67V31.5392C86.717 32.4112 87.0635 33.2475 87.6801 33.8641C88.2967 34.4807 89.133 34.8271 90.005 34.8271C90.877 34.8271 91.7133 34.4807 92.3299 33.8641C92.9465 33.2475 93.293 32.4112 93.293 31.5392V24.67Z" fill="#15495D"/>
    <path d="M111.324 15.6439C111.324 14.7719 110.978 13.9356 110.361 13.319C109.745 12.7024 108.909 12.356 108.036 12.356C107.164 12.356 106.328 12.7024 105.712 13.319C105.095 13.9356 104.749 14.7719 104.749 15.6439V31.5392C104.749 31.971 104.834 32.3985 104.999 32.7975C105.164 33.1964 105.406 33.5588 105.712 33.8641C106.017 34.1695 106.379 34.4116 106.778 34.5769C107.177 34.7421 107.605 34.8272 108.036 34.8272C108.468 34.8272 108.896 34.7421 109.295 34.5769C109.694 34.4116 110.056 34.1695 110.361 33.8641C110.667 33.5588 110.909 33.1964 111.074 32.7975C111.239 32.3985 111.324 31.971 111.324 31.5392V15.6439Z" fill="#15495D"/>
    <path d="M129.356 3.28796C129.356 2.41594 129.01 1.57963 128.393 0.963021C127.777 0.346409 126.94 0 126.068 0C125.196 0 124.36 0.346409 123.743 0.963021C123.127 1.57963 122.78 2.41594 122.78 3.28796V38.0733C122.78 38.5051 122.865 38.9326 123.031 39.3315C123.196 39.7305 123.438 40.0929 123.743 40.3982C124.049 40.7036 124.411 40.9457 124.81 41.111C125.209 41.2762 125.636 41.3613 126.068 41.3613C126.5 41.3613 126.928 41.2762 127.326 41.111C127.725 40.9457 128.088 40.7036 128.393 40.3982C128.698 40.0929 128.941 39.7305 129.106 39.3315C129.271 38.9326 129.356 38.5051 129.356 38.0733V3.28796Z" fill="#15495D"/>
    <path d="M147.367 15.6438C147.301 14.8198 146.927 14.0509 146.32 13.4901C145.712 12.9294 144.916 12.618 144.089 12.618C143.263 12.618 142.466 12.9294 141.859 13.4901C141.252 14.0509 140.878 14.8198 140.812 15.6438V31.5391C140.776 31.9915 140.833 32.4465 140.982 32.8755C141.13 33.3045 141.365 33.6981 141.673 34.0316C141.981 34.3651 142.355 34.6312 142.771 34.8133C143.186 34.9953 143.635 35.0892 144.089 35.0892C144.543 35.0892 144.992 34.9953 145.408 34.8133C145.824 34.6312 146.197 34.3651 146.505 34.0316C146.813 33.6981 147.048 33.3045 147.197 32.8755C147.345 32.4465 147.403 31.9915 147.367 31.5391V15.6438Z" fill="#15495D"/>
    <path d="M165.399 24.6701C165.399 23.8036 165.054 22.9726 164.442 22.36C163.829 21.7473 162.998 21.4031 162.132 21.4031C161.265 21.4031 160.434 21.7473 159.821 22.36C159.209 22.9726 158.865 23.8036 158.865 24.6701V31.5392C158.865 32.4057 159.209 33.2366 159.821 33.8493C160.434 34.462 161.265 34.8062 162.132 34.8062C162.998 34.8062 163.829 34.462 164.442 33.8493C165.054 33.2366 165.399 32.4057 165.399 31.5392V24.6701Z" fill="#15495D"/>
    <path d="M161.607 75.5811V75.979H160.455V79.0365H159.974V75.979H158.801V75.5811H161.607Z" fill="#C4122E"/>
    <path d="M161.858 75.5811H162.612L163.638 78.4083L164.644 75.5811H165.398V79.0365H164.895V76.2093L163.848 79.0365H163.303L162.277 76.2093V79.0365H161.795L161.858 75.5811Z" fill="#C4122E"/>
</svg>
