<svg width="181" height="80" viewBox="0 0 181 80" fill="none" xmlns="http://www.w3.org/2000/svg">
    <path d="M64.3693 52.8169H57.7515V79.0368H64.3693V52.8169Z" fill="#A3B1BF"/>
    <path d="M117.73 60.3352C116.022 59.4027 114.105 58.9199 112.159 58.932C110.304 58.932 108.525 59.669 107.213 60.9807C105.901 62.2925 105.164 64.0716 105.164 65.9268C105.164 67.7819 105.901 69.561 107.213 70.8728C108.525 72.1846 110.304 72.9215 112.159 72.9215C114.105 72.9327 116.022 72.4499 117.73 71.5184V78.555C115.764 79.178 113.718 79.5096 111.657 79.5393C108.046 79.5393 104.584 78.1052 102.031 75.5523C99.4781 72.9995 98.0439 69.5371 98.0439 65.9268C98.0439 62.3165 99.4781 58.8541 102.031 56.3012C104.584 53.7484 108.046 52.3142 111.657 52.3142C113.703 52.3192 115.737 52.637 117.688 53.2566L117.73 60.3352Z" fill="#A3B1BF"/>
    <path d="M48.6201 60.335C46.9218 59.3974 45.0102 58.914 43.0703 58.9319C41.2152 58.9319 39.436 59.6689 38.1243 60.9806C36.8125 62.2924 36.0756 64.0715 36.0756 65.9267C36.0756 67.7818 36.8125 69.5609 38.1243 70.8727C39.436 72.1845 41.2152 72.9214 43.0703 72.9214C45.0101 72.9383 46.9214 72.4551 48.6201 71.5183V78.5549C46.6664 79.162 44.6344 79.4795 42.5886 79.4974C38.9784 79.4974 35.516 78.0632 32.9631 75.5103C30.4103 72.9575 28.9761 69.4951 28.9761 65.8848C28.9761 62.2745 30.4103 58.8121 32.9631 56.2592C35.516 53.7064 38.9784 52.2722 42.5886 52.2722C44.6358 52.2725 46.6704 52.5904 48.6201 53.2146V60.335Z" fill="#A3B1BF"/>
    <path d="M138.485 59.0365C137.119 59.0241 135.781 59.4176 134.64 60.167C133.498 60.9165 132.606 61.9882 132.074 63.246C131.543 64.5039 131.398 65.8912 131.657 67.2318C131.915 68.5725 132.566 69.806 133.527 70.7759C134.489 71.7458 135.716 72.4083 137.054 72.6793C138.393 72.9503 139.781 72.8175 141.044 72.298C142.306 71.7784 143.386 70.8953 144.146 69.7609C144.906 68.6266 145.312 67.292 145.312 65.9266C145.326 65.0232 145.159 64.1261 144.822 63.288C144.484 62.4499 143.983 61.6876 143.347 61.0458C142.711 60.404 141.954 59.8957 141.119 59.5507C140.284 59.2056 139.388 59.0308 138.485 59.0365V59.0365ZM152.328 65.9266C152.373 68.6738 151.6 71.3725 150.107 73.6791C148.614 75.9856 146.469 77.7957 143.944 78.8789C141.419 79.962 138.628 80.2692 135.928 79.7614C133.228 79.2536 130.74 77.9536 128.781 76.0272C126.821 74.1007 125.48 71.6348 124.927 68.9434C124.374 66.2521 124.634 63.457 125.675 60.9141C126.715 58.3712 128.489 56.1954 130.77 54.6639C133.052 53.1324 135.737 52.3144 138.485 52.314C140.294 52.2604 142.096 52.5726 143.782 53.2322C145.467 53.8917 147.003 54.8849 148.295 56.1521C149.588 57.4194 150.611 58.9346 151.304 60.607C151.997 62.2794 152.345 64.0745 152.328 65.8847" fill="#A3B1BF"/>
    <path d="M89.4364 58.7855C87.7369 58.31 85.9858 58.0427 84.2218 57.9897C81.5621 57.9897 80.0333 58.8693 80.0333 60.0839C80.0333 61.6756 81.9809 62.1782 83.0699 62.5761L84.8919 63.1625C86.6311 63.5207 88.1981 64.4563 89.3386 65.8173C90.4791 67.1783 91.1262 68.8848 91.1746 70.6599C91.1746 77.2358 85.3945 79.4557 80.3265 79.4557C77.9364 79.4327 75.5533 79.1944 73.2061 78.7436V72.7541C75.2502 73.3437 77.3619 73.6674 79.4888 73.7175C82.7767 73.7175 84.2846 72.7541 84.2846 71.2672C84.2846 69.7803 82.9862 69.173 81.3317 68.6703L80.0333 68.2096C76.3055 66.974 73.227 64.8798 73.227 60.5447C73.227 55.6442 76.9129 52.3562 83.0071 52.3562C85.1758 52.3801 87.334 52.6613 89.4364 53.1939V58.7855Z" fill="#A3B1BF"/>
    <path d="M21.667 24.6703C21.6011 23.8463 21.2272 23.0774 20.6198 22.5166C20.0125 21.9559 19.2162 21.6445 18.3895 21.6445C17.5629 21.6445 16.7666 21.9559 16.1592 22.5166C15.5518 23.0774 15.178 23.8463 15.112 24.6703V31.5394C15.0758 31.9918 15.1337 32.4469 15.282 32.8758C15.4303 33.3048 15.6658 33.6984 15.9737 34.0319C16.2815 34.3654 16.6551 34.6315 17.0709 34.8136C17.4867 34.9956 17.9356 35.0896 18.3895 35.0896C18.8434 35.0896 19.2924 34.9956 19.7081 34.8136C20.1239 34.6315 20.4975 34.3654 20.8054 34.0319C21.1133 33.6984 21.3488 33.3048 21.497 32.8758C21.6453 32.4469 21.7032 31.9918 21.667 31.5394V24.6703Z" fill="#A3B1BF"/>
    <path d="M39.6983 15.644C39.6323 14.82 39.2585 14.0511 38.6511 13.4904C38.0437 12.9297 37.2474 12.6183 36.4208 12.6183C35.5941 12.6183 34.7978 12.9297 34.1905 13.4904C33.5831 14.0511 33.2092 14.82 33.1433 15.644V31.5393C33.1071 31.9918 33.165 32.4468 33.3132 32.8758C33.4615 33.3047 33.697 33.6984 34.0049 34.0318C34.3128 34.3653 34.6864 34.6315 35.1022 34.8135C35.5179 34.9955 35.9669 35.0895 36.4208 35.0895C36.8746 35.0895 37.3236 34.9955 37.7394 34.8135C38.1552 34.6315 38.5288 34.3653 38.8366 34.0318C39.1445 33.6984 39.38 33.3047 39.5283 32.8758C39.6766 32.4468 39.7345 31.9918 39.6983 31.5393V15.644Z" fill="#A3B1BF"/>
    <path d="M57.7305 3.28809C57.6646 2.46409 57.2907 1.69515 56.6833 1.13443C56.0759 0.5737 55.2796 0.262329 54.453 0.262329C53.6264 0.262329 52.8301 0.5737 52.2227 1.13443C51.6153 1.69515 51.2414 2.46409 51.1755 3.28809V38.0734C51.1393 38.5259 51.1972 38.9809 51.3455 39.4099C51.4938 39.8388 51.7293 40.2324 52.0371 40.5659C52.345 40.8994 52.7186 41.1656 53.1344 41.3476C53.5502 41.5296 53.9991 41.6236 54.453 41.6236C54.9069 41.6236 55.3558 41.5296 55.7716 41.3476C56.1874 41.1656 56.561 40.8994 56.8689 40.5659C57.1767 40.2324 57.4122 39.8388 57.5605 39.4099C57.7088 38.9809 57.7667 38.5259 57.7305 38.0734V3.28809Z" fill="#A3B1BF"/>
    <path d="M75.8462 15.644C75.7803 14.82 75.4064 14.0511 74.799 13.4904C74.1917 12.9297 73.3954 12.6183 72.5687 12.6183C71.7421 12.6183 70.9458 12.9297 70.3384 13.4904C69.731 14.0511 69.3572 14.82 69.2912 15.644V31.5393C69.255 31.9918 69.3129 32.4468 69.4612 32.8758C69.6095 33.3047 69.845 33.6984 70.1529 34.0318C70.4607 34.3653 70.8343 34.6315 71.2501 34.8135C71.6659 34.9955 72.1148 35.0895 72.5687 35.0895C73.0226 35.0895 73.4716 34.9955 73.8873 34.8135C74.3031 34.6315 74.6767 34.3653 74.9846 34.0318C75.2925 33.6984 75.528 33.3047 75.6762 32.8758C75.8245 32.4468 75.8824 31.9918 75.8462 31.5393V15.644Z" fill="#A3B1BF"/>
    <path d="M93.7713 24.6703C93.7713 23.8039 93.4271 22.9729 92.8145 22.3602C92.2018 21.7475 91.3708 21.4033 90.5043 21.4033C89.6379 21.4033 88.8069 21.7475 88.1942 22.3602C87.5815 22.9729 87.2373 23.8039 87.2373 24.6703V31.5394C87.2373 32.4059 87.5815 33.2369 88.1942 33.8496C88.8069 34.4623 89.6379 34.8065 90.5043 34.8065C91.3708 34.8065 92.2018 34.4623 92.8145 33.8496C93.4271 33.2369 93.7713 32.4059 93.7713 31.5394V24.6703Z" fill="#A3B1BF"/>
    <path d="M93.7927 24.67C93.7927 23.798 93.4463 22.9617 92.8297 22.3451C92.2131 21.7285 91.3768 21.3821 90.5048 21.3821C89.6327 21.3821 88.7964 21.7285 88.1798 22.3451C87.5632 22.9617 87.2168 23.798 87.2168 24.67V31.5392C87.2168 32.4112 87.5632 33.2475 88.1798 33.8641C88.7964 34.4807 89.6327 34.8271 90.5048 34.8271C91.3768 34.8271 92.2131 34.4807 92.8297 33.8641C93.4463 33.2475 93.7927 32.4112 93.7927 31.5392V24.67Z" fill="#A3B1BF"/>
    <path d="M111.824 15.6439C111.824 14.7719 111.478 13.9356 110.861 13.319C110.244 12.7024 109.408 12.356 108.536 12.356C107.664 12.356 106.828 12.7024 106.211 13.319C105.594 13.9356 105.248 14.7719 105.248 15.6439V31.5392C105.248 31.971 105.333 32.3985 105.498 32.7975C105.664 33.1964 105.906 33.5588 106.211 33.8641C106.516 34.1695 106.879 34.4116 107.278 34.5769C107.677 34.7421 108.104 34.8272 108.536 34.8272C108.968 34.8272 109.395 34.7421 109.794 34.5769C110.193 34.4116 110.556 34.1695 110.861 33.8641C111.166 33.5588 111.408 33.1964 111.574 32.7975C111.739 32.3985 111.824 31.971 111.824 31.5392V15.6439Z" fill="#A3B1BF"/>
    <path d="M129.856 3.28796C129.856 2.41594 129.509 1.57963 128.893 0.963021C128.276 0.346409 127.44 0 126.568 0C125.696 0 124.859 0.346409 124.243 0.963021C123.626 1.57963 123.28 2.41594 123.28 3.28796V38.0733C123.28 38.5051 123.365 38.9326 123.53 39.3315C123.695 39.7305 123.937 40.0929 124.243 40.3982C124.548 40.7036 124.911 40.9457 125.309 41.111C125.708 41.2762 126.136 41.3613 126.568 41.3613C127 41.3613 127.427 41.2762 127.826 41.111C128.225 40.9457 128.587 40.7036 128.893 40.3982C129.198 40.0929 129.44 39.7305 129.605 39.3315C129.771 38.9326 129.856 38.5051 129.856 38.0733V3.28796Z" fill="#A3B1BF"/>
    <path d="M147.866 15.6438C147.8 14.8198 147.426 14.0509 146.819 13.4901C146.212 12.9294 145.415 12.618 144.589 12.618C143.762 12.618 142.966 12.9294 142.358 13.4901C141.751 14.0509 141.377 14.8198 141.311 15.6438V31.5391C141.275 31.9915 141.333 32.4465 141.481 32.8755C141.63 33.3045 141.865 33.6981 142.173 34.0316C142.481 34.3651 142.854 34.6312 143.27 34.8133C143.686 34.9953 144.135 35.0892 144.589 35.0892C145.043 35.0892 145.492 34.9953 145.907 34.8133C146.323 34.6312 146.697 34.3651 147.005 34.0316C147.312 33.6981 147.548 33.3045 147.696 32.8755C147.845 32.4465 147.902 31.9915 147.866 31.5391V15.6438Z" fill="#A3B1BF"/>
    <path d="M165.898 24.6701C165.898 23.8036 165.554 22.9726 164.941 22.36C164.329 21.7473 163.498 21.4031 162.631 21.4031C161.765 21.4031 160.934 21.7473 160.321 22.36C159.708 22.9726 159.364 23.8036 159.364 24.6701V31.5392C159.364 32.4057 159.708 33.2366 160.321 33.8493C160.934 34.462 161.765 34.8062 162.631 34.8062C163.498 34.8062 164.329 34.462 164.941 33.8493C165.554 33.2366 165.898 32.4057 165.898 31.5392V24.6701Z" fill="#A3B1BF"/>
    <path d="M162.107 75.5811V75.979H160.955V79.0365H160.474V75.979H159.301V75.5811H162.107Z" fill="#A3B1BF"/>
    <path d="M162.358 75.5811H163.112L164.138 78.4083L165.143 75.5811H165.897V79.0365H165.394V76.2093L164.347 79.0365H163.803L162.777 76.2093V79.0365H162.295L162.358 75.5811Z" fill="#A3B1BF"/>
</svg>
