<svg width="181" height="80" viewBox="0 0 181 80" fill="none" xmlns="http://www.w3.org/2000/svg">
    <path d="M163.678 24.5095C165.778 24.5095 167.501 26.2179 167.501 28.3323C167.501 30.4467 165.778 32.155 163.678 32.155C161.563 32.155 159.843 30.4467 159.843 28.3323C159.843 26.2179 161.563 24.5095 163.678 24.5095ZM166.996 28.3323C166.996 26.5119 165.512 25.0136 163.678 25.0136C161.843 25.0136 160.361 26.5119 160.361 28.3323C160.361 30.1666 161.845 31.6509 163.678 31.6509C165.514 31.6509 166.996 30.1666 166.996 28.3323Z" fill="#A3B1BF"/>
    <path d="M165.401 30.4185H164.7C164.66 30.2644 164.644 30.1244 164.644 29.8864C164.644 28.9902 164.366 28.7521 163.594 28.7521H162.854V30.4185H162.182V26.2176H163.596C164.494 26.2176 165.402 26.4137 165.402 27.4359C165.402 28.15 164.854 28.3881 164.368 28.4581C164.996 28.5981 165.322 28.9762 165.322 29.7183C165.318 30.0124 165.346 30.3064 165.401 30.4185ZM164.658 27.4359C164.658 26.9458 164.252 26.7217 163.592 26.7217H162.852V28.248H163.592C164.282 28.248 164.658 27.982 164.658 27.4359Z" fill="#A3B1BF"/>
    <path d="M147.647 39.1425L158.625 56.1838H147.267L142.003 46.886L135.338 56.1838H123.868L136.514 39.1005L126.824 24.6216H138.403L142.142 31.3149L146.47 24.6216H158.093L147.647 39.1425Z" fill="#A3B1BF"/>
    <path d="M117.498 58.8443C120.775 58.8443 123.434 61.4908 123.434 64.7674C123.434 68.0441 120.773 70.7029 117.498 70.7029C114.22 70.7029 111.561 68.0423 111.561 64.7674C111.559 61.4908 114.222 58.8443 117.498 58.8443Z" fill="#A3B1BF"/>
    <path d="M101.015 43.6094L110.665 56.1838H98.7346L92.7134 46.76V56.1838H83.2476V24.6216H95.654C99.3368 24.6216 102.319 25.6578 104.278 27.6182C106.028 29.3685 106.912 31.735 106.912 34.6756C106.912 39.0165 104.628 42.3771 101.015 43.6094ZM98.4388 35.1517C98.4388 34.0875 98.1605 33.3033 97.5987 32.7292C96.4784 31.609 94.322 31.455 92.7134 31.441V38.8764C96.7602 38.8344 98.4388 37.7562 98.4388 35.1517Z" fill="#A3B1BF"/>
    <path d="M80.6832 24.6216V32.8692H73.4857V56.1838H64.0619V32.8692H56.8662V24.6216H80.6832Z" fill="#A3B1BF"/>
    <path d="M54.3167 24.6216V56.1838H44.8525V51.857V28.9765V24.6216H54.3167Z" fill="#A3B1BF"/>
    <path d="M49.5851 10.1147C52.8618 10.1147 55.5205 12.7752 55.5205 16.0378C55.5205 19.3145 52.86 21.989 49.5851 21.989C46.2945 21.989 43.648 19.3145 43.648 16.0378C43.6462 12.7752 46.2927 10.1147 49.5851 10.1147Z" fill="#A3B1BF"/>
    <path d="M41.9676 28.9763L36.9826 37.0279C35.5823 34.7034 32.8221 33.2052 30.0373 33.2052C26.0587 33.2052 23.1479 36.4398 23.1479 40.4166C23.1479 44.3934 26.0587 47.6158 30.0373 47.6158C32.8221 47.6158 35.5823 46.1175 36.9826 43.793L41.9676 51.8586C38.957 54.9952 34.7282 56.9434 30.0373 56.9434C20.9075 56.9434 13.5 49.5516 13.5 40.4183C13.5 31.2885 20.9075 23.8671 30.0373 23.8671C34.7282 23.8653 38.957 25.8257 41.9676 28.9763Z" fill="#A3B1BF"/>
    <path d="M122.229 24.6206V56.1829H112.764V51.8574V28.9769V24.6206H122.229Z" fill="#A3B1BF"/>
</svg>
