<svg width="180" height="80" viewBox="0 0 180 80" fill="none" xmlns="http://www.w3.org/2000/svg">
    <path d="M163.177 24.5095C165.278 24.5095 167 26.2179 167 28.3323C167 30.4467 165.278 32.155 163.177 32.155C161.063 32.155 159.342 30.4467 159.342 28.3323C159.342 26.2179 161.063 24.5095 163.177 24.5095ZM166.496 28.3323C166.496 26.5119 165.012 25.0136 163.177 25.0136C161.343 25.0136 159.86 26.5119 159.86 28.3323C159.86 30.1666 161.345 31.6509 163.177 31.6509C165.013 31.6509 166.496 30.1666 166.496 28.3323Z" fill="black"/>
    <path d="M164.9 30.4185H164.2C164.16 30.2644 164.144 30.1244 164.144 29.8864C164.144 28.9902 163.866 28.7521 163.094 28.7521H162.353V30.4185H161.681V26.2176H163.096C163.994 26.2176 164.902 26.4137 164.902 27.4359C164.902 28.15 164.354 28.3881 163.868 28.4581C164.496 28.5981 164.822 28.9762 164.822 29.7183C164.818 30.0124 164.846 30.3064 164.9 30.4185ZM164.158 27.4359C164.158 26.9458 163.752 26.7217 163.092 26.7217H162.352V28.248H163.092C163.782 28.248 164.158 27.982 164.158 27.4359Z" fill="black"/>
    <path d="M147.146 39.1425L158.125 56.1838H146.767L141.503 46.886L134.838 56.1838H123.368L136.014 39.1005L126.324 24.6216H137.903L141.642 31.3149L145.97 24.6216H157.592L147.146 39.1425Z" fill="black"/>
    <path d="M116.998 58.8443C120.275 58.8443 122.934 61.4908 122.934 64.7674C122.934 68.0441 120.273 70.7029 116.998 70.7029C113.72 70.7029 111.061 68.0423 111.061 64.7674C111.059 61.4908 113.722 58.8443 116.998 58.8443Z" fill="black"/>
    <path d="M100.515 43.6094L110.165 56.1838H98.2344L92.2132 46.76V56.1838H82.7473V24.6216H95.1538C98.8365 24.6216 101.819 25.6578 103.778 27.6182C105.528 29.3685 106.412 31.735 106.412 34.6756C106.412 39.0165 104.128 42.3771 100.515 43.6094ZM97.9385 35.1517C97.9385 34.0875 97.6603 33.3033 97.0984 32.7292C95.9782 31.609 93.8217 31.455 92.2132 31.441V38.8764C96.26 38.8344 97.9385 37.7562 97.9385 35.1517Z" fill="black"/>
    <path d="M80.1827 24.6216V32.8692H72.9853V56.1838H63.5614V32.8692H56.3657V24.6216H80.1827Z" fill="black"/>
    <path d="M53.8162 24.6216V56.1838H44.3521V51.857V28.9765V24.6216H53.8162Z" fill="black"/>
    <path d="M49.0849 10.1147C52.3615 10.1147 55.0203 12.7752 55.0203 16.0378C55.0203 19.3145 52.3598 21.989 49.0849 21.989C45.7942 21.989 43.1477 19.3145 43.1477 16.0378C43.146 12.7752 45.7925 10.1147 49.0849 10.1147Z" fill="black"/>
    <path d="M41.4674 28.9763L36.4824 37.0279C35.0821 34.7034 32.3218 33.2052 29.537 33.2052C25.5585 33.2052 22.6477 36.4398 22.6477 40.4166C22.6477 44.3934 25.5585 47.6158 29.537 47.6158C32.3218 47.6158 35.0821 46.1175 36.4824 43.793L41.4674 51.8586C38.4568 54.9952 34.228 56.9434 29.537 56.9434C20.4072 56.9434 12.9998 49.5516 12.9998 40.4183C12.9998 31.2885 20.4072 23.8671 29.537 23.8671C34.228 23.8653 38.4568 25.8257 41.4674 28.9763Z" fill="black"/>
    <path d="M121.729 24.6206V56.1828H112.264V51.8574V28.9769V24.6206H121.729Z" fill="black"/>
</svg>
