<svg width="181" height="80" viewBox="0 0 181 80" fill="none" xmlns="http://www.w3.org/2000/svg">
    <g clip-path="url(#clip0_50:1512)">
        <path d="M40.9552 24L25.1779 36.1388C23.5596 30.0703 18.3016 25.6163 11.8281 25.6163H0.5V53.5314H11.8281C18.3011 53.5314 23.9641 49.0821 25.1776 43.0139L40.954 55.1477L56.7353 43.0139V53.5314H74.5332V47.8674H62.8046V25.6163H56.3301V36.1338L41.36 48.2786L38.1225 45.4466L45.4075 39.7776L53.0926 33.7133L48.645 30.0755L33.6749 41.8041L30.4374 38.9721L45.4083 27.644L40.9552 24.0063V24.0014V24ZM6.57004 31.2803H11.4236C12.435 31.2803 13.4234 31.5076 14.3338 31.9248C15.2441 32.342 16.077 32.9485 16.785 33.7071C17.493 34.4656 18.0748 35.3734 18.4794 36.3976C18.8839 37.4216 19.1092 38.5627 19.1092 39.7766C19.1092 40.8891 18.906 41.9748 18.5331 42.9796C18.1596 43.9846 17.6191 44.9107 16.9364 45.6944C16.2536 46.4784 15.4291 47.1206 14.4998 47.5694C13.5706 48.0184 12.5364 48.2676 11.4236 48.2676H6.57004V31.2803ZM94.7631 47.8686V53.5327H76.9625V25.6175H83.4355V47.8676H94.7633L94.7631 47.8686Z" fill="#A3B1BF"/>
        <path d="M169.718 54.0453C175.195 54.0453 179.644 51.307 180.5 45.3175L180.158 44.9752H178.618L178.275 45.3175C177.42 49.5958 174.681 51.9918 169.89 51.9918C163.9 51.9918 159.622 47.5422 159.622 39.6699C159.622 31.7976 164.071 27.3484 169.89 27.3484C174.681 27.3484 177.42 29.7442 178.275 33.6804L178.618 34.0227H180.158L180.5 33.681C179.645 28.2047 175.365 25.2954 169.718 25.2954C163.043 25.2954 157.054 30.0872 157.054 39.4995C157.054 49.2543 163.043 54.0461 169.718 54.0461L169.718 54.0453ZM152.263 53.1896V26.1495L151.92 25.8072H149.182L148.84 26.1495L138.572 50.2796H138.229L127.619 26.1495L127.277 25.8072H124.539L124.196 26.1495V53.1896L124.539 53.5319H126.079L126.421 53.1896V30.2575H126.763L136.689 53.1896L137.031 53.5319H139.085L139.427 53.1896L149.353 30.2575H149.867V53.1896L150.209 53.5319H151.749L152.262 53.1896H152.263ZM118.892 53.1896V51.9917L118.55 51.6494H103.833L103.49 51.3071V41.0391L103.833 40.6968H117.694L118.037 40.3545V38.9855L117.694 38.6432H103.833L103.49 38.3009V28.2039L103.833 27.8616H118.55L118.892 27.5193V26.1503L118.55 25.808H101.437L101.094 26.1503V53.1904L101.437 53.5327H118.55L118.892 53.1904V53.1896Z" fill="#A3B1BF"/>
    </g>
    <defs>
        <clipPath id="clip0_50:1512">
            <rect width="180" height="80" fill="white" transform="translate(0.5)"/>
        </clipPath>
    </defs>
</svg>
