<svg width="180" height="80" viewBox="0 0 180 80" fill="none" xmlns="http://www.w3.org/2000/svg">
<g clip-path="url(#clip0_50_1132)">
<path d="M40.4552 24L24.6779 36.1388C23.0596 30.0703 17.8016 25.6163 11.3281 25.6163H0V53.5314H11.3281C17.8011 53.5314 23.4641 49.0821 24.6776 43.0139L40.454 55.1477L56.2353 43.0139V53.5314H74.0332V47.8674H62.3046V25.6163H55.8301V36.1338L40.86 48.2786L37.6225 45.4466L44.9075 39.7776L52.5926 33.7133L48.145 30.0755L33.1749 41.8041L29.9374 38.9721L44.9083 27.644L40.4552 24.0063V24.0014V24ZM6.07004 31.2803H10.9236C11.935 31.2803 12.9234 31.5076 13.8338 31.9248C14.7441 32.342 15.577 32.9485 16.285 33.7071C16.993 34.4656 17.5748 35.3734 17.9794 36.3976C18.3839 37.4216 18.6092 38.5627 18.6092 39.7766C18.6092 40.8891 18.406 41.9748 18.0331 42.9796C17.6596 43.9846 17.1191 44.9107 16.4364 45.6944C15.7536 46.4784 14.9291 47.1206 13.9998 47.5694C13.0706 48.0184 12.0364 48.2676 10.9236 48.2676H6.07004V31.2803V31.2803ZM94.2631 47.8686V53.5327H76.4625V25.6175H82.9355V47.8676H94.2633L94.2631 47.8686Z" fill="#007DB8"/>
<path d="M169.218 54.0453C174.694 54.0453 179.144 51.307 180 45.3175L179.658 44.9752H178.117L177.775 45.3175C176.919 49.5958 174.181 51.9918 169.389 51.9918C163.4 51.9918 159.121 47.5422 159.121 39.6699C159.121 31.7976 163.571 27.3484 169.389 27.3484C174.181 27.3484 176.92 29.7442 177.775 33.6804L178.117 34.0227H179.658L180 33.681C179.145 28.2047 174.865 25.2954 169.217 25.2954C162.543 25.2954 156.553 30.0872 156.553 39.4995C156.553 49.2543 162.543 54.0461 169.217 54.0461L169.218 54.0453ZM151.762 53.1896V26.1495L151.42 25.8072H148.682L148.34 26.1495L138.071 50.2796H137.729L127.119 26.1495L126.777 25.8072H124.038L123.696 26.1495V53.1896L124.038 53.5319H125.579L125.921 53.1896V30.2575H126.263L136.189 53.1896L136.531 53.5319H138.585L138.927 53.1896L148.853 30.2575H149.366V53.1896L149.709 53.5319H151.249L151.762 53.1896H151.762ZM118.392 53.1896V51.9917L118.05 51.6494H103.332L102.99 51.3071V41.0391L103.332 40.6968H117.194L117.536 40.3545V38.9855L117.194 38.6432H103.332L102.99 38.3009V28.2039L103.332 27.8616H118.05L118.392 27.5193V26.1503L118.05 25.808H100.936L100.594 26.1503V53.1904L100.936 53.5327H118.05L118.392 53.1904V53.1896Z" fill="#808080"/>
</g>
<defs>
<clipPath id="clip0_50_1132">
<rect width="180" height="80" fill="white"/>
</clipPath>
</defs>
</svg>
