<svg width="181" height="80" viewBox="0 0 181 80" fill="none" xmlns="http://www.w3.org/2000/svg">
    <g clip-path="url(#clip0_50:1447)">
        <path d="M117.212 50.4372H112.258V30.2173L128.192 30.2304C128.192 30.2304 131.11 30.1216 132.966 31.9551C132.966 31.9551 134.86 33.5369 134.86 37.4032V50.4341H129.918V37.0664C129.918 37.0664 129.979 35.7029 129.515 35.2244C129.515 35.2244 129.104 34.7047 128.323 34.7047H117.2L117.211 50.43L117.212 50.4372ZM138.303 50.4337V31.503V30.2324H158.187V34.7258L143.228 34.7247V38.1601H153.62V42.4991H143.228V45.9461H158.279V50.4407H138.292L138.303 50.4337ZM103.624 50.4337V31.503V30.2324H108.558V50.4407H103.624V50.4337ZM165.288 50.4337V34.72H160.631V30.2266H179.156V34.72H170.226V50.4337H165.292H165.288ZM87.3296 50.4337V34.72H82.6724V30.2266H101.197V34.72H92.2667V50.4337H87.3331H87.3296ZM72.4521 38.1462C73.6576 38.1369 74.3789 38.1473 74.6692 37.9705C74.6692 37.9705 75.1758 37.6904 75.1816 37.0893L75.1828 35.7676C75.1828 35.1637 74.6704 34.8863 74.6704 34.8863C74.2857 34.6773 73.6338 34.7165 72.0863 34.715H62.4745V38.1458H72.6728L72.4521 38.1462ZM75.1105 50.4337V43.5374C75.1105 42.9174 74.5923 42.6576 74.5923 42.6576C74.3587 42.5124 73.6588 42.4863 72.6284 42.4863H72.8679H62.4745V50.4326H57.5409V31.5018V30.2312H72.9411C75.6007 30.2394 77.4368 30.6305 78.7016 31.8583C79.9443 33.1243 80.1092 34.7804 80.1162 36.5039V37.9429C80.1322 39.4074 79.3627 40.743 78.4449 41.5212L78.6294 41.6127C79.0039 41.7941 79.2087 42.0511 79.2087 42.0511C79.9069 42.9425 79.8983 43.7096 79.8968 44.6527V50.4376H75.1107L75.1105 50.4337ZM0.502323 30.2254V31.4971V50.4279H5.43594V42.4886H20.3831V38.1473H5.43594V34.7142H22.8105V30.2208H0.5L0.502323 30.2254Z" fill="#A3B1BF"/>
        <path d="M177.489 46.8601V47.7878H178.353C178.587 47.7878 178.813 47.724 178.848 47.3769C178.897 46.9168 178.565 46.8601 178.353 46.8601H177.489ZM177.142 46.5552H178.346C178.764 46.5552 179.167 46.6336 179.202 47.2419C179.217 47.5903 179.111 47.7166 178.848 47.9155C179.125 48.0926 179.132 48.1347 179.174 48.6021C179.202 48.9563 179.153 49.013 179.302 49.2467H178.891L178.835 48.907C178.778 48.5876 178.933 48.0926 178.375 48.0926H177.489V49.2468H177.142V46.5547L177.142 46.5552ZM178.048 45.8119C176.859 45.8119 175.889 46.7817 175.897 47.9791C175.897 49.1684 176.86 50.1382 178.056 50.1323C179.247 50.1323 180.217 49.1684 180.217 47.9721C180.217 46.7817 179.247 45.8119 178.049 45.8119H178.048ZM178.056 50.4134C176.705 50.4134 175.613 49.3231 175.613 47.9721C175.607 46.6261 176.705 45.5286 178.056 45.5286C179.402 45.5286 180.5 46.6261 180.5 47.9721C180.5 49.324 179.402 50.4088 178.056 50.4134Z" fill="#A3B1BF"/>
        <path d="M50.7572 50.6346C52.3599 50.0901 53.6073 48.2444 53.9069 45.9239V45.2532H45.69V50.6351H50.756L50.7572 50.6346ZM53.9081 35.3854V34.7786C53.5931 32.3571 52.2531 30.4489 50.5447 30.0006H45.6912V35.3848H53.9081V35.3854ZM24.9893 45.2538V45.9187C25.2868 48.2415 26.5339 50.0905 28.1413 50.6351H33.1818V45.2532H24.9893V45.2538ZM28.3515 30.0046C26.6454 30.4532 25.3017 32.3623 24.9893 34.7873V35.3898H33.1818V30.0056H28.3515V30.0046ZM53.9139 37.6304H45.697V43.0146H53.9139V37.6304ZM35.4244 50.6381H43.4625V45.2561H35.4244V50.6381ZM43.4625 30H35.4244V35.3842H43.4625V30ZM24.9962 43.0077H33.1887V37.6234H24.9962V43.0077Z" fill="#A3B1BF"/>
    </g>
    <defs>
        <clipPath id="clip0_50:1447">
            <rect width="180" height="80" fill="white" transform="translate(0.5)"/>
        </clipPath>
    </defs>
</svg>
