<svg width="180" height="80" viewBox="0 0 180 80" fill="none" xmlns="http://www.w3.org/2000/svg">
    <g clip-path="url(#clip0_50_1004)">
        <path d="M116.712 50.4372H111.758V30.2173L127.692 30.2304C127.692 30.2304 130.609 30.1216 132.465 31.9551C132.465 31.9551 134.36 33.5369 134.36 37.4032V50.4341H129.418V37.0664C129.418 37.0664 129.479 35.7029 129.014 35.2244C129.014 35.2244 128.603 34.7047 127.823 34.7047H116.7L116.71 50.43L116.712 50.4372ZM137.803 50.4337V31.503V30.2324H157.686V34.7258L142.727 34.7247V38.1601H153.12V42.4991H142.727V45.9461H157.779V50.4407H137.792L137.803 50.4337ZM103.124 50.4337V31.503V30.2324H108.057V50.4407H103.124V50.4337ZM164.788 50.4337V34.72H160.131V30.2266H178.655V34.72H169.725V50.4337H164.792H164.788ZM86.8294 50.4337V34.72H82.1722V30.2266H100.696V34.72H91.7665V50.4337H86.8329H86.8294ZM71.9519 38.1462C73.1574 38.1369 73.8786 38.1473 74.169 37.9705C74.169 37.9705 74.6756 37.6904 74.6814 37.0893L74.6825 35.7676C74.6825 35.1637 74.1701 34.8863 74.1701 34.8863C73.7855 34.6773 73.1336 34.7165 71.586 34.715H61.9743V38.1458H72.1725L71.9519 38.1462ZM74.6103 50.4337V43.5374C74.6103 42.9174 74.0921 42.6576 74.0921 42.6576C73.8584 42.5124 73.1586 42.4863 72.1282 42.4863H72.3676H61.9743V50.4326H57.0407V31.5018V30.2312H72.4408C75.1004 30.2394 76.9366 30.6305 78.2013 31.8583C79.444 33.1243 79.609 34.7804 79.6159 36.5039V37.9429C79.632 39.4074 78.8624 40.743 77.9447 41.5212L78.1291 41.6127C78.5037 41.7941 78.7084 42.0511 78.7084 42.0511C79.4066 42.9425 79.3981 43.7096 79.3965 44.6527V50.4376H74.6104L74.6103 50.4337ZM0.00207866 30.2254V31.4971V50.4279H4.9357V42.4886H19.8829V38.1473H4.9357V34.7142H22.3102V30.2208H-0.000244141L0.00207866 30.2254Z" fill="#231F20"/>
        <path d="M176.989 46.8601V47.7878H177.853C178.086 47.7878 178.313 47.724 178.348 47.3769C178.397 46.9168 178.064 46.8601 177.853 46.8601H176.989ZM176.642 46.5552H177.845C178.263 46.5552 178.667 46.6336 178.702 47.2419C178.716 47.5903 178.61 47.7166 178.347 47.9155C178.625 48.0926 178.632 48.1347 178.674 48.6021C178.702 48.9563 178.652 49.013 178.802 49.2467H178.391L178.334 48.907C178.278 48.5876 178.433 48.0926 177.874 48.0926H176.989V49.2468H176.642V46.5547L176.642 46.5552ZM177.548 45.8119C176.359 45.8119 175.389 46.7817 175.397 47.9791C175.397 49.1684 176.359 50.1382 177.556 50.1323C178.746 50.1323 179.716 49.1684 179.716 47.9721C179.716 46.7817 178.746 45.8119 177.549 45.8119H177.548ZM177.556 50.4134C176.204 50.4134 175.112 49.3231 175.112 47.9721C175.107 46.6261 176.204 45.5286 177.556 45.5286C178.902 45.5286 179.999 46.6261 179.999 47.9721C179.999 49.324 178.902 50.4088 177.556 50.4134Z" fill="#231F20"/>
        <path d="M50.2567 50.6346C51.8594 50.0901 53.1068 48.2444 53.4064 45.9239V45.2532H45.1895V50.6351H50.2556L50.2567 50.6346ZM53.4076 35.3854V34.7786C53.0926 32.3571 51.7526 30.4489 50.0442 30.0006H45.1907V35.3848H53.4076V35.3854ZM24.4888 45.2538V45.9187C24.7863 48.2415 26.0334 50.0905 27.6408 50.6351H32.6813V45.2532H24.4888V45.2538ZM27.851 30.0046C26.1449 30.4532 24.8012 32.3623 24.4888 34.7873V35.3898H32.6813V30.0056H27.851V30.0046ZM53.4134 37.6304H45.1965V43.0146H53.4134V37.6304ZM34.9239 50.6381H42.962V45.2561H34.9239V50.6381ZM42.962 30H34.9239V35.3842H42.962V30ZM24.4957 43.0077H32.6882V37.6234H24.4957V43.0077Z" fill="#EE2E24"/>
    </g>
    <defs>
        <clipPath id="clip0_50_1004">
            <rect width="180" height="80" fill="white" transform="translate(-0.000244141)"/>
        </clipPath>
    </defs>
</svg>
