<svg width="180" height="80" viewBox="0 0 180 80" fill="none" xmlns="http://www.w3.org/2000/svg">
    <path d="M22 12.7993V16.5206H48.4689V12.7993H22ZM52.2215 12.7993V16.5206H89.9445C89.9445 16.5206 86.0913 12.7993 80.9884 12.7993H52.2215ZM97.3436 12.7993V16.5206H120.162L118.809 12.7993H97.3436ZM136.526 12.7993L135.172 16.5206H157.788V12.7993H136.526ZM22 20.0371V23.7583H48.4689V20.0371H22ZM52.2215 20.0423V23.7566H94.3183C94.3183 23.7566 93.8271 20.8927 92.9697 20.0423H52.2215ZM97.3436 20.0423V23.7566H122.684L121.431 20.0423H97.3436ZM133.817 20.0423L132.564 23.7566H157.787V20.0423H133.817ZM29.6074 27.2748V31.0013H41.0715V27.2748H29.6074ZM59.8289 27.2748V31.0013H71.293V27.2748H59.8289ZM82.4446 27.2748V31.0013H93.9087C93.9087 31.0013 94.6377 29.033 94.6377 27.2748H82.4446ZM104.953 27.2748V31.0013H125.26L123.906 27.2748H104.953ZM131.323 27.2748L129.962 31.0013H150.387V27.2748H131.323ZM29.6092 34.5177V38.239H41.0733V34.5177H29.6092ZM59.8306 34.5177V38.239H89.1113C89.1113 38.239 91.5586 36.3298 92.3397 34.5177H59.8306ZM104.953 34.5177V38.239H116.417V36.1666L117.146 38.239H138.147L138.928 36.1666V38.239H150.393V34.5177H128.87L127.728 37.6697L126.583 34.5177H104.953ZM29.6074 41.7555V45.4767H41.0715V41.7555H29.6074ZM59.8289 41.7555V45.4767H92.3379C91.5569 43.6716 89.1096 41.7555 89.1096 41.7555H59.8289ZM104.951 41.7555V45.4767H116.415V41.7555H104.951ZM118.498 41.7555L119.886 45.4767H135.632L136.952 41.7555H118.498ZM138.923 41.7555V45.4767H150.387V41.7555H138.923ZM29.6109 48.9932V52.7145H41.075V48.9932H29.6109ZM59.8324 48.9932V52.7145H71.2964V48.9932H59.8324ZM82.4481 48.9932V52.7145H94.6394C94.6394 50.958 93.9105 48.9932 93.9105 48.9932H82.4481ZM104.956 48.9932V52.7145H116.42V48.9932H104.956ZM121.105 48.9932L122.448 52.7145H133.001L134.355 48.9932H121.105ZM138.927 48.9932V52.7145H150.391V48.9932H138.927ZM22.2118 56.2309V59.9574H48.6807V56.2309H22.2118ZM52.2267 56.2309V59.9574H92.9767C93.8341 59.1035 94.3253 56.2309 94.3253 56.2309H52.2267ZM97.5554 56.2309V59.9574H116.413V56.2309H97.5554ZM123.712 56.2309L125.093 59.9574H130.464L131.76 56.2309H123.712ZM138.927 56.2309V59.9574H157.998V56.2309H138.927ZM22.2118 63.4739V67.1951H48.6807V63.4739H22.2118ZM52.2267 63.4739V67.1882H80.9884C86.0913 67.1882 89.9445 63.4739 89.9445 63.4739H52.2267ZM97.5554 63.4739V67.1951H116.413V63.4739H97.5554ZM126.333 63.4739L127.661 67.1847L127.89 67.1899L129.238 63.4756L126.333 63.4739ZM138.928 63.4739V67.1951H158V63.4739H138.928Z" fill="#1F70C1"/>
</svg>
