<svg width="181" height="80" viewBox="0 0 181 80" fill="none" xmlns="http://www.w3.org/2000/svg">
    <path d="M22.5 12.7993V16.5206H48.9689V12.7993H22.5ZM52.7215 12.7993V16.5206H90.4445C90.4445 16.5206 86.5913 12.7993 81.4884 12.7993H52.7215ZM97.8436 12.7993V16.5206H120.662L119.309 12.7993H97.8436ZM137.026 12.7993L135.672 16.5206H158.288V12.7993H137.026ZM22.5 20.0371V23.7583H48.9689V20.0371H22.5ZM52.7215 20.0423V23.7566H94.8183C94.8183 23.7566 94.3271 20.8927 93.4697 20.0423H52.7215ZM97.8436 20.0423V23.7566H123.184L121.931 20.0423H97.8436ZM134.317 20.0423L133.064 23.7566H158.287V20.0423H134.317ZM30.1074 27.2748V31.0013H41.5715V27.2748H30.1074ZM60.3289 27.2748V31.0013H71.793V27.2748H60.3289ZM82.9446 27.2748V31.0013H94.4087C94.4087 31.0013 95.1377 29.033 95.1377 27.2748H82.9446ZM105.453 27.2748V31.0013H125.76L124.406 27.2748H105.453ZM131.823 27.2748L130.462 31.0013H150.887V27.2748H131.823ZM30.1092 34.5177V38.239H41.5733V34.5177H30.1092ZM60.3306 34.5177V38.239H89.6113C89.6113 38.239 92.0586 36.3298 92.8397 34.5177H60.3306ZM105.453 34.5177V38.239H116.917V36.1666L117.646 38.239H138.647L139.428 36.1666V38.239H150.893V34.5177H129.37L128.228 37.6697L127.083 34.5177H105.453ZM30.1074 41.7555V45.4767H41.5715V41.7555H30.1074ZM60.3289 41.7555V45.4767H92.8379C92.0569 43.6716 89.6096 41.7555 89.6096 41.7555H60.3289ZM105.451 41.7555V45.4767H116.915V41.7555H105.451ZM118.998 41.7555L120.386 45.4767H136.132L137.452 41.7555H118.998ZM139.423 41.7555V45.4767H150.887V41.7555H139.423ZM30.1109 48.9932V52.7145H41.575V48.9932H30.1109ZM60.3324 48.9932V52.7145H71.7964V48.9932H60.3324ZM82.9481 48.9932V52.7145H95.1394C95.1394 50.958 94.4105 48.9932 94.4105 48.9932H82.9481ZM105.456 48.9932V52.7145H116.92V48.9932H105.456ZM121.605 48.9932L122.948 52.7145H133.501L134.855 48.9932H121.605ZM139.427 48.9932V52.7145H150.891V48.9932H139.427ZM22.7118 56.2309V59.9574H49.1807V56.2309H22.7118ZM52.7267 56.2309V59.9574H93.4767C94.3341 59.1035 94.8253 56.2309 94.8253 56.2309H52.7267ZM98.0554 56.2309V59.9574H116.913V56.2309H98.0554ZM124.212 56.2309L125.593 59.9574H130.964L132.26 56.2309H124.212ZM139.427 56.2309V59.9574H158.498V56.2309H139.427ZM22.7118 63.4739V67.1951H49.1807V63.4739H22.7118ZM52.7267 63.4739V67.1882H81.4884C86.5913 67.1882 90.4445 63.4739 90.4445 63.4739H52.7267ZM98.0554 63.4739V67.1951H116.913V63.4739H98.0554ZM126.833 63.4739L128.161 67.1847L128.39 67.1899L129.738 63.4756L126.833 63.4739ZM139.428 63.4739V67.1951H158.5V63.4739H139.428Z" fill="#A3B1BF"/>
</svg>
