<svg width="181" height="80" viewBox="0 0 181 80" fill="none" xmlns="http://www.w3.org/2000/svg">
    <g clip-path="url(#clip0_50:1468)">
        <path d="M96.6635 45.6412H96.5826L91.7013 27H76.5088V53.4454H85.22V34.2728H85.3008L90.4536 53.4454H105.375V27H96.6635V45.6412Z" fill="#A3B1BF"/>
        <path d="M61.0905 43.475H73.5161V37.1149H61.0905V33.3601H74.0822V27L44.7196 27.0058C47.2324 27.1733 49.4217 27.6816 51.1605 28.837C53.8871 30.6508 55.5161 34.0706 55.5161 40.3036C55.5161 46.1784 53.8524 49.5347 51.1605 51.3947C49.3062 52.6714 46.9724 53.2548 44.3325 53.4397L74.3479 53.4454V47.0796H61.0905V43.475Z" fill="#A3B1BF"/>
        <path d="M170.119 27L165.157 42.8395H165.088L160.154 27H149.283L158.722 53.4454H170.731L180.5 27H170.119Z" fill="#A3B1BF"/>
        <path d="M107.46 34.8042H116.402V53.4454H126.552V34.8042H135.494V27H107.46V34.8042Z" fill="#A3B1BF"/>
        <path d="M147.96 27H137.805V53.4454H147.96V27Z" fill="#A3B1BF"/>
        <path d="M40.2892 33.1001H37.7764V46.8831H40.3239C44.0151 46.8831 44.8527 44.4512 44.8527 40.0321C44.8585 35.4685 43.9458 33.1001 40.2892 33.1001Z" fill="#A3B1BF"/>
        <path d="M27.5756 27.0059H24.3003V53.434H27.5756V27.0059Z" fill="#A3B1BF"/>
        <path d="M14.0982 27.0056H0.5V53.4337H14.0982V27.0056Z" fill="#A3B1BF"/>
    </g>
    <defs>
        <clipPath id="clip0_50:1468">
            <rect width="180" height="80" fill="white" transform="translate(0.5)"/>
        </clipPath>
    </defs>
</svg>
