<svg width="180" height="80" viewBox="0 0 180 80" fill="none" xmlns="http://www.w3.org/2000/svg">
    <g clip-path="url(#clip0_50_1051)">
        <path d="M96.1635 45.6412H96.0826L91.2013 27H76.0088V53.4454H84.72V34.2728H84.8008L89.9536 53.4454H104.875V27H96.1635V45.6412Z" fill="#D0112B"/>
        <path d="M60.5908 43.475H73.0163V37.1149H60.5908V33.3601H73.5824V27L44.2198 27.0058C46.7326 27.1733 48.922 27.6816 50.6607 28.837C53.3873 30.6508 55.0163 34.0706 55.0163 40.3036C55.0163 46.1784 53.3527 49.5347 50.6607 51.3947C48.8064 52.6714 46.4727 53.2548 43.8328 53.4397L73.8482 53.4454V47.0796H60.5908V43.475Z" fill="#D0112B"/>
        <path d="M169.619 27L164.657 42.8395H164.588L159.655 27H148.783L158.222 53.4454H170.232L180 27H169.619Z" fill="#D0112B"/>
        <path d="M106.96 34.8042H115.902V53.4454H126.052V34.8042H134.994V27H106.96V34.8042Z" fill="#D0112B"/>
        <path d="M147.46 27H137.305V53.4454H147.46V27Z" fill="#D0112B"/>
        <path d="M39.7894 33.1001H37.2766V46.8831H39.8241C43.5154 46.8831 44.353 44.4512 44.353 40.0321C44.3588 35.4685 43.4461 33.1001 39.7894 33.1001Z" fill="#D0112B"/>
        <path d="M27.0756 27.0059H23.8003V53.434H27.0756V27.0059Z" fill="#D0112B"/>
        <path d="M13.5982 27.0056H0V53.4337H13.5982V27.0056Z" fill="#D0112B"/>
    </g>
    <defs>
        <clipPath id="clip0_50_1051">
            <rect width="180" height="80" fill="white"/>
        </clipPath>
    </defs>
</svg>
