<svg width="181" height="80" viewBox="0 0 181 80" fill="none" xmlns="http://www.w3.org/2000/svg">
    <g clip-path="url(#clip0_50:1477)">
        <path d="M95.574 54.4549V62.3121L89.878 54.4549H88.772V63.9832H89.7488V55.893L95.6265 63.9832H96.5524V54.4549H95.574Z" fill="#A3B1BF"/>
        <path d="M98.9731 54.4549V63.9832H105.325V63.0577H99.9885V59.5216H105.144V58.5685H99.9885V55.4189H105.274V54.4548H98.9731" fill="#A3B1BF"/>
        <path d="M106.824 54.4549V55.419H110.398V63.9832H111.415V55.419H114.99V54.4549H106.824" fill="#A3B1BF"/>
        <path d="M128.271 54.455L125.752 62.3377L123.206 54.455H122.332L119.772 62.3377L117.264 54.455H116.222L119.296 64.0479H120.183L122.742 56.1139L125.314 64.0479H126.189L129.249 54.455H128.271" fill="#A3B1BF"/>
        <path d="M138.76 59.2598C138.76 56.6879 137.564 55.2996 134.966 55.2996C132.382 55.2996 131.198 56.6879 131.198 59.2598C131.198 61.8452 132.381 63.2335 134.966 63.2335C137.564 63.2335 138.76 61.8438 138.76 59.2598ZM130.183 59.2473C130.183 55.8512 131.918 54.335 134.966 54.335C138.026 54.335 139.776 55.8512 139.776 59.2473C139.776 62.6554 138.026 64.1716 134.966 64.1716C131.918 64.1716 130.183 62.6541 130.183 59.2473Z" fill="#A3B1BF"/>
        <path d="M145.967 59.2013C147.317 59.2013 148.153 58.7902 148.153 57.2851C148.153 55.8066 147.342 55.4215 145.929 55.4215H142.829V59.2013H145.967ZM145.684 60.1268H142.828V64.0103H141.839V54.482H145.954C148.165 54.482 149.168 55.3688 149.168 57.2586C149.168 58.9041 148.384 59.8682 146.726 60.0877L149.027 64.0103H147.946L145.684 60.1268" fill="#A3B1BF"/>
        <path d="M154.229 58.9669L152.325 61.05V64.0205H151.335V54.4923H152.325V59.7519L157.147 54.4923H158.316L154.897 58.2343L158.78 64.0205H157.636L154.228 58.9669" fill="#A3B1BF"/>
        <path d="M159.621 63.0688L160.136 62.2988C161.279 63.0168 162.399 63.2622 163.542 63.2622C165.511 63.2622 166.385 62.709 166.385 61.3972C166.385 60.0466 165.254 59.854 163.542 59.5456C161.485 59.1842 160.095 58.8371 160.095 56.9091C160.095 55.0697 161.278 54.3493 163.542 54.3493C165.034 54.3493 166.102 54.6839 166.86 55.1983L166.321 56.0212C165.638 55.5706 164.623 55.2741 163.543 55.2741C161.833 55.2741 161.1 55.7514 161.1 56.8819C161.1 58.0922 162.091 58.3227 163.788 58.6297C165.871 59.0035 167.375 59.313 167.375 61.3565C167.375 63.2484 166.166 64.1587 163.568 64.1587C162.129 64.1587 160.829 63.8645 159.62 63.0666" fill="#A3B1BF"/>
        <path d="M177.317 15.0774C163.923 15.0774 163.353 21.079 163.353 29.5394V50.3303H166.511V29.5394C166.511 23.1594 166.259 18.0398 177.317 18.0398C178.503 18.0398 179.553 18.1022 180.5 18.2118V15.2022C179.524 15.1167 178.471 15.0697 177.317 15.0697" fill="#A3B1BF"/>
        <path d="M21.0977 36.8172V15.7705H24.32V36.8711C24.32 42.9373 24.2572 48.0556 35.3779 48.0556C46.4345 48.0556 46.1827 42.9387 46.1827 36.556V15.7651H49.3418V36.556C49.3418 45.0245 48.7722 51.0315 35.3779 51.0315C21.9191 51.0315 21.1044 45.0299 21.1044 36.8118" fill="#A3B1BF"/>
        <path d="M82.9168 29.3168V50.3501H79.6932V29.2495C79.6932 23.1832 79.7563 18.065 68.6352 18.065C57.5773 18.065 57.8304 23.1832 57.8304 29.5646V50.3555H54.6714V29.5646C54.6714 21.0961 55.241 15.0891 68.6352 15.0891C82.0941 15.0891 82.9087 21.0907 82.9087 29.3087" fill="#A3B1BF"/>
        <path d="M88.7764 50.3533H91.8679V15.8572H88.7764V50.3533Z" fill="#A3B1BF"/>
        <path d="M113.856 35.2936C119.436 35.2936 122.209 32.5749 122.209 27.0796C122.209 21.5883 119.217 18.98 113.719 18.98H100.751V35.3003L113.856 35.2936ZM97.6569 15.8897H113.802C121.811 15.8897 125.443 19.8715 125.443 26.9463C125.443 34.0696 121.859 38.4015 113.758 38.4015H100.745V50.3872H97.6528V15.8883" fill="#A3B1BF"/>
        <path d="M132.197 30.6644H155.708C155.393 23.7781 154.95 17.9017 144.903 17.9017C135.236 17.9017 132.584 23.1466 132.204 30.6644H132.197ZM129.043 33.0034C129.043 22.8301 131.951 14.9999 144.973 14.9999C158.432 14.9999 158.87 24.034 158.816 33.5689H132.154C132.217 41.9728 134.3 48.233 145.233 48.233C151.046 48.233 153.702 46.6521 156.543 44.5676L158.312 46.9053C155.153 49.2429 151.426 51.0742 145.233 51.0742C131.579 51.0742 129.061 43.1766 129.061 33.0034" fill="#A3B1BF"/>
        <path d="M1.70127 57.8538C15.0968 57.8538 15.6651 51.8508 15.6651 43.3782V15.8007H12.5061V43.3782C12.5061 49.7582 12.7591 54.8792 1.70127 54.8792C1.28383 54.8792 0.886193 54.868 0.5 54.8531V57.8317C0.888617 57.842 1.28868 57.8482 1.70127 57.8482" fill="#A3B1BF"/>
        <path d="M173.449 46.4274C172.4 46.4274 171.548 47.2788 171.548 48.326C171.548 49.3723 172.4 50.2247 173.449 50.2247C174.494 50.2247 175.346 49.3726 175.346 48.326C175.346 47.2791 174.495 46.4274 173.449 46.4274ZM173.449 50.5061C172.246 50.5061 171.266 49.5276 171.266 48.3247C171.266 47.1218 172.245 46.1432 173.449 46.1432C174.65 46.1432 175.628 47.1225 175.628 48.3247C175.628 49.5269 174.65 50.5061 173.449 50.5061Z" fill="#A3B1BF"/>
        <path d="M173.683 48.3022C174.025 48.3022 174.222 48.2028 174.222 47.8375C174.222 47.4762 174.033 47.3918 173.674 47.3918H172.906V48.3022H173.683ZM173.606 48.6154H172.906V49.5789H172.572V47.0743H173.688C174.323 47.0743 174.567 47.3339 174.567 47.8278C174.567 48.2326 174.394 48.5127 173.963 48.5922L174.529 49.5786H174.166L173.606 48.6151" fill="#A3B1BF"/>
    </g>
    <defs>
        <clipPath id="clip0_50:1477">
            <rect width="180" height="80" fill="white" transform="translate(0.5)"/>
        </clipPath>
    </defs>
</svg>
