<svg width="180" height="80" viewBox="0 0 180 80" fill="none" xmlns="http://www.w3.org/2000/svg">
<path d="M95.0735 54.4549V62.3121L89.3775 54.4549H88.2715V63.9832H89.2483V55.893L95.126 63.9832H96.0519V54.4549H95.0735" fill="#80B13E"/>
<path d="M98.4729 54.4549V63.9832H104.825V63.0577H99.4882V59.5216H104.644V58.5685H99.4882V55.4189H104.773V54.4548H98.4729" fill="#80B13E"/>
<path d="M106.324 54.4549V55.419H109.898V63.9832H110.914V55.419H114.489V54.4549H106.324" fill="#80B13E"/>
<path d="M127.771 54.455L125.252 62.3377L122.706 54.455H121.832L119.272 62.3377L116.764 54.455H115.722L118.796 64.0479H119.683L122.242 56.1139L124.814 64.0479H125.689L128.749 54.455H127.771" fill="#80B13E"/>
<path d="M138.26 59.2598C138.26 56.6879 137.064 55.2996 134.465 55.2996C131.881 55.2996 130.698 56.6879 130.698 59.2598C130.698 61.8452 131.88 63.2335 134.465 63.2335C137.064 63.2335 138.26 61.8438 138.26 59.2598V59.2598ZM129.682 59.2473C129.682 55.8512 131.418 54.335 134.465 54.335C137.526 54.335 139.275 55.8512 139.275 59.2473C139.275 62.6554 137.526 64.1716 134.465 64.1716C131.418 64.1716 129.682 62.6541 129.682 59.2473" fill="#80B13E"/>
<path d="M145.467 59.2013C146.817 59.2013 147.653 58.7902 147.653 57.2851C147.653 55.8066 146.842 55.4215 145.429 55.4215H142.329V59.2013H145.467ZM145.184 60.1268H142.328V64.0103H141.339V54.482H145.454C147.665 54.482 148.668 55.3688 148.668 57.2586C148.668 58.9041 147.884 59.8682 146.226 60.0877L148.527 64.0103H147.446L145.184 60.1268" fill="#80B13E"/>
<path d="M153.729 58.9669L151.825 61.05V64.0205H150.835V54.4923H151.825V59.7519L156.647 54.4923H157.816L154.397 58.2343L158.28 64.0205H157.136L153.728 58.9669" fill="#80B13E"/>
<path d="M159.12 63.0688L159.635 62.2988C160.778 63.0168 161.899 63.2622 163.042 63.2622C165.011 63.2622 165.884 62.709 165.884 61.3972C165.884 60.0466 164.753 59.854 163.042 59.5456C160.984 59.1842 159.595 58.8371 159.595 56.9091C159.595 55.0697 160.778 54.3493 163.042 54.3493C164.534 54.3493 165.602 54.6839 166.36 55.1983L165.82 56.0212C165.137 55.5706 164.122 55.2741 163.042 55.2741C161.332 55.2741 160.599 55.7514 160.599 56.8819C160.599 58.0922 161.59 58.3227 163.287 58.6297C165.37 59.0035 166.874 59.313 166.874 61.3565C166.874 63.2484 165.666 64.1587 163.068 64.1587C161.628 64.1587 160.329 63.8645 159.12 63.0666" fill="#80B13E"/>
<path d="M176.817 15.0774C163.422 15.0774 162.853 21.079 162.853 29.5394V50.3303H166.01V29.5394C166.01 23.1594 165.758 18.0398 176.817 18.0398C178.003 18.0398 179.053 18.1022 180 18.2118V15.2022C179.024 15.1167 177.971 15.0697 176.817 15.0697" fill="#231F20"/>
<path d="M20.5974 36.8172V15.7705H23.8197V36.8711C23.8197 42.9373 23.757 48.0556 34.8777 48.0556C45.9343 48.0556 45.6825 42.9387 45.6825 36.556V15.7651H48.8415V36.556C48.8415 45.0245 48.2719 51.0315 34.8777 51.0315C21.4188 51.0315 20.6041 45.0299 20.6041 36.8118" fill="#231F20"/>
<path d="M82.4166 29.3168V50.3501H79.1929V29.2495C79.1929 23.1832 79.2561 18.065 68.135 18.065C57.077 18.065 57.3302 23.1832 57.3302 29.5646V50.3555H54.1711V29.5646C54.1711 21.0961 54.7407 15.0891 68.135 15.0891C81.5938 15.0891 82.4085 21.0907 82.4085 29.3087" fill="#231F20"/>
<path d="M88.2759 50.3533H91.3675V15.8572H88.2759V50.3533Z" fill="#231F20"/>
<path d="M113.355 35.2936C118.936 35.2936 121.708 32.5749 121.708 27.0796C121.708 21.5883 118.716 18.98 113.218 18.98H100.251V35.3003L113.355 35.2936ZM97.1564 15.8897H113.302C121.311 15.8897 124.943 19.8715 124.943 26.9463C124.943 34.0696 121.358 38.4015 113.257 38.4015H100.244V50.3872H97.1523V15.8883" fill="#231F20"/>
<path d="M131.697 30.6644H155.208C154.892 23.7781 154.449 17.9017 144.403 17.9017C134.736 17.9017 132.083 23.1466 131.703 30.6644H131.697ZM128.543 33.0034C128.543 22.8301 131.45 14.9999 144.473 14.9999C157.932 14.9999 158.369 24.034 158.315 33.5689H131.654C131.717 41.9728 133.8 48.233 144.733 48.233C150.546 48.233 153.201 46.6521 156.042 44.5676L157.812 46.9053C154.653 49.2429 150.925 51.0742 144.733 51.0742C131.079 51.0742 128.56 43.1766 128.56 33.0034" fill="#231F20"/>
<path d="M1.20102 57.8538C14.5966 57.8538 15.1648 51.8508 15.1648 43.3782V15.8007H12.0058V43.3782C12.0058 49.7582 12.2588 54.8792 1.20102 54.8792C0.783588 54.8792 0.385949 54.868 -0.000244141 54.8531V57.8317C0.388373 57.842 0.788436 57.8482 1.20102 57.8482" fill="#231F20"/>
<path d="M172.948 46.4274C171.9 46.4274 171.047 47.2788 171.047 48.326C171.047 49.3723 171.899 50.2247 172.948 50.2247C173.994 50.2247 174.846 49.3726 174.846 48.326C174.846 47.2791 173.994 46.4274 172.948 46.4274ZM172.948 50.5061C171.745 50.5061 170.766 49.5276 170.766 48.3247C170.766 47.1218 171.745 46.1432 172.948 46.1432C174.15 46.1432 175.127 47.1225 175.127 48.3247C175.127 49.5269 174.15 50.5061 172.948 50.5061Z" fill="#231F20"/>
<path d="M173.183 48.3022C173.525 48.3022 173.721 48.2028 173.721 47.8375C173.721 47.4762 173.532 47.3918 173.174 47.3918H172.406V48.3022H173.183ZM173.106 48.6154H172.406V49.5789H172.072V47.0743H173.187C173.822 47.0743 174.067 47.3339 174.067 47.8278C174.067 48.2326 173.894 48.5127 173.463 48.5922L174.028 49.5786H173.666L173.106 48.6151" fill="#231F20"/>
</svg>
