<svg width="181" height="80" viewBox="0 0 181 80" fill="none" xmlns="http://www.w3.org/2000/svg">
    <g clip-path="url(#clip0_50:1458)">
        <path fill-rule="evenodd" clip-rule="evenodd" d="M0.499512 10H180.5V69.9996H0.499512V10ZM23.6317 47.8787H38.0441V53.7006H17.2046V23.7036H23.6317V47.8787ZM58.2988 46.6018C55.6303 48.5762 54.1048 49.0487 51.6714 49.0487C49.4811 49.0487 47.7666 48.3681 46.5572 47.1756L62.7684 40.4503C62.4152 37.9438 61.4646 35.7051 59.9998 34.003C57.8702 31.528 54.7179 30.2207 50.8794 30.2207C43.9044 30.2207 38.6484 35.3642 38.6484 42.1581C38.6484 49.1275 43.9247 54.0999 51.5747 54.0999C55.8654 54.0999 60.2529 52.0659 62.3049 49.6899L58.2988 46.6018ZM46.1162 37.5625C47.1962 36.1123 48.9163 35.2618 50.9942 35.2618C53.2791 35.2618 55.0127 36.5668 55.9093 38.4917L44.8303 43.0873C44.5277 40.735 45.1307 38.89 46.1162 37.5625ZM71.388 33.9209C73.2353 31.4538 76.2593 30.2219 78.9176 30.2219C84.4965 30.2219 88.2956 34.0762 88.2956 39.3862V53.7018H81.954V40.5618C81.954 37.5074 79.2394 35.6827 76.6159 35.6827C73.2206 35.6827 71.388 38.1993 71.388 40.5618V53.7018H65.0464V30.6078H71.388V33.9209ZM127.631 46.3407L133.364 30.6099H140.607L131.105 53.6937H124.157L114.655 30.6099H121.899L127.631 46.3407ZM151.993 54.091C145.058 54.091 139.625 48.9238 139.625 42.1558C139.625 35.4632 145.096 30.2207 152.079 30.2207C159.013 30.2207 164.446 35.3867 164.446 42.1558C164.446 48.8473 158.976 54.091 151.993 54.091ZM151.993 35.6545C148.452 35.6545 145.881 38.3376 145.881 42.1558C145.881 45.8008 148.605 48.6572 152.079 48.6572C155.62 48.6572 158.191 45.8998 158.191 42.1558C158.191 38.5097 155.468 35.6545 151.993 35.6545ZM90.8042 42.1558C90.8042 48.9249 96.2368 54.091 103.171 54.091C110.154 54.091 115.625 48.8473 115.625 42.1558C115.625 35.3867 110.191 30.2207 103.258 30.2207C96.2739 30.2207 90.8042 35.4632 90.8042 42.1558ZM97.0603 42.1558C97.0603 38.3376 99.6298 35.6545 103.171 35.6545C106.646 35.6545 109.37 38.5097 109.37 42.1558C109.37 45.8998 106.799 48.6572 103.258 48.6572C99.7828 48.6572 97.0603 45.8008 97.0603 42.1558ZM165.312 50.9601H164.287V50.3762H166.975V50.9601H165.949V53.7017H165.312V50.9601ZM167.687 50.3762H168.362L169.366 51.9512L170.37 50.3762H171.029V53.7017H170.414V51.3392L169.388 52.9367H169.323L168.298 51.3392V53.7017H167.682L167.687 50.3762Z" fill="#A3B1BF"/>
    </g>
    <defs>
        <clipPath id="clip0_50:1458">
            <rect width="180" height="80" fill="white" transform="translate(0.499512)"/>
        </clipPath>
    </defs>
</svg>
