<svg width="180" height="80" viewBox="0 0 180 80" fill="none" xmlns="http://www.w3.org/2000/svg">
    <g clip-path="url(#clip0_50_1041)">
        <path d="M180 10H-0.000488281V69.9996H180V10Z" fill="#E1251B"/>
        <path d="M78.4176 30.2219C75.7593 30.2219 72.7353 31.4538 70.888 33.9209V30.6078H64.5464V53.7018H70.888V40.5618C70.888 38.1993 72.7206 35.6827 76.1159 35.6827C78.7394 35.6827 81.454 37.5074 81.454 40.5618V53.7018H87.7956V39.3862C87.7956 34.0762 83.9965 30.2219 78.4176 30.2219Z" fill="white"/>
        <path d="M132.864 30.6099L127.131 46.3407L121.399 30.6099H114.155L123.657 53.6937H130.605L140.107 30.6099H132.864Z" fill="white"/>
        <path d="M57.7988 46.6018C55.1303 48.5762 53.6048 49.0487 51.1714 49.0487C48.9811 49.0487 47.2666 48.3681 46.0572 47.1756L62.2684 40.4503C61.9152 37.9438 60.9646 35.7051 59.4998 34.003C57.3702 31.528 54.2179 30.2207 50.3794 30.2207C43.4044 30.2207 38.1484 35.3642 38.1484 42.1581C38.1484 49.1275 43.4247 54.1 51.0747 54.1C55.3654 54.1 59.7529 52.0659 61.8049 49.6899L57.7988 46.6018ZM45.6162 37.5625C46.6962 36.1123 48.4163 35.2618 50.4942 35.2618C52.7791 35.2618 54.5127 36.5668 55.4093 38.4917L44.3303 43.0873C44.0277 40.735 44.6307 38.89 45.6162 37.5625Z" fill="white"/>
        <path d="M37.5443 47.8787H23.132V23.7036H16.7048V53.7006H37.5443V47.8787Z" fill="white"/>
        <path d="M151.493 54.091C144.558 54.091 139.125 48.9238 139.125 42.1558C139.125 35.4632 144.596 30.2207 151.579 30.2207C158.513 30.2207 163.946 35.3867 163.946 42.1558C163.946 48.8473 158.476 54.091 151.493 54.091ZM151.493 35.6545C147.952 35.6545 145.381 38.3376 145.381 42.1558C145.381 45.8008 148.105 48.6572 151.579 48.6572C155.12 48.6572 157.691 45.8998 157.691 42.1558C157.691 38.5097 154.968 35.6545 151.493 35.6545Z" fill="white"/>
        <path d="M102.672 54.091C95.7371 54.091 90.3044 48.925 90.3044 42.1558C90.3044 35.4632 95.7742 30.2207 102.758 30.2207C109.692 30.2207 115.125 35.3867 115.125 42.1558C115.125 48.8473 109.654 54.091 102.672 54.091ZM102.672 35.6545C99.1301 35.6545 96.5606 38.3376 96.5606 42.1558C96.5606 45.8008 99.2831 48.6572 102.758 48.6572C106.3 48.6572 108.87 45.8998 108.87 42.1558C108.87 38.5097 106.147 35.6545 102.672 35.6545Z" fill="white"/>
        <path d="M164.812 50.9601H163.787V50.3762H166.475V50.9601H165.449V53.7017H164.812V50.9601ZM167.187 50.3762H167.862L168.866 51.9512L169.87 50.3762H170.529V53.7017H169.914V51.3392L168.888 52.9367H168.823L167.798 51.3392V53.7017H167.182L167.187 50.3762Z" fill="white"/>
    </g>
    <defs>
        <clipPath id="clip0_50_1041">
            <rect width="180" height="80" fill="white" transform="translate(-0.000488281)"/>
        </clipPath>
    </defs>
</svg>
