<svg width="180" height="80" viewBox="0 0 180 80" fill="none" xmlns="http://www.w3.org/2000/svg">
<g clip-path="url(#clip0_50_1136)">
<path d="M32.9493 24.6443C31.4895 23.8715 29.7293 24.4725 28.9565 25.9752L18.3089 48.9448C18.0513 49.4171 17.8366 49.7605 17.2785 49.7605C16.7203 49.7605 16.5056 49.4171 16.248 48.9448L5.60046 26.0181C4.87058 24.4725 3.06736 23.8715 1.60761 24.6872C0.147864 25.46 -0.410276 27.3491 0.319599 28.8947L10.7525 50.104L11.9547 52.5083C12.9851 54.6121 15.0459 55.943 17.2785 55.943C19.5539 55.943 21.5718 54.6121 22.6022 52.5083L23.8044 50.104L34.1944 28.8518C34.9672 27.3062 34.409 25.46 32.9493 24.6443Z" fill="#00B336"/>
<path d="M174.76 24.3005C172.742 24.3005 170.982 25.5456 170.166 27.263C167.461 32.8014 159.475 49.2451 159.475 49.288C159.432 49.3739 159.261 49.7603 158.917 49.7603C158.617 49.7603 158.402 49.4168 158.359 49.288C155.74 43.8354 150.502 33.059 147.797 27.4776C146.724 25.3309 144.964 24.3005 143.075 24.3005C140.155 24.3005 137.751 26.7907 137.751 30.1395V52.7657C137.751 54.1395 138.524 55.4276 139.726 55.814C141.701 56.458 143.375 54.7406 143.375 52.7227L142.946 30.6977C142.946 30.483 143.203 30.3971 143.332 30.5689L154.151 52.551C155.182 54.6547 156.899 55.8998 158.831 55.8998C160.763 55.8998 162.524 54.6547 163.511 52.551L174.373 30.5259C174.459 30.3113 174.76 30.3971 174.76 30.6547L174.33 52.8086C174.33 54.5689 175.661 55.9857 177.25 55.8998C178.795 55.8569 179.998 54.3542 179.998 52.6798C179.998 52.6798 179.998 35.7639 179.998 30.1395C180.083 26.7478 177.679 24.3435 174.76 24.3005Z" fill="#00B336"/>
<path d="M134.059 51.3488L122.08 27.6923C121.05 25.5886 118.989 24.3005 116.756 24.3005C115.34 24.3005 114.009 24.8157 112.978 25.7174C112.334 26.2755 111.819 26.9195 111.433 27.7352L99.4971 51.263C99.4971 51.3059 99.4542 51.3059 99.4542 51.3488V51.3918C98.896 52.5081 99.0248 53.7531 99.6688 54.6977C99.6688 54.7406 99.7118 54.7406 99.7118 54.7835C99.7118 54.8265 99.7547 54.8265 99.7547 54.8694C99.9694 55.127 100.227 55.3846 100.528 55.5564C101.558 56.1574 102.717 56.0716 103.619 55.4276C103.619 55.4276 103.662 55.4276 103.662 55.3846C103.748 55.3417 103.79 55.2988 103.833 55.2558C103.876 55.2129 103.919 55.17 103.962 55.127L104.005 55.0841C104.22 54.8694 104.392 54.6118 104.563 54.3113L104.993 53.3667L107.483 48.1288C107.526 48 107.697 47.9141 107.826 47.9141H118.946C120.406 47.9141 121.608 46.6691 121.608 45.0805C121.608 43.5349 120.406 42.2469 118.946 42.2469H112.334H110.703C110.531 42.2469 110.402 42.0751 110.488 41.9034L111.089 40.6154L115.597 31.5564V31.5134C115.597 31.5134 115.597 31.4705 115.64 31.4705C115.726 31.2987 115.941 30.6547 116.37 30.5259C116.628 30.4401 116.842 30.4401 117.014 30.5259C117.486 30.6547 117.658 31.2129 117.873 31.6422L128.778 54.3113C129.293 55.3417 130.324 55.9428 131.397 55.9428C131.74 55.9428 132.084 55.8998 132.384 55.771C132.384 55.771 132.427 55.771 132.427 55.7281C132.513 55.6852 132.599 55.6422 132.685 55.5993C132.728 55.5993 132.728 55.5564 132.771 55.5564C132.771 55.5564 132.814 55.5564 132.814 55.5134C132.857 55.5134 132.857 55.4705 132.9 55.4705C132.943 55.4705 132.985 55.4276 132.985 55.3846C133.028 55.3846 133.028 55.3417 133.071 55.3417C133.114 55.2988 133.157 55.2558 133.2 55.2558C133.243 55.2129 133.286 55.17 133.329 55.127L133.372 55.0841C134.445 54.1825 134.703 52.6369 134.059 51.3488Z" fill="#00B336"/>
<path d="M41.0203 43.5349H61.1991C61.5856 43.5349 64.7197 43.2773 64.7197 39.7567C64.7197 31.0841 58.022 24 49.7358 24C41.4496 24 34.709 31.0841 34.709 39.7567C34.709 39.9714 34.709 40.4866 34.709 40.5724C34.709 50.4902 41.0632 55.8569 49.5212 56.3292C49.9076 56.3721 50.3369 56.3721 50.7233 56.3721C53.9863 56.3721 56.6911 55.5134 59.6965 53.6673C59.997 53.4955 61.1991 52.6798 62.4013 51.1342C63.3888 49.8891 63.4317 48.0429 62.4013 47.0555C60.8986 45.6386 59.3101 46.4114 57.9362 47.6136C55.7466 49.4597 54.0721 50.9195 49.6929 50.9195C45.5712 50.9195 41.7072 48.5581 40.7627 43.8784C40.7627 43.7066 40.8485 43.5349 41.0203 43.5349ZM40.7627 37.7388C41.3208 33.1878 44.455 29.1521 49.6929 29.1521C54.9308 29.1521 58.2367 33.102 58.7519 37.7388C58.7519 37.9106 58.6661 38.0823 58.4943 38.0823H41.0203C40.8485 38.0394 40.7627 37.9106 40.7627 37.7388Z" fill="#00B336"/>
<path d="M74.5093 43.5349H94.6882C95.0746 43.5349 98.2088 43.2773 98.2088 39.7567C98.1658 31.0841 91.4682 24 83.2249 24C74.9816 24 68.241 31.0841 68.241 39.7567C68.241 39.9714 68.241 40.4866 68.241 40.5724C68.241 50.4902 74.5952 55.8569 83.0531 56.3292C83.4395 56.3721 83.8689 56.3721 84.2553 56.3721C87.5182 56.3721 90.2231 55.5134 93.2285 53.6673C93.529 53.4955 94.7311 52.6798 95.9333 51.1342C96.9208 49.8891 96.9637 48.0429 95.9333 47.0555C94.4306 45.6386 92.842 46.4114 91.4682 47.6136C89.2785 49.4597 87.6041 50.9195 83.2249 50.9195C79.1032 50.9195 75.2392 48.5581 74.2946 43.8784C74.2517 43.7066 74.3805 43.5349 74.5093 43.5349ZM74.2946 37.7388C74.8528 33.1878 77.9869 29.1521 83.2249 29.1521C88.4628 29.1521 91.7687 33.102 92.2839 37.7388C92.2839 37.9106 92.198 38.0823 92.0263 38.0823H74.5522C74.3805 38.0394 74.2517 37.9106 74.2946 37.7388Z" fill="#00B336"/>
</g>
<defs>
<clipPath id="clip0_50_1136">
<rect width="180" height="80" fill="white"/>
</clipPath>
</defs>
</svg>
