<svg width="181" height="80" viewBox="0 0 181 80" fill="none" xmlns="http://www.w3.org/2000/svg">
    <g clip-path="url(#clip0_50:1515)">
        <path d="M33.4493 24.6443C31.9895 23.8715 30.2293 24.4725 29.4565 25.9752L18.8089 48.9448C18.5513 49.4171 18.3366 49.7605 17.7785 49.7605C17.2203 49.7605 17.0056 49.4171 16.748 48.9448L6.10046 26.0181C5.37058 24.4725 3.56736 23.8715 2.10761 24.6872C0.647864 25.46 0.0897241 27.3491 0.819599 28.8947L11.2525 50.104L12.4547 52.5083C13.4851 54.6121 15.5459 55.943 17.7785 55.943C20.0539 55.943 22.0718 54.6121 23.1022 52.5083L24.3044 50.104L34.6944 28.8518C35.4672 27.3062 34.909 25.46 33.4493 24.6443Z" fill="#A3B1BF"/>
        <path d="M175.26 24.3005C173.242 24.3005 171.482 25.5456 170.666 27.263C167.961 32.8014 159.975 49.2451 159.975 49.288C159.933 49.3739 159.761 49.7603 159.417 49.7603C159.117 49.7603 158.902 49.4168 158.859 49.288C156.24 43.8354 151.002 33.059 148.298 27.4776C147.224 25.3309 145.464 24.3005 143.575 24.3005C140.655 24.3005 138.251 26.7907 138.251 30.1395V52.7657C138.251 54.1395 139.024 55.4276 140.226 55.814C142.201 56.458 143.875 54.7406 143.875 52.7227L143.446 30.6977C143.446 30.483 143.704 30.3971 143.832 30.5689L154.652 52.551C155.682 54.6547 157.399 55.8998 159.331 55.8998C161.264 55.8998 163.024 54.6547 164.011 52.551L174.874 30.5259C174.959 30.3113 175.26 30.3971 175.26 30.6547L174.831 52.8086C174.831 54.5689 176.162 55.9857 177.75 55.8998C179.296 55.8569 180.498 54.3542 180.498 52.6798C180.498 52.6798 180.498 35.7639 180.498 30.1395C180.584 26.7478 178.179 24.3435 175.26 24.3005Z" fill="#A3B1BF"/>
        <path d="M134.559 51.3488L122.58 27.6923C121.55 25.5886 119.489 24.3005 117.256 24.3005C115.84 24.3005 114.509 24.8157 113.478 25.7174C112.834 26.2755 112.319 26.9195 111.933 27.7352L99.9971 51.263C99.9971 51.3059 99.9542 51.3059 99.9542 51.3488V51.3918C99.396 52.5081 99.5248 53.7531 100.169 54.6977C100.169 54.7406 100.212 54.7406 100.212 54.7835C100.212 54.8265 100.255 54.8265 100.255 54.8694C100.469 55.127 100.727 55.3846 101.028 55.5564C102.058 56.1574 103.217 56.0716 104.119 55.4276C104.119 55.4276 104.162 55.4276 104.162 55.3846C104.248 55.3417 104.29 55.2988 104.333 55.2558C104.376 55.2129 104.419 55.17 104.462 55.127L104.505 55.0841C104.72 54.8694 104.892 54.6118 105.063 54.3113L105.493 53.3667L107.983 48.1288C108.026 48 108.197 47.9141 108.326 47.9141H119.446C120.906 47.9141 122.108 46.6691 122.108 45.0805C122.108 43.5349 120.906 42.2469 119.446 42.2469H112.834H111.203C111.031 42.2469 110.902 42.0751 110.988 41.9034L111.589 40.6154L116.097 31.5564V31.5134C116.097 31.5134 116.097 31.4705 116.14 31.4705C116.226 31.2987 116.441 30.6547 116.87 30.5259C117.128 30.4401 117.342 30.4401 117.514 30.5259C117.986 30.6547 118.158 31.2129 118.373 31.6422L129.278 54.3113C129.793 55.3417 130.824 55.9428 131.897 55.9428C132.24 55.9428 132.584 55.8998 132.884 55.771C132.884 55.771 132.927 55.771 132.927 55.7281C133.013 55.6852 133.099 55.6422 133.185 55.5993C133.228 55.5993 133.228 55.5564 133.271 55.5564C133.271 55.5564 133.314 55.5564 133.314 55.5134C133.357 55.5134 133.357 55.4705 133.4 55.4705C133.443 55.4705 133.485 55.4276 133.485 55.3846C133.528 55.3846 133.528 55.3417 133.571 55.3417C133.614 55.2988 133.657 55.2558 133.7 55.2558C133.743 55.2129 133.786 55.17 133.829 55.127L133.872 55.0841C134.945 54.1825 135.203 52.6369 134.559 51.3488Z" fill="#A3B1BF"/>
        <path d="M41.5203 43.5349H61.6991C62.0856 43.5349 65.2197 43.2773 65.2197 39.7567C65.2197 31.0841 58.522 24 50.2358 24C41.9496 24 35.209 31.0841 35.209 39.7567C35.209 39.9714 35.209 40.4866 35.209 40.5725C35.209 50.4902 41.5632 55.8569 50.0212 56.3292C50.4076 56.3721 50.8369 56.3721 51.2233 56.3721C54.4863 56.3721 57.1911 55.5134 60.1965 53.6673C60.497 53.4955 61.6991 52.6798 62.9013 51.1342C63.8888 49.8891 63.9317 48.0429 62.9013 47.0555C61.3986 45.6386 59.8101 46.4114 58.4362 47.6136C56.2465 49.4597 54.5721 50.9195 50.1929 50.9195C46.0712 50.9195 42.2072 48.5581 41.2627 43.8784C41.2627 43.7066 41.3485 43.5349 41.5203 43.5349ZM41.2627 37.7388C41.8208 33.1878 44.955 29.1521 50.1929 29.1521C55.4308 29.1521 58.7367 33.102 59.2519 37.7388C59.2519 37.9106 59.1661 38.0823 58.9943 38.0823H41.5203C41.3485 38.0394 41.2627 37.9106 41.2627 37.7388Z" fill="#A3B1BF"/>
        <path d="M75.0091 43.5349H95.188C95.5744 43.5349 98.7085 43.2773 98.7085 39.7567C98.6656 31.0841 91.9679 24 83.7246 24C75.4813 24 68.7407 31.0841 68.7407 39.7567C68.7407 39.9714 68.7407 40.4866 68.7407 40.5725C68.7407 50.4902 75.0949 55.8569 83.5529 56.3292C83.9393 56.3721 84.3686 56.3721 84.755 56.3721C88.018 56.3721 90.7228 55.5134 93.7282 53.6673C94.0287 53.4955 95.2309 52.6798 96.433 51.1342C97.4205 49.8891 97.4634 48.0429 96.433 47.0555C94.9303 45.6386 93.3418 46.4114 91.9679 47.6136C89.7783 49.4597 88.1039 50.9195 83.7246 50.9195C79.603 50.9195 75.7389 48.5581 74.7944 43.8784C74.7515 43.7066 74.8803 43.5349 75.0091 43.5349ZM74.7944 37.7388C75.3525 33.1878 78.4867 29.1521 83.7246 29.1521C88.9626 29.1521 92.2685 33.102 92.7837 37.7388C92.7837 37.9106 92.6978 38.0823 92.5261 38.0823H75.052C74.8803 38.0394 74.7515 37.9106 74.7944 37.7388Z" fill="#A3B1BF"/>
    </g>
    <defs>
        <clipPath id="clip0_50:1515">
            <rect width="180" height="80" fill="white" transform="translate(0.5)"/>
        </clipPath>
    </defs>
</svg>
