<svg width="181" height="80" viewBox="0 0 181 80" fill="none" xmlns="http://www.w3.org/2000/svg">
    <g clip-path="url(#clip0_50:1408)">
        <path d="M77.7572 51.9164L69.8747 29.964C69.774 29.6605 69.624 29.2599 69.624 28.9084C69.624 27.9571 70.4277 27.0538 71.5793 27.0538C72.5846 27.0538 73.2396 27.7064 73.5395 28.6577L80.0712 47.5751L86.6497 28.6097C86.9496 27.71 87.553 27.0574 88.5522 27.0574H88.7562C89.813 27.0574 90.4656 27.71 90.7655 28.6097L97.29 47.5751L103.925 28.5617C104.176 27.7544 104.724 27.0562 105.782 27.0562C106.885 27.0562 107.69 27.9055 107.69 28.8616C107.69 29.2119 107.538 29.6113 107.44 29.9172L99.5068 51.9176C99.1014 53.0668 98.3012 53.6702 97.3956 53.6702H97.2456C96.2404 53.6702 95.4858 53.0668 95.132 51.9176L88.6578 33.2641L82.1273 51.9176C81.7758 53.0668 81.0201 53.6702 80.0184 53.6702H79.9128C78.9616 53.6702 78.1615 53.0668 77.7572 51.9176" fill="#A3B1BF"/>
        <path d="M135.217 29.0043C135.217 27.9451 136.071 27.0406 137.126 27.0406C138.238 27.0406 139.09 27.8959 139.09 29.0043V33.4584C140.999 29.1327 145.235 27.091 148.042 27.091C149.204 27.091 149.959 27.9451 149.959 29.0511C149.959 30.1091 149.258 30.8601 148.244 31.0112C143.211 31.6146 139.091 35.3897 139.091 42.8871V51.7076C139.091 52.7644 138.287 53.6677 137.181 53.6677C136.074 53.6677 135.218 52.8088 135.218 51.7076L135.217 28.9995V29.0043Z" fill="#A3B1BF"/>
        <path d="M162.447 53.9556C155.445 53.9556 149.731 48.5251 149.731 40.5562V40.4531C149.731 33.036 154.909 27.0657 161.955 27.0657C169.492 27.0657 173.784 33.2844 173.784 40.1052C173.784 41.1536 172.939 41.9034 172.008 41.9034H153.582C154.12 47.4754 158.011 50.6111 162.551 50.6111C165.707 50.6111 168.017 49.366 169.893 47.623C170.189 47.3771 170.533 47.1779 170.98 47.1779C171.913 47.1779 172.655 47.9253 172.655 48.825C172.655 49.2712 172.459 49.721 172.059 50.0653C169.647 52.4033 166.785 53.952 162.451 53.952L162.447 53.9556ZM169.991 39.0651C169.595 34.3808 166.932 30.3022 161.854 30.3022C157.418 30.3022 154.067 34.0341 153.58 39.0651H169.991Z" fill="#A3B1BF"/>
        <path d="M107.867 45.9183V45.8176C107.867 40.3523 112.382 37.4397 118.95 37.4397C122.262 37.4397 124.618 37.8907 126.929 38.5469V37.64C126.929 32.9796 124.062 30.5685 119.203 30.5685C116.594 30.5685 115.075 30.9008 113.165 31.7513C112.918 31.852 112.665 31.9036 112.469 31.9036C111.566 31.9036 110.76 31.1491 110.76 30.2482C110.76 29.4481 111.109 28.9526 111.816 28.6396C114.37 27.5311 116.295 27.1629 119.603 27.1629C123.262 27.1629 126.072 28.1129 127.974 30.0203C129.733 31.7753 130.636 34.2824 130.636 37.5944V51.9055C130.636 53.0055 129.833 53.8104 128.774 53.8104C127.675 53.8104 126.93 53.0067 126.93 52.005V49.5315C125.122 51.8935 122.109 53.9963 117.555 53.9963C112.737 53.9927 107.867 51.2373 107.867 45.9207V45.9183ZM126.976 43.9138V41.4055C125.066 40.8549 122.505 40.3019 119.348 40.3019C114.49 40.3019 111.777 42.4108 111.777 45.6676V45.7672C111.777 49.0265 114.783 50.9326 118.298 50.9326C123.061 50.9326 126.976 48.0224 126.976 43.9138Z" fill="#A3B1BF"/>
        <path d="M7.58136 28.7644C6.73205 26.9026 4.63278 26.0593 2.67267 26.9302C0.710148 27.8023 -0.0120016 29.9784 0.87449 31.8413L9.10483 49.7271C10.3992 52.5305 11.7631 54 14.323 54C17.0581 54 18.2504 52.3998 19.5436 49.7271C19.5436 49.7271 26.7219 34.0965 26.7939 33.9286C26.867 33.763 27.0974 33.258 27.8279 33.2628C28.4457 33.2664 28.9651 33.7594 28.9651 34.4216V49.7043C28.9651 52.0603 30.2715 53.9928 32.7858 53.9928C35.2977 53.9928 36.6556 52.0603 36.6556 49.7043V37.1926C36.6556 34.7803 38.3842 33.2148 40.7402 33.2148C43.0962 33.2148 44.6641 34.8367 44.6641 37.1926V49.7043C44.6641 52.0603 45.9752 53.9928 48.4847 53.9928C50.9967 53.9928 52.3618 52.0603 52.3618 49.7043V37.1926C52.3618 34.7803 54.0832 33.2148 56.4404 33.2148C58.7927 33.2148 60.3666 34.8367 60.3666 37.1926V49.7043C60.3666 52.0603 61.6765 53.9928 64.1885 53.9928C66.6992 53.9928 68.0619 52.0603 68.0619 49.7043V35.4652C68.0619 30.2339 63.855 26.5691 58.7927 26.5691C53.7365 26.5691 50.5696 30.0671 50.5696 30.0671C48.8866 27.8851 46.5666 26.5739 42.6404 26.5739C38.497 26.5739 34.8707 30.0671 34.8707 30.0671C33.1865 27.8851 30.3194 26.5739 27.9455 26.5739C24.2736 26.5739 21.3574 28.1886 19.5784 32.2564L14.323 44.6481L7.58136 28.7644Z" fill="#A3B1BF"/>
        <path d="M174.083 30.3238V30.3022C174.083 28.552 175.504 27.0778 177.289 27.0778C179.099 27.0778 180.5 28.5365 180.5 30.289V30.3022C180.5 32.0584 179.083 33.5327 177.289 33.5327C175.479 33.5327 174.083 32.0788 174.083 30.3238ZM179.883 30.3022V30.2938C179.883 28.8543 178.771 27.674 177.289 27.674C175.819 27.674 174.69 28.8747 174.69 30.3022V30.319C174.69 31.7549 175.806 32.9353 177.289 32.9353C178.753 32.9353 179.883 31.7369 179.883 30.3022Z" fill="#A3B1BF"/>
        <path d="M176.123 29.0042C176.123 28.8135 176.275 28.6611 176.468 28.6611H177.538C177.941 28.6611 178.252 28.7751 178.445 28.979C178.621 29.1506 178.717 29.3989 178.717 29.6868V29.6964C178.717 30.1858 178.47 30.4845 178.097 30.6416L178.57 31.2174C178.636 31.3038 178.68 31.3746 178.68 31.4801C178.68 31.6697 178.519 31.7944 178.356 31.7944C178.204 31.7944 178.101 31.7165 178.02 31.6181L177.355 30.776H176.809V31.4526C176.809 31.6433 176.661 31.7932 176.469 31.7932C176.276 31.7932 176.124 31.6421 176.124 31.4526V29.0042H176.123ZM177.5 30.1702C177.833 30.1702 178.017 29.9963 178.017 29.7312V29.7204C178.017 29.4313 177.82 29.2753 177.488 29.2753H176.805V30.169H177.5V30.1702Z" fill="#A3B1BF"/>
    </g>
    <defs>
        <clipPath id="clip0_50:1408">
            <rect width="180" height="80" fill="white" transform="matrix(1 0 0 -1 0.5 80)"/>
        </clipPath>
    </defs>
</svg>
