<svg width="180" height="80" viewBox="0 0 180 80" fill="none" xmlns="http://www.w3.org/2000/svg">
    <path d="M77.257 51.9164L69.3745 29.964C69.2737 29.6605 69.1238 29.2599 69.1238 28.9084C69.1238 27.9571 69.9275 27.0538 71.0791 27.0538C72.0843 27.0538 72.7393 27.7064 73.0392 28.6577L79.5709 47.5751L86.1495 28.6097C86.4494 27.71 87.0527 27.0574 88.052 27.0574H88.2559C89.3128 27.0574 89.9653 27.71 90.2652 28.6097L96.7898 47.5751L103.425 28.5617C103.675 27.7544 104.224 27.0562 105.282 27.0562C106.385 27.0562 107.19 27.9055 107.19 28.8616C107.19 29.2119 107.038 29.6113 106.939 29.9172L99.0066 51.9176C98.6011 53.0668 97.801 53.6702 96.8953 53.6702H96.7454C95.7401 53.6702 94.9856 53.0668 94.6317 51.9176L88.1576 33.2641L81.627 51.9176C81.2756 53.0668 80.5198 53.6702 79.5182 53.6702H79.4126C78.4613 53.6702 77.6612 53.0668 77.257 51.9176" fill="#696566"/>
    <path d="M134.717 29.0043C134.717 27.9451 135.571 27.0406 136.626 27.0406C137.738 27.0406 138.589 27.8959 138.589 29.0043V33.4584C140.499 29.1327 144.735 27.091 147.542 27.091C148.704 27.091 149.459 27.9451 149.459 29.0511C149.459 30.1091 148.758 30.8601 147.743 31.0112C142.711 31.6146 138.59 35.3897 138.59 42.8871V51.7076C138.59 52.7644 137.787 53.6677 136.681 53.6677C135.574 53.6677 134.718 52.8088 134.718 51.7076L134.717 28.9995V29.0043Z" fill="#696566"/>
    <path d="M161.947 53.9557C154.945 53.9557 149.232 48.5252 149.232 40.5564V40.4532C149.232 33.0362 154.409 27.0658 161.455 27.0658C168.992 27.0658 173.285 33.2845 173.285 40.1053C173.285 41.1537 172.439 41.9035 171.508 41.9035H153.082C153.62 47.4755 157.511 50.6113 162.052 50.6113C165.208 50.6113 167.517 49.3661 169.393 47.6231C169.689 47.3772 170.034 47.178 170.48 47.178C171.413 47.178 172.156 47.9254 172.156 48.8251C172.156 49.2713 171.959 49.7212 171.56 50.0654C169.147 52.4034 166.285 53.9521 161.951 53.9521L161.947 53.9557ZM169.491 39.0653C169.096 34.3809 166.433 30.3023 161.355 30.3023C156.919 30.3023 153.567 34.0342 153.08 39.0653H169.491Z" fill="#696566"/>
    <path d="M107.367 45.9185V45.8177C107.367 40.3524 111.882 37.4398 118.45 37.4398C121.762 37.4398 124.118 37.8909 126.429 38.547V37.6401C126.429 32.9798 123.562 30.5686 118.703 30.5686C116.094 30.5686 114.575 30.9009 112.665 31.7514C112.418 31.8522 112.165 31.9037 111.969 31.9037C111.066 31.9037 110.26 31.1492 110.26 30.2483C110.26 29.4482 110.609 28.9528 111.316 28.6397C113.87 27.5313 115.795 27.163 119.103 27.163C122.762 27.163 125.572 28.1131 127.474 30.0204C129.233 31.7754 130.136 34.2825 130.136 37.5946V51.9056C130.136 53.0056 129.333 53.8105 128.274 53.8105C127.175 53.8105 126.43 53.0068 126.43 52.0052V49.5316C124.622 51.8936 121.609 53.9965 117.055 53.9965C112.237 53.9929 107.367 51.2374 107.367 45.9209V45.9185ZM126.476 43.914V41.4056C124.566 40.855 122.005 40.302 118.848 40.302C113.99 40.302 111.277 42.4109 111.277 45.6678V45.7673C111.277 49.0266 114.283 50.9327 117.798 50.9327C122.561 50.9327 126.476 48.0225 126.476 43.914Z" fill="#696566"/>
    <path d="M7.08136 28.7644C6.23205 26.9026 4.13278 26.0593 2.17267 26.9302C0.210148 27.8023 -0.512002 29.9784 0.37449 31.8413L8.60483 49.7271C9.89918 52.5305 11.2631 54 13.823 54C16.5581 54 17.7504 52.3998 19.0436 49.7271C19.0436 49.7271 26.2219 34.0965 26.2939 33.9286C26.367 33.763 26.5974 33.258 27.3279 33.2628C27.9457 33.2664 28.4651 33.7594 28.4651 34.4216V49.7043C28.4651 52.0603 29.7715 53.9928 32.2858 53.9928C34.7977 53.9928 36.1556 52.0603 36.1556 49.7043V37.1926C36.1556 34.7803 37.8842 33.2148 40.2402 33.2148C42.5962 33.2148 44.1641 34.8367 44.1641 37.1926V49.7043C44.1641 52.0603 45.4752 53.9928 47.9847 53.9928C50.4967 53.9928 51.8618 52.0603 51.8618 49.7043V37.1926C51.8618 34.7803 53.5832 33.2148 55.9404 33.2148C58.2927 33.2148 59.8666 34.8367 59.8666 37.1926V49.7043C59.8666 52.0603 61.1765 53.9928 63.6885 53.9928C66.1992 53.9928 67.5619 52.0603 67.5619 49.7043V35.4652C67.5619 30.2339 63.355 26.5691 58.2927 26.5691C53.2365 26.5691 50.0696 30.0671 50.0696 30.0671C48.3866 27.8851 46.0666 26.5739 42.1404 26.5739C37.997 26.5739 34.3707 30.0671 34.3707 30.0671C32.6865 27.8851 29.8194 26.5739 27.4455 26.5739C23.7736 26.5739 20.8574 28.1886 19.0784 32.2564L13.823 44.6481L7.08136 28.7644Z" fill="#696566"/>
    <path d="M173.583 30.3238V30.3022C173.583 28.552 175.004 27.0778 176.789 27.0778C178.599 27.0778 180 28.5365 180 30.289V30.3022C180 32.0584 178.583 33.5327 176.789 33.5327C174.979 33.5327 173.583 32.0788 173.583 30.3238ZM179.383 30.3022V30.2938C179.383 28.8543 178.271 27.674 176.789 27.674C175.319 27.674 174.19 28.8747 174.19 30.3022V30.319C174.19 31.7549 175.306 32.9353 176.789 32.9353C178.253 32.9353 179.383 31.7369 179.383 30.3022Z" fill="#696566"/>
    <path d="M175.623 29.0042C175.623 28.8135 175.775 28.6611 175.968 28.6611H177.038C177.441 28.6611 177.752 28.7751 177.945 28.979C178.121 29.1506 178.217 29.3989 178.217 29.6868V29.6964C178.217 30.1858 177.97 30.4845 177.597 30.6416L178.07 31.2174C178.136 31.3038 178.18 31.3746 178.18 31.4801C178.18 31.6697 178.019 31.7944 177.856 31.7944C177.704 31.7944 177.601 31.7165 177.52 31.6181L176.855 30.776H176.309V31.4526C176.309 31.6433 176.161 31.7932 175.969 31.7932C175.776 31.7932 175.624 31.6421 175.624 31.4526V29.0042H175.623ZM177 30.1702C177.333 30.1702 177.517 29.9963 177.517 29.7312V29.7204C177.517 29.4313 177.32 29.2753 176.988 29.2753H176.305V30.169H177V30.1702Z" fill="#696566"/>
</svg>
