<svg width="195" height="50" viewBox="0 0 195 50" fill="none" xmlns="http://www.w3.org/2000/svg">
    <path d="M4.12051 49.9753C3.30314 49.5971 2.51618 49.1562 1.76673 48.6567C1.18894 48.2017 0.727791 47.6157 0.421362 46.9471C0.114933 46.2785 -0.0279592 45.5466 0.00452115 44.8119C0.00452115 38.6503 0.00452115 32.575 0.00452115 26.4504C0.00290086 25.7917 0.131014 25.1392 0.381573 24.5301C0.632132 23.9209 1.00023 23.3671 1.46482 22.9002C1.92941 22.4334 2.48141 22.0625 3.08931 21.8089C3.69721 21.5554 4.34909 21.4241 5.00774 21.4225C9.13601 21.4964 13.2643 21.4225 17.3925 21.4225V23.1354H5.43902C4.96233 23.0941 4.48235 23.1556 4.03153 23.3159C3.5807 23.4763 3.16961 23.7316 2.82606 24.0646C2.4825 24.3977 2.21447 24.8006 2.04021 25.2463C1.86596 25.6919 1.78949 26.1698 1.816 26.6475C1.816 26.7954 1.816 26.9433 1.816 27.0911V44.0602C1.7455 44.9418 1.94774 45.8237 2.39523 46.5865C2.7192 47.0788 3.16555 47.4785 3.6905 47.7463C4.21546 48.0142 4.801 48.1411 5.38976 48.1145H8.05161C12.9809 48.1145 17.9102 48.1145 22.8395 48.1145C23.6622 48.121 24.4757 47.9398 25.2178 47.5846C25.7588 47.2891 26.2026 46.8432 26.4957 46.3009C26.7887 45.7585 26.9184 45.143 26.8691 44.5285C26.8691 41.842 26.8691 39.1433 26.8691 36.4568H28.6067C28.6067 39.2295 28.6067 42.0023 28.6067 44.7873C28.6409 45.8696 28.3246 46.934 27.7051 47.8222C27.0856 48.7103 26.196 49.3748 25.1685 49.7166C25.0201 49.7912 24.8832 49.8866 24.7619 50L4.12051 49.9753Z" fill="white"/>
    <path d="M17.3924 23.1847V20.2764C16.3572 20.2764 15.3344 20.2025 14.3239 20.2764C13.8658 20.3127 13.4052 20.25 12.9734 20.0926C12.5416 19.9353 12.1488 19.6868 11.8215 19.3642C11.4942 19.0416 11.2401 18.6523 11.0766 18.2229C10.913 17.7934 10.8437 17.3338 10.8734 16.8752C10.9966 13.7944 10.8734 10.7135 10.8734 7.6081C10.8532 7.19403 10.9179 6.78023 11.0633 6.39203C11.2088 6.00383 11.432 5.64945 11.7193 5.3506C12.0067 5.05175 12.352 4.81475 12.7342 4.65411C13.1164 4.49348 13.5273 4.41259 13.9419 4.41643C17.0843 4.35482 20.239 4.41643 23.3814 4.41643C23.8076 4.40566 24.2315 4.48313 24.6264 4.64396C25.0212 4.80478 25.3785 5.04548 25.6759 5.35098C25.9733 5.65648 26.2044 6.02015 26.3545 6.41918C26.5047 6.81821 26.5707 7.24393 26.5485 7.6697C26.5485 9.27172 26.5485 10.8861 26.5485 12.599H30.837C30.837 12.3156 30.9232 11.9951 30.9355 11.6747C30.9355 9.2101 30.9355 6.86874 30.9355 4.47803C30.9365 3.74402 31.135 3.02379 31.5101 2.39285C31.8852 1.76191 32.4232 1.24347 33.0675 0.891938C34.0129 0.291048 35.1146 -0.0175536 36.2346 0.00470323C42.1004 0.00470323 47.9539 0.00470323 53.8074 0.00470323C54.5231 -0.0255747 55.2376 0.0905817 55.9068 0.346104C56.5761 0.601626 57.1861 0.991149 57.6995 1.49072C58.2129 1.9903 58.6189 2.58942 58.8926 3.25143C59.1663 3.91344 59.302 4.62439 59.2913 5.34067C59.2913 11.2312 59.2913 17.1093 59.2913 22.9875C59.341 23.9127 59.1379 24.834 58.7037 25.6525C58.2695 26.4709 57.6206 27.1557 56.8266 27.6333C56.1234 28.0649 55.3101 28.2833 54.4853 28.2618H41.3363V30.2582H39.266C39.266 29.605 39.4632 28.9149 39.1058 28.2618C37.8735 28.2618 36.6412 28.1632 35.4089 28.2618C33.4988 28.4467 30.874 25.7971 30.9726 23.8501C31.1081 21.2622 30.9726 18.662 30.9726 16.0741V15.1869C30.9838 15.0892 30.9732 14.9902 30.9416 14.8971C30.9101 14.804 30.8583 14.719 30.7899 14.6483C30.7216 14.5776 30.6384 14.5229 30.5464 14.4882C30.4544 14.4534 30.3558 14.4395 30.2578 14.4475H27.3125C27.2142 14.4355 27.1144 14.4461 27.0208 14.4785C26.9271 14.5108 26.8421 14.564 26.772 14.6341C26.702 14.7041 26.6488 14.7892 26.6165 14.8828C26.5842 14.9765 26.5736 15.0762 26.5855 15.1746C26.5855 15.914 26.5855 16.6533 26.5855 17.3804C26.6026 17.9391 26.4458 18.4894 26.1368 18.9552C25.8277 19.4209 25.3817 19.7793 24.8602 19.9806C24.3608 20.1582 23.8371 20.2579 23.3075 20.2764C21.9519 20.375 20.5841 20.1654 19.2162 20.3873V23.197C19.2162 26.0806 19.2162 28.9766 19.2162 31.8232C19.1906 32.1999 19.246 32.5777 19.3789 32.9311C19.5118 33.2844 19.719 33.6051 19.9866 33.8715C20.2541 34.1379 20.5758 34.3437 20.9297 34.4751C21.2837 34.6064 21.6617 34.6602 22.0382 34.6329H32.7471V36.4568H26.8936C25.1314 36.4568 23.3568 36.3459 21.5946 36.4568C20.507 36.3791 19.484 35.9111 18.7141 35.1389C17.9442 34.3668 17.4792 33.3424 17.4047 32.2545C17.5033 29.2723 17.4047 26.2162 17.3924 23.1847ZM32.7718 12.636C34.2382 12.636 35.5075 12.636 36.7891 12.636C37.9137 12.657 38.9901 13.0964 39.8083 13.8683C40.317 14.3342 40.715 14.908 40.973 15.5477C41.231 16.1874 41.3425 16.8768 41.2994 17.5653C41.2994 20.1531 41.2994 22.7533 41.2994 25.3412C41.2994 25.7109 41.2994 26.0806 41.361 26.5735C45.8343 26.5735 50.1968 26.5735 54.5715 26.5735C55.2934 26.5012 55.9657 26.1734 56.4673 25.6492C56.9689 25.125 57.2668 24.4389 57.3072 23.7145C57.3072 17.4544 57.3072 11.1942 57.3072 4.92165C57.3253 4.23542 57.08 3.56834 56.6217 3.0573C56.1633 2.54626 55.5267 2.23004 54.8426 2.1736C53.7348 2.02978 52.6199 1.94748 51.503 1.92712C47.1324 1.92712 42.7577 1.92712 38.3788 1.92712C37.3602 1.948 36.3437 2.03032 35.3349 2.1736C34.6605 2.23233 34.0328 2.54236 33.5763 3.04226C33.1197 3.54215 32.8677 4.1954 32.8703 4.87239C32.7347 7.3247 32.7718 9.91256 32.7718 12.636ZM24.7986 12.636C24.7986 10.96 24.7986 9.44428 24.7986 7.94085C24.7986 6.83176 24.4289 6.44972 23.3198 6.44972C20.2801 6.44972 17.2363 6.44972 14.1884 6.44972C13.0916 6.44972 12.7219 6.83176 12.7096 7.94085C12.7096 10.8738 12.7096 13.8067 12.7096 16.7396C12.6859 16.9689 12.7124 17.2006 12.7872 17.4186C12.8621 17.6366 12.9834 17.8357 13.1428 18.0022C13.3022 18.1687 13.4959 18.2985 13.7105 18.3826C13.9251 18.4668 14.1554 18.5032 14.3855 18.4895C15.0263 18.4895 15.6178 18.4895 16.2956 18.4895C17.3184 18.4895 17.3677 18.3909 17.4294 17.4174C17.4259 16.7958 17.492 16.1758 17.6265 15.5689C17.9131 14.68 18.4852 13.9105 19.254 13.3802C20.0228 12.8498 20.9453 12.5882 21.878 12.636H24.7986ZM32.9812 14.6694C32.8827 14.7926 32.821 14.8295 32.821 14.8665C32.821 17.8487 32.821 20.8186 32.821 23.7885C32.9157 24.4381 33.2114 25.0419 33.6667 25.5149C34.122 25.9879 34.714 26.3064 35.3596 26.4257C36.6774 26.5302 38.0024 26.5055 39.3154 26.3517C39.3154 23.1107 39.3154 19.9436 39.3154 16.7766C39.3132 16.2405 39.1067 15.7255 38.7381 15.3363C38.3695 14.9471 37.8664 14.713 37.3313 14.6816C35.8279 14.6446 34.3614 14.6694 32.9689 14.6694H32.9812ZM24.7986 14.4352C23.8128 14.4352 23.0241 14.3736 22.2477 14.4352C21.0154 14.5338 19.7831 14.7926 19.3518 16.1851C19.1361 16.9339 19.1361 17.7284 19.3518 18.4772C20.695 18.4772 21.9766 18.4772 23.2459 18.4772C24.5152 18.4772 24.811 18.0212 24.8356 16.8875C24.811 16.1235 24.7986 15.3471 24.7986 14.4845V14.4352Z" fill="white"/>
    <path d="M39.2667 30.2336H41.337H45.3175C45.7567 30.1973 46.1985 30.256 46.613 30.4058C47.0275 30.5556 47.4049 30.7929 47.7194 31.1016C48.034 31.4103 48.2783 31.7831 48.4359 32.1947C48.5934 32.6063 48.6604 33.047 48.6324 33.4868C48.6324 36.0378 48.6324 38.5763 48.6324 41.1149C48.6326 41.9849 48.5708 42.8539 48.4475 43.7151C48.3234 44.3675 47.9741 44.9557 47.4606 45.3769C46.947 45.7981 46.302 46.0255 45.6379 46.0196C42.3969 46.0196 39.1558 46.0196 35.9148 46.0196C35.4863 46.0311 35.0602 45.9526 34.6639 45.7893C34.2675 45.626 33.9098 45.3815 33.6137 45.0715C33.3177 44.7615 33.0899 44.3929 32.945 43.9895C32.8001 43.5861 32.7413 43.1568 32.7724 42.7293C32.7724 40.622 32.7724 38.5271 32.7724 36.4321V34.6083C32.7724 34.2633 32.7724 33.9182 32.7724 33.5855C32.7365 33.1313 32.8001 32.6748 32.9589 32.2478C33.1177 31.8208 33.3677 31.4336 33.6916 31.1133C34.0154 30.7929 34.4054 30.5472 34.8341 30.3931C35.2628 30.239 35.7199 30.1804 36.1736 30.2212L39.2667 30.2336ZM39.2667 32.1067C38.2439 32.1067 37.2087 32.1067 36.1859 32.1067C35.9675 32.0898 35.748 32.1222 35.5437 32.2014C35.3394 32.2805 35.1555 32.4044 35.0053 32.564C34.8552 32.7235 34.7427 32.9148 34.6762 33.1236C34.6097 33.3323 34.5908 33.5533 34.6209 33.7703C34.6509 34.1011 34.717 34.4275 34.8181 34.7438V36.4321C34.7564 37.4426 34.6579 38.4532 34.6209 39.476C34.584 40.4988 34.6209 41.534 34.6209 42.5568C34.6949 43.863 35.0152 44.1465 36.3461 44.1465H45.1818C46.4142 44.1465 46.6853 43.8384 46.6853 42.6923C46.6853 39.6608 46.6853 36.6416 46.6853 33.6101C46.6853 32.5134 46.2909 32.119 45.1818 32.1067C44.0728 32.0943 42.6433 32.1067 41.3617 32.1067H39.2667Z" fill="white"/>
    <path d="M26.8943 34.6699C26.8943 32.1313 26.8943 29.605 26.8327 27.0788C26.8285 26.5998 26.7622 26.1235 26.6354 25.6616C26.4985 24.9332 26.0993 24.2801 25.5135 23.826C24.9276 23.3718 24.1957 23.1481 23.4561 23.197C22.0389 23.197 20.6218 23.197 19.2046 23.197V21.4964C20.782 21.4964 22.3593 21.4964 23.9243 21.4964C25.1364 21.5142 26.2957 21.9953 27.1642 22.8409C28.0327 23.6865 28.5446 24.8325 28.5949 26.0437C28.7674 28.9273 28.5949 31.8232 28.5949 34.6699H26.8943Z" fill="white"/>
    <path d="M41.3489 32.119C41.2366 33.0224 40.9343 33.8918 40.4617 34.6699C40.1097 35.2279 39.6195 35.6856 39.0388 35.9986C38.458 36.3116 37.8064 36.4695 37.1467 36.4568H34.793V34.7685C35.4584 34.7685 36.1362 34.7685 36.814 34.7685C37.1523 34.7922 37.4917 34.7413 37.8082 34.6194C38.1247 34.4975 38.4106 34.3076 38.6456 34.0632C38.8807 33.8187 39.0592 33.5256 39.1686 33.2046C39.278 32.8836 39.3155 32.5424 39.2786 32.2053L41.3489 32.119Z" fill="white"/>
    <path d="M194.897 35.5695H188.242V33.2404H190.201V28.459C190.201 27.9168 189.955 27.6333 189.4 27.6333H183.313C182.844 27.6333 182.549 27.8675 182.549 28.3234C182.549 29.7899 182.549 31.2564 182.549 32.7228C182.549 32.8584 182.696 32.9817 182.807 33.1542L184.459 33.2527V35.4339H177.829C177.829 35.0889 177.829 34.7069 177.829 34.3372C177.829 33.9675 177.829 33.6717 177.829 33.2158H179.874V31.9835C179.874 28.6069 179.874 25.2303 179.874 21.8414C179.874 20.3503 179.874 20.3503 178.334 20.3133H177.989C177.656 19.6972 177.891 19.081 177.829 18.317H184.545V20.301H183.695C182.672 20.301 182.586 20.4243 182.573 21.3732C182.561 22.3221 182.573 23.3325 182.573 24.3061C182.573 25.2796 182.734 25.2303 183.535 25.2426H189.142C190.053 25.2426 190.164 25.1194 190.177 24.2445C190.189 23.3695 190.177 22.2851 190.177 21.2993C190.177 20.3134 190.066 20.3503 189.129 20.301H188.698L188.205 20.2271V18.1815H194.934V20.2394H194.49C192.875 20.2394 192.875 20.2394 192.875 21.8414V31.9588C192.875 32.3285 192.875 32.6982 192.949 33.1911H194.934L194.897 35.5695Z" fill="white"/>
    <path d="M82.0653 20.129V18.2805H84.3451V23.1112H81.7202C80.9433 22.46 80.1196 21.8669 79.2556 21.3366C78.3167 20.8146 77.2577 20.547 76.1835 20.5605C75.1094 20.574 74.0574 20.8681 73.132 21.4137C72.2066 21.9592 71.4399 22.7372 70.9079 23.6705C70.376 24.6038 70.0973 25.66 70.0995 26.7342C70.0311 28.0368 70.3952 29.3256 71.1351 30.3998C71.875 31.4741 72.9493 32.2736 74.1908 32.674C75.4517 33.1051 76.8164 33.1275 78.0908 32.7381C79.3652 32.3487 80.4843 31.5673 81.289 30.5051C81.5741 30.0535 81.8134 29.5747 82.0036 29.0756H74.8685V26.8081H84.7271V35.4344H82.6075L82.4103 33.1669C77.4811 37.3075 72.3053 35.8287 69.471 32.8095C68.0378 31.2267 67.2198 29.1824 67.1655 27.0479C67.1112 24.9133 67.8243 22.83 69.1752 21.1764C71.911 17.8492 77.0867 16.3458 82.0653 20.129Z" fill="white"/>
    <path d="M109.176 20.1039L109.275 18.2924H111.493V23.1107H108.72C107.569 21.7081 105.924 20.7997 104.124 20.5722C102.806 20.3903 101.465 20.6689 100.328 21.3609C99.0946 22.1194 98.1518 23.2705 97.6512 24.6293C97.1506 25.9882 97.1212 27.4758 97.5678 28.8533C97.9736 30.0922 98.7685 31.1668 99.8344 31.9174C100.9 32.6679 102.18 33.0541 103.483 33.0186C104.698 33.0451 105.89 32.6846 106.887 31.989C107.884 31.2935 108.634 30.2989 109.028 29.1492H102.091C101.907 28.3407 101.87 27.5061 101.98 26.6845H111.838L111.912 26.7707C111.912 26.7707 111.998 26.8447 111.998 26.894V35.2861C111.29 35.4634 110.555 35.5094 109.829 35.4216L109.62 33.0925C104.789 37.1961 99.6012 35.8653 96.6806 32.7598C95.1929 31.1223 94.3687 28.9893 94.3687 26.7769C94.3687 24.5645 95.1929 22.4315 96.6806 20.794C99.2562 17.8734 104.296 16.37 109.176 20.1039Z" fill="white"/>
    <path d="M120.563 20.5352L118.764 20.4366V18.317C119.577 18.172 120.405 18.1347 121.228 18.2061C122.066 18.2061 122.904 18.2061 123.902 18.2061C126.059 23.1354 128.006 28.151 130.175 33.1542L132.11 33.2651V35.434H125.48V33.2897L127.279 33.1542L126.232 30.3198H119.047L117.815 33.1665L119.7 33.2651C119.858 33.9811 119.892 34.719 119.799 35.4463H113.12V33.2897L114.98 33.1542L120.563 20.5352ZM119.897 27.9291C120.933 27.9291 121.82 27.9291 122.695 27.9291C123.593 28.0124 124.498 27.9625 125.381 27.7812L122.658 21.3239L119.897 27.9291Z" fill="white"/>
    <path d="M157.902 18.317V22.5562H155.302V20.6461H150.04V25.292H155.536V27.9168H150.04V33.2527H154.538C154.636 33.2647 154.736 33.2541 154.83 33.2218C154.923 33.1895 155.008 33.1362 155.078 33.0662C155.148 32.9961 155.202 32.9111 155.234 32.8174C155.266 32.7238 155.277 32.624 155.265 32.5257C155.265 31.9465 155.265 31.2933 155.265 30.7141C156.141 30.5724 157.031 30.5434 157.914 30.6279C157.914 32.0697 157.914 33.4745 157.914 34.8671C157.925 34.9656 157.912 35.0653 157.878 35.1584C157.845 35.2515 157.79 35.3356 157.719 35.4045C157.647 35.4733 157.561 35.5252 157.467 35.5559C157.373 35.5866 157.273 35.5954 157.175 35.5818H155.943C152.8 35.5818 149.645 35.5818 146.503 35.5818C145.074 35.5818 144.876 35.5818 144.938 34.0538C144.938 33.8566 144.938 33.6594 144.938 33.4376C145.517 33.0433 146.17 33.3637 146.786 33.2035C147.055 29.035 147.08 24.8544 146.86 20.6831C146.783 20.636 146.7 20.5987 146.614 20.5722C145.16 20.5722 144.765 20.9172 144.987 18.4403C149.286 18.1438 153.598 18.1026 157.902 18.317Z" fill="white"/>
    <path d="M176.535 30.2829C174.97 34.9534 169.141 36.9743 164.631 35.015C163.466 34.5328 162.417 33.8087 161.553 32.8905C160.69 31.9724 160.031 30.8812 159.621 29.6892C159.211 28.4973 159.059 27.2317 159.174 25.9765C159.29 24.7213 159.672 23.5051 160.293 22.4083C160.944 21.3073 161.819 20.3544 162.859 19.6105C163.9 18.8666 165.085 18.3482 166.338 18.0884C167.59 17.8285 168.884 17.8331 170.134 18.1016C171.385 18.3702 172.566 18.8968 173.602 19.6479L173.701 18.2801H175.919V23.5051C175.57 23.4866 175.22 23.4866 174.871 23.5051C174.511 23.5723 174.138 23.5335 173.799 23.3936C173.46 23.2536 173.169 23.0184 172.961 22.7164C172.347 21.8802 171.484 21.2592 170.496 20.9419C166.984 19.7835 163.682 21.0774 162.4 24.7128C162.092 25.4821 161.947 26.3067 161.972 27.1349C161.998 27.9632 162.195 28.7771 162.55 29.5258C162.905 30.2744 163.411 30.9416 164.037 31.4854C164.662 32.0292 165.393 32.4379 166.183 32.6859C168.352 33.3514 170.706 33.3637 172.444 31.5152C172.826 31.047 173.323 30.687 173.888 30.4708C174.452 30.2546 175.063 30.1898 175.66 30.2829C175.951 30.3033 176.244 30.3033 176.535 30.2829Z" fill="white"/>
    <path d="M133.49 20.6461V23.1107C133.059 23.1107 132.689 23.1847 132.258 23.197H131.148V18.3663C135.435 18.074 139.735 18.0328 144.026 18.243C144.026 19.8204 144.026 21.4224 144.026 23.0737C143.259 23.2215 142.476 23.2672 141.697 23.2093V20.6461H139.232C138.925 24.8376 138.892 29.0446 139.134 33.2404H140.724V35.4339H134.353V33.2404L136.028 33.0925V20.6461H133.49Z" fill="white"/>
    <path d="M86.3169 20.4243V18.1815C87.389 18.1815 88.4982 18.1815 89.6073 18.1815H92.8852C93.1933 18.9085 92.8853 19.6233 93.0824 20.3996L91.3695 20.4859C91.0349 24.6882 90.9896 28.9086 91.2339 33.1172L92.9715 33.2404V35.4339C91.8725 35.5759 90.7625 35.613 89.6565 35.5449C88.5844 35.5449 87.5 35.5449 86.3663 35.5449C86.2261 34.7894 86.1805 34.0194 86.2307 33.2527H88.2147V20.5475L86.3169 20.4243Z" fill="white"/>
</svg>
