<svg width="48" height="48" viewBox="0 0 48 48" fill="none" xmlns="http://www.w3.org/2000/svg">
    <path d="M18.8011 5C18.0187 5 17.3039 5.56171 17.0796 6.05682C16.8552 6.55193 16.8921 7.07244 16.8921 7.01136V10.1136H1.09092C1.05685 10.112 1.02272 10.112 0.988646 10.1136C0.717403 10.1392 0.46554 10.2653 0.282588 10.4672C0.0996358 10.6691 -0.0011646 10.9321 1.01537e-05 11.2045V42.0909C3.90812e-05 42.3802 0.114983 42.6577 0.319562 42.8623C0.524141 43.0668 0.801601 43.1818 1.09092 43.1818H46.9091C47.1984 43.1818 47.4759 43.0668 47.6804 42.8623C47.885 42.6577 48 42.3802 48 42.0909V11.2045C48 10.9152 47.885 10.6378 47.6804 10.4332C47.4759 10.2286 47.1984 10.1137 46.9091 10.1136H19.0739V7.18182H28.9261V7.86364C28.9241 8.00819 28.9508 8.15172 29.0047 8.28586C29.0586 8.42001 29.1386 8.54211 29.2401 8.64506C29.3417 8.748 29.4626 8.82975 29.596 8.88555C29.7293 8.94135 29.8725 8.97008 30.017 8.97008C30.1616 8.97008 30.3048 8.94135 30.4381 8.88555C30.5715 8.82975 30.6924 8.748 30.794 8.64506C30.8955 8.54211 30.9755 8.42001 31.0294 8.28586C31.0833 8.15172 31.11 8.00819 31.108 7.86364V7.01136C31.108 7.07275 31.1448 6.55196 30.9205 6.05682C30.6961 5.56168 29.9813 5 29.1989 5H18.8011ZM3.13637 12.2955H45.8182V41H2.18183V14.8011L7.92615 23.4432C8.02633 23.5904 8.16105 23.7109 8.31853 23.7941C8.476 23.8773 8.65145 23.9207 8.82955 23.9205H15.5284C15.673 23.9225 15.8165 23.8958 15.9506 23.8419C16.0848 23.788 16.2069 23.7079 16.3098 23.6064C16.4128 23.5049 16.4945 23.384 16.5503 23.2506C16.6061 23.1172 16.6349 22.9741 16.6349 22.8295C16.6349 22.685 16.6061 22.5418 16.5503 22.4085C16.4945 22.2751 16.4128 22.1541 16.3098 22.0526C16.2069 21.9511 16.0848 21.8711 15.9506 21.8172C15.8165 21.7633 15.673 21.7366 15.5284 21.7386H9.42614L3.13637 12.2955ZM43.1761 15.6705C42.9978 15.6767 42.8238 15.7266 42.6693 15.8158C42.5148 15.9049 42.3844 16.0306 42.2898 16.1818L38.5739 21.7386H30.1193V20.0511C30.1193 19.7618 30.0043 19.4844 29.7998 19.2798C29.5952 19.0752 29.3177 18.9603 29.0284 18.9602H18.9716C18.6823 18.9603 18.4048 19.0752 18.2002 19.2798C17.9957 19.4844 17.8807 19.7618 17.8807 20.0511V25.608C17.8807 25.8973 17.9957 26.1747 18.2002 26.3793C18.4048 26.5839 18.6823 26.6988 18.9716 26.6989H29.0284C29.3177 26.6988 29.5952 26.5839 29.7998 26.3793C30.0043 26.1747 30.1193 25.8973 30.1193 25.608V23.9205H39.1705C39.3486 23.9207 39.524 23.8773 39.6815 23.7941C39.839 23.7109 39.9737 23.5904 40.0739 23.4432L44.0966 17.392C44.2138 17.2267 44.2827 17.0319 44.2954 16.8296C44.3082 16.6273 44.2643 16.4254 44.1687 16.2466C44.0731 16.0679 43.9296 15.9193 43.7543 15.8175C43.579 15.7157 43.3788 15.6648 43.1761 15.6705ZM20.0625 21.142H27.9375V24.517H20.0625V21.142Z" fill="#49A3D1"/>
</svg>
