<svg width="48" height="48" viewBox="0 0 48 48" fill="none" xmlns="http://www.w3.org/2000/svg">
    <path d="M24.143 0.00655693C23.872 0.0363375 23.622 0.166551 23.4423 0.371534C23.2625 0.576516 23.166 0.841396 23.1719 1.11397V3.17545H20.1734C20.1393 3.17386 20.1052 3.17386 20.0712 3.17545C19.8001 3.201 19.5483 3.32707 19.3654 3.52884C19.1826 3.73062 19.0818 3.99352 19.083 4.26583V8.61028C19.081 8.75477 19.1077 8.89822 19.1615 9.0323C19.2154 9.16638 19.2954 9.28842 19.3969 9.39132C19.4983 9.49421 19.6192 9.57592 19.7525 9.63169C19.8858 9.68746 20.0289 9.71618 20.1734 9.71618C20.3179 9.71618 20.4609 9.68746 20.5943 9.63169C20.7276 9.57592 20.8484 9.49421 20.9499 9.39132C21.0514 9.28842 21.1313 9.16638 21.1852 9.0323C21.2391 8.89822 21.2658 8.75477 21.2638 8.61028V5.3562H27.2608V8.61028C27.2588 8.75477 27.2855 8.89822 27.3393 9.0323C27.3932 9.16638 27.4732 9.28842 27.5747 9.39132C27.6761 9.49421 27.797 9.57592 27.9303 9.63169C28.0636 9.68746 28.2067 9.71618 28.3512 9.71618C28.4957 9.71618 28.6387 9.68746 28.772 9.63169C28.9054 9.57592 29.0262 9.49421 29.1277 9.39132C29.2292 9.28842 29.3091 9.16638 29.363 9.0323C29.4169 8.89822 29.4436 8.75477 29.4416 8.61028V4.26583C29.4415 3.97665 29.3266 3.69933 29.1222 3.49485C28.9177 3.29037 28.6404 3.17548 28.3512 3.17545H25.3527V1.11397C25.356 0.958746 25.3262 0.8046 25.2651 0.66184C25.2041 0.51908 25.1133 0.390997 24.9988 0.286159C24.8843 0.18132 24.7487 0.102144 24.6011 0.0539252C24.4535 0.00570633 24.2973 -0.0104431 24.143 0.00655693ZM14.7386 6.15694C14.4674 6.18249 14.2157 6.30855 14.0328 6.51033C13.85 6.71211 13.7492 6.97501 13.7504 7.24731V45.8193H5.18076V40.7081H7.92373C8.06821 40.7102 8.21167 40.6835 8.34575 40.6296C8.47983 40.5757 8.60186 40.4957 8.70476 40.3943C8.80766 40.2928 8.88937 40.1719 8.94514 40.0386C9.00091 39.9053 9.02962 39.7623 9.02962 39.6178C9.02962 39.4733 9.00091 39.3302 8.94514 39.1969C8.88937 39.0636 8.80766 38.9427 8.70476 38.8412C8.60186 38.7398 8.47983 38.6598 8.34575 38.6059C8.21167 38.552 8.06821 38.5253 7.92373 38.5274H5.18076V36.1081H7.92373C8.06821 36.1102 8.21167 36.0835 8.34575 36.0296C8.47983 35.9757 8.60186 35.8957 8.70476 35.7943C8.80766 35.6928 8.88937 35.5719 8.94514 35.4386C9.00091 35.3053 9.02962 35.1623 9.02962 35.0177C9.02962 34.8732 9.00091 34.7302 8.94514 34.5969C8.88937 34.4636 8.80766 34.3427 8.70476 34.2412C8.60186 34.1398 8.47983 34.0598 8.34575 34.0059C8.21167 33.952 8.06821 33.9253 7.92373 33.9274H5.18076V26.8911H7.92373C8.06821 26.8931 8.21167 26.8664 8.34575 26.8125C8.47983 26.7587 8.60186 26.6787 8.70476 26.5772C8.80766 26.4758 8.88937 26.3549 8.94514 26.2216C9.00091 26.0883 9.02962 25.9452 9.02962 25.8007C9.02962 25.6562 9.00091 25.5131 8.94514 25.3798C8.88937 25.2465 8.80766 25.1256 8.70476 25.0242C8.60186 24.9227 8.47983 24.8427 8.34575 24.7888C8.21167 24.735 8.06821 24.7083 7.92373 24.7103H5.18076V22.2911H7.92373C8.06821 22.2931 8.21167 22.2664 8.34575 22.2125C8.47983 22.1586 8.60186 22.0787 8.70476 21.9772C8.80766 21.8757 8.88937 21.7549 8.94514 21.6215C9.00091 21.4882 9.02962 21.3452 9.02962 21.2007C9.02962 21.0562 9.00091 20.9131 8.94514 20.7798C8.88937 20.6465 8.80766 20.5256 8.70476 20.4242C8.60186 20.3227 8.47983 20.2427 8.34575 20.1888C8.21167 20.135 8.06821 20.1083 7.92373 20.1103H5.18076V16.8562H10.4963C10.6408 16.8583 10.7843 16.8316 10.9183 16.7777C11.0524 16.7238 11.1745 16.6438 11.2774 16.5424C11.3803 16.4409 11.462 16.32 11.5177 16.1867C11.5735 16.0534 11.6022 15.9104 11.6022 15.7659C11.6022 15.6214 11.5735 15.4783 11.5177 15.345C11.462 15.2117 11.3803 15.0908 11.2774 14.9893C11.1745 14.8879 11.0524 14.8079 10.9183 14.754C10.7843 14.7001 10.6408 14.6734 10.4963 14.6755H4.09038C4.05633 14.6739 4.02222 14.6739 3.98816 14.6755C3.71705 14.701 3.46531 14.8271 3.28245 15.0289C3.09959 15.2306 2.99884 15.4935 3.00001 15.7659V46.9096C3.00004 47.1988 3.11493 47.4761 3.3194 47.6806C3.52388 47.8851 3.80121 48 4.09038 48H44.4342C44.7234 48 45.0007 47.8851 45.2052 47.6806C45.4096 47.4761 45.5245 47.1988 45.5246 46.9096V15.7659C45.5245 15.4767 45.4096 15.1994 45.2052 14.9949C45.0007 14.7904 44.7234 14.6755 44.4342 14.6755H37.6705C37.526 14.6734 37.3825 14.7001 37.2484 14.754C37.1144 14.8079 36.9923 14.8879 36.8894 14.9893C36.7865 15.0908 36.7048 15.2117 36.6491 15.345C36.5933 15.4783 36.5646 15.6214 36.5646 15.7659C36.5646 15.9104 36.5933 16.0534 36.6491 16.1867C36.7048 16.32 36.7865 16.4409 36.8894 16.5424C36.9923 16.6438 37.1144 16.7238 37.2484 16.7777C37.3825 16.8316 37.526 16.8583 37.6705 16.8562H43.3438V20.1103H40.6008C40.4563 20.1083 40.3129 20.135 40.1788 20.1888C40.0447 20.2427 39.9227 20.3227 39.8198 20.4242C39.7169 20.5256 39.6352 20.6465 39.5794 20.7798C39.5237 20.9131 39.4949 21.0562 39.4949 21.2007C39.4949 21.3452 39.5237 21.4882 39.5794 21.6215C39.6352 21.7549 39.7169 21.8757 39.8198 21.9772C39.9227 22.0787 40.0447 22.1586 40.1788 22.2125C40.3129 22.2664 40.4563 22.2931 40.6008 22.2911H43.3438V24.7103H40.6008C40.4563 24.7083 40.3129 24.735 40.1788 24.7888C40.0447 24.8427 39.9227 24.9227 39.8198 25.0242C39.7169 25.1256 39.6352 25.2465 39.5794 25.3798C39.5237 25.5131 39.4949 25.6562 39.4949 25.8007C39.4949 25.9452 39.5237 26.0883 39.5794 26.2216C39.6352 26.3549 39.7169 26.4758 39.8198 26.5772C39.9227 26.6787 40.0447 26.7587 40.1788 26.8125C40.3129 26.8664 40.4563 26.8931 40.6008 26.8911H43.3438V33.9274H40.6008C40.5611 33.9252 40.5213 33.9252 40.4816 33.9274C40.3384 33.9352 40.1981 33.9711 40.0688 34.0332C39.9395 34.0952 39.8237 34.1821 39.728 34.2889C39.6322 34.3957 39.5585 34.5203 39.5109 34.6556C39.4633 34.7908 39.4429 34.9342 39.4507 35.0774C39.4586 35.2206 39.4945 35.3608 39.5566 35.4901C39.6186 35.6194 39.7055 35.7353 39.8123 35.831C39.9191 35.9267 40.0437 36.0004 40.179 36.048C40.3143 36.0955 40.4576 36.116 40.6008 36.1081H43.3438V38.5274H40.6008C40.5611 38.5252 40.5213 38.5252 40.4816 38.5274C40.3384 38.5352 40.1981 38.5712 40.0688 38.6332C39.9395 38.6952 39.8237 38.7821 39.728 38.8889C39.6322 38.9957 39.5585 39.1203 39.5109 39.2556C39.4633 39.3909 39.4429 39.5342 39.4507 39.6774C39.4586 39.8206 39.4945 39.9608 39.5566 40.0901C39.6186 40.2194 39.7055 40.3353 39.8123 40.431C39.9191 40.5267 40.0437 40.6004 40.179 40.648C40.3143 40.6955 40.4576 40.716 40.6008 40.7081H43.3438V45.8193H34.7742V7.24731C34.7741 6.95814 34.6592 6.68081 34.4548 6.47634C34.2503 6.27186 33.973 6.15697 33.6838 6.15694H31.7927C31.7529 6.15477 31.7131 6.15477 31.6734 6.15694C31.5302 6.16476 31.39 6.20071 31.2606 6.26273C31.1313 6.32476 31.0155 6.41164 30.9198 6.51843C30.8241 6.62522 30.7503 6.74982 30.7027 6.88512C30.6552 7.02041 30.6347 7.16375 30.6426 7.30695C30.6504 7.45015 30.6863 7.5904 30.7484 7.7197C30.8104 7.849 30.8973 7.96482 31.0041 8.06053C31.1109 8.15625 31.2355 8.22999 31.3708 8.27754C31.5061 8.3251 31.6495 8.34553 31.7927 8.33769H32.5934V13.0058H29.646C29.6119 13.0042 29.5778 13.0042 29.5438 13.0058C29.4006 13.0125 29.2601 13.0474 29.1303 13.1083C29.0006 13.1693 28.8841 13.2553 28.7876 13.3613C28.6911 13.4673 28.6164 13.5913 28.5678 13.7261C28.5191 13.861 28.4976 14.0041 28.5043 14.1473C28.511 14.2905 28.5459 14.431 28.6069 14.5608C28.6679 14.6905 28.7539 14.8069 28.8599 14.9035C28.9659 15 29.0899 15.0746 29.2248 15.1232C29.3597 15.1718 29.5028 15.1933 29.646 15.1866H32.5934V17.1459H29.646C29.6119 17.1443 29.5778 17.1443 29.5438 17.1459C29.4006 17.1525 29.2601 17.1874 29.1303 17.2484C29.0006 17.3093 28.8841 17.3953 28.7876 17.5013C28.6911 17.6073 28.6164 17.7313 28.5678 17.8661C28.5191 18.001 28.4976 18.1441 28.5043 18.2874C28.511 18.4306 28.5459 18.571 28.6069 18.7008C28.6679 18.8305 28.7539 18.947 28.8599 19.0435C28.9659 19.14 29.0899 19.2146 29.2248 19.2632C29.3597 19.3118 29.5028 19.3333 29.646 19.3266H32.5934V25.4259H29.646C29.5015 25.4238 29.3581 25.4505 29.224 25.5044C29.0899 25.5583 28.9679 25.6383 28.865 25.7397C28.7621 25.8412 28.6804 25.9621 28.6246 26.0954C28.5688 26.2287 28.5401 26.3717 28.5401 26.5162C28.5401 26.6608 28.5688 26.8038 28.6246 26.9371C28.6804 27.0704 28.7621 27.1913 28.865 27.2928C28.9679 27.3942 29.0899 27.4742 29.224 27.5281C29.3581 27.582 29.5015 27.6087 29.646 27.6066H32.5934V29.5829H29.646C29.6119 29.5813 29.5778 29.5813 29.5438 29.5829C29.4006 29.5896 29.2601 29.6244 29.1303 29.6854C29.0006 29.7464 28.8841 29.8324 28.7876 29.9384C28.6911 30.0444 28.6164 30.1683 28.5678 30.3032C28.5191 30.4381 28.4976 30.5812 28.5043 30.7244C28.511 30.8676 28.5459 31.0081 28.6069 31.1378C28.6679 31.2676 28.7539 31.384 28.8599 31.4805C28.9659 31.577 29.0899 31.6517 29.2248 31.7003C29.3597 31.7489 29.5028 31.7704 29.646 31.7637H32.5934V45.8193H15.9312V31.7637H18.8786C19.0231 31.7657 19.1665 31.739 19.3006 31.6851C19.4347 31.6313 19.5567 31.5513 19.6596 31.4498C19.7625 31.3484 19.8442 31.2275 19.9 31.0942C19.9557 30.9609 19.9845 30.8178 19.9845 30.6733C19.9845 30.5288 19.9557 30.3857 19.9 30.2524C19.8442 30.1191 19.7625 29.9982 19.6596 29.8968C19.5567 29.7953 19.4347 29.7153 19.3006 29.6615C19.1665 29.6076 19.0231 29.5809 18.8786 29.5829H15.9312V27.6066H18.8786C19.0231 27.6087 19.1665 27.582 19.3006 27.5281C19.4347 27.4742 19.5567 27.3942 19.6596 27.2928C19.7625 27.1913 19.8442 27.0704 19.9 26.9371C19.9557 26.8038 19.9845 26.6608 19.9845 26.5162C19.9845 26.3717 19.9557 26.2287 19.9 26.0954C19.8442 25.9621 19.7625 25.8412 19.6596 25.7397C19.5567 25.6383 19.4347 25.5583 19.3006 25.5044C19.1665 25.4505 19.0231 25.4238 18.8786 25.4259H15.9312V19.3266H18.8786C19.0231 19.3286 19.1665 19.302 19.3006 19.2481C19.4347 19.1942 19.5567 19.1142 19.6596 19.0127C19.7625 18.9113 19.8442 18.7904 19.9 18.6571C19.9557 18.5238 19.9845 18.3807 19.9845 18.2362C19.9845 18.0917 19.9557 17.9487 19.9 17.8154C19.8442 17.6821 19.7625 17.5612 19.6596 17.4597C19.5567 17.3583 19.4347 17.2783 19.3006 17.2244C19.1665 17.1705 19.0231 17.1438 18.8786 17.1459H15.9312V15.1866H18.8786C19.0231 15.1886 19.1665 15.1619 19.3006 15.1081C19.4347 15.0542 19.5567 14.9742 19.6596 14.8727C19.7625 14.7713 19.8442 14.6504 19.9 14.5171C19.9557 14.3838 19.9845 14.2407 19.9845 14.0962C19.9845 13.9517 19.9557 13.8087 19.9 13.6754C19.8442 13.542 19.7625 13.4212 19.6596 13.3197C19.5567 13.2182 19.4347 13.1383 19.3006 13.0844C19.1665 13.0305 19.0231 13.0038 18.8786 13.0058H15.9312V8.33769H16.5274C16.6719 8.33973 16.8154 8.31304 16.9495 8.25916C17.0835 8.20528 17.2056 8.12529 17.3085 8.02383C17.4114 7.92238 17.4931 7.80149 17.5489 7.66818C17.6046 7.53488 17.6333 7.39182 17.6333 7.24731C17.6333 7.10281 17.6046 6.95975 17.5489 6.82645C17.4931 6.69314 17.4114 6.57225 17.3085 6.4708C17.2056 6.36934 17.0835 6.28935 16.9495 6.23547C16.8154 6.18159 16.6719 6.1549 16.5274 6.15694H14.8408C14.8067 6.15534 14.7726 6.15534 14.7386 6.15694ZM20.9741 34.7111C20.703 34.7366 20.4513 34.8627 20.2684 35.0645C20.0856 35.2663 19.9848 35.5291 19.986 35.8015V42.9741C19.9839 43.1185 20.0106 43.262 20.0645 43.3961C20.1184 43.5302 20.1984 43.6522 20.2998 43.7551C20.4013 43.858 20.5222 43.9397 20.6555 43.9955C20.7888 44.0512 20.9318 44.08 21.0763 44.08C21.2208 44.08 21.3639 44.0512 21.4972 43.9955C21.6305 43.9397 21.7514 43.858 21.8529 43.7551C21.9543 43.6522 22.0343 43.5302 22.0882 43.3961C22.1421 43.262 22.1688 43.1185 22.1667 42.9741V36.8918H26.3578V42.9741C26.3558 43.1185 26.3825 43.262 26.4364 43.3961C26.4903 43.5302 26.5702 43.6522 26.6717 43.7551C26.7732 43.858 26.894 43.9397 27.0273 43.9955C27.1607 44.0512 27.3037 44.08 27.4482 44.08C27.5927 44.08 27.7358 44.0512 27.8691 43.9955C28.0024 43.9397 28.1233 43.858 28.2247 43.7551C28.3262 43.6522 28.4062 43.5302 28.4601 43.3961C28.5139 43.262 28.5406 43.1185 28.5386 42.9741V35.8015C28.5386 35.5123 28.4237 35.235 28.2192 35.0305C28.0147 34.826 27.7374 34.7111 27.4482 34.7111H21.0763C21.0423 34.7095 21.0082 34.7095 20.9741 34.7111Z" fill="#49A3D1"/>
</svg>
