<svg width="48" height="48" viewBox="0 0 48 48" fill="none" xmlns="http://www.w3.org/2000/svg">
    <path d="M25.4959 5.00421C25.4325 5.01009 25.3698 5.02149 25.3084 5.0383C22.7586 5.73384 18.9626 6.88018 15.9002 8.27663C14.369 8.97486 13.0196 9.71623 12.0483 10.6116C11.5626 11.0593 11.1531 11.5488 10.9234 12.1626C10.6936 12.7765 10.7021 13.541 11.0086 14.1738C11.6875 15.5755 12.8547 16.4828 14.1447 16.9008C15.4346 17.3188 16.8364 17.3017 18.2352 17.0713C20.7347 16.6595 23.2014 15.5622 25.1891 14.5488C27.5679 17.274 29.5123 19.095 31.1715 20.2073C32.8043 21.302 34.1994 21.774 35.4495 22.0821L39.2502 26.8203C39.2734 26.9095 39.3078 26.9954 39.3525 27.076C39.5877 27.498 39.4553 28.0975 39.0457 28.5077C38.6362 28.9178 38.1647 29.1295 37.3584 28.627C37.3527 28.6269 37.347 28.6269 37.3413 28.627L36.5403 28.1498C36.417 28.0662 36.2779 28.0088 36.1316 27.9811C35.9852 27.9534 35.8348 27.9559 35.6895 27.9885C35.5442 28.0212 35.4071 28.0832 35.2867 28.1708C35.1662 28.2584 35.065 28.3698 34.9893 28.498C34.9135 28.6262 34.8648 28.7686 34.8461 28.9163C34.8275 29.0641 34.8393 29.2141 34.8808 29.3571C34.9223 29.5001 34.9927 29.6331 35.0875 29.7479C35.1824 29.8627 35.2998 29.9569 35.4324 30.0246L36.2164 30.4848C36.2232 30.4902 36.2267 30.498 36.2335 30.5018C36.4623 30.6425 36.697 30.7579 36.9323 30.8427C37.192 31.3668 37.1147 32.1507 36.7278 32.6834C36.3066 33.2631 35.8099 33.5812 34.7166 33.0413H34.6995L33.3872 32.2744C33.2639 32.1908 33.1248 32.1334 32.9784 32.1057C32.8321 32.078 32.6817 32.0805 32.5364 32.1131C32.3911 32.1458 32.254 32.2078 32.1335 32.2954C32.0131 32.383 31.9119 32.4944 31.8361 32.6226C31.7604 32.7508 31.7117 32.8932 31.693 33.0409C31.6744 33.1887 31.6862 33.3387 31.7277 33.4817C31.7692 33.6247 31.8396 33.7577 31.9344 33.8725C32.0293 33.9873 32.1467 34.0815 32.2793 34.1492L33.6428 34.9502C33.6649 34.9682 33.6876 34.9852 33.711 35.0014C33.8288 35.0603 33.9509 35.1254 34.0689 35.1718C34.1035 35.5128 34.0344 36.1081 33.7451 36.5012C33.5522 36.7634 33.3207 36.9305 33.0463 36.9955C32.7719 37.0605 32.3978 37.0418 31.8191 36.7399L30.0636 35.6831C29.815 35.534 29.5173 35.4897 29.236 35.56C28.9547 35.6303 28.7129 35.8095 28.5638 36.0581C28.4146 36.3067 28.3703 36.6044 28.4406 36.8857C28.5109 37.167 28.6901 37.4088 28.9387 37.558L29.7568 38.0522C29.7677 38.0696 29.7791 38.0866 29.7909 38.1034C29.904 38.2932 29.8529 38.9991 29.4159 39.4498C28.979 39.9006 28.3848 40.2042 27.1491 39.5691L24.1324 37.7795L25.1891 36.024C26.121 34.4707 25.5193 32.4332 23.9449 31.5585C23.4041 31.2581 22.8156 31.1672 22.2405 31.1836C22.1861 30.0942 21.637 29.0379 20.6213 28.4736C20.0789 28.1723 19.4978 28.0835 18.9169 28.0986C18.8746 27.003 18.322 25.9406 17.2978 25.3716C16.6906 25.0343 16.0337 24.9214 15.423 24.9626C14.4995 25.0243 13.6239 25.5224 13.0198 26.309C12.8022 26.0678 12.5513 25.8443 12.2528 25.6784C11.7041 25.3735 11.1037 25.2661 10.5484 25.3034C9.56852 25.3689 8.64158 25.9021 8.11114 26.7862L7.44643 27.8771L2.46963 24.8092L8.7929 10.8503C8.87501 10.676 8.90952 10.4831 8.89292 10.2912C8.87632 10.0993 8.80921 9.9152 8.69839 9.75764C8.58758 9.60008 8.43702 9.47466 8.26203 9.39415C8.08703 9.31364 7.89384 9.2809 7.70209 9.29926C7.50729 9.31635 7.32067 9.38548 7.16176 9.49942C7.00284 9.61336 6.87747 9.76792 6.79877 9.94693L0.100535 24.7921C-0.0105656 25.0327 -0.0303241 25.3054 0.0449485 25.5595C0.120221 25.8135 0.285379 26.0315 0.509587 26.1727L6.32154 29.7519L5.86135 30.5018C5.0131 31.9155 5.51921 33.7891 6.95216 34.6094C6.96321 34.6159 6.97509 34.6204 6.98625 34.6264L18.0988 41.4099C18.1101 41.4157 18.1215 41.4214 18.1329 41.4269C19.709 42.3025 21.7364 41.8012 22.6666 40.2509L23.0245 39.6543L26.0924 41.478C26.1091 41.4899 26.1262 41.5012 26.1435 41.5121C28.0399 42.4868 29.9434 42.0401 30.984 40.9667C31.4951 40.4395 31.8457 39.7896 31.9896 39.1089C32.5353 39.2243 33.0686 39.2247 33.5576 39.1089C34.3954 38.9106 35.0548 38.4024 35.5006 37.7966C36.0327 37.0735 36.3428 36.2133 36.3187 35.3593C37.2169 35.1622 37.9913 34.6388 38.4833 33.9617C39.1237 33.0802 39.4216 31.9564 39.2332 30.8768C39.7492 30.7076 40.2172 30.4217 40.5797 30.0587C40.8181 29.8199 41.0261 29.5549 41.1932 29.2576L41.2785 29.3599C41.4615 29.5859 41.7269 29.7299 42.0162 29.7603C42.3054 29.7906 42.5949 29.7049 42.8209 29.5218C43.0469 29.3387 43.191 29.0734 43.2213 28.7841C43.2517 28.4948 43.1659 28.2053 42.9828 27.9793L36.9493 20.463C36.7957 20.2659 36.5791 20.1275 36.3357 20.071C35.122 19.8001 33.9648 19.4506 32.3986 18.4007C30.8325 17.3507 28.8572 15.5804 26.2628 12.5205C26.1024 12.3345 25.8839 12.208 25.6426 12.1616C25.4013 12.1152 25.1514 12.1516 24.9334 12.2649C22.98 13.3058 20.2369 14.535 17.8773 14.9237C16.6974 15.1181 15.6217 15.1018 14.8094 14.8385C13.997 14.5753 13.4253 14.127 12.9857 13.2193C12.9226 13.0892 12.9127 13.0789 12.9686 12.9296C13.0245 12.7803 13.2049 12.5144 13.5311 12.2138C14.1834 11.6124 15.3801 10.9028 16.8035 10.2537C19.5239 9.01322 23.0117 7.94193 25.4959 7.254C28.5451 8.59621 30.5413 9.9662 32.6884 10.9525C34.7272 11.8891 36.9992 12.3604 40.1536 11.9581L45.8803 26.6158C45.9871 26.8862 46.1968 27.1032 46.4633 27.2192C46.7299 27.3352 47.0316 27.3409 47.3023 27.2348C47.5729 27.1288 47.7906 26.9198 47.9074 26.6536C48.0242 26.3874 48.0308 26.0858 47.9256 25.8147L41.875 10.373C41.7845 10.1398 41.6165 9.94481 41.3993 9.8207C41.1821 9.69658 40.9288 9.65088 40.6819 9.69127C37.3495 10.2708 35.5538 9.87676 33.5917 8.97543C31.6296 8.0741 29.4962 6.56873 26.0242 5.08943C25.8579 5.0176 25.6763 4.98831 25.4959 5.00421ZM15.5593 27.1442C15.8101 27.1273 16.0408 27.1693 16.2411 27.2805C16.8154 27.5996 16.9657 28.1862 16.6501 28.7122C16.6501 28.7179 16.6501 28.7236 16.6501 28.7292L16.1899 29.5133C16.0945 29.6786 16.0442 29.866 16.0438 30.0568C16.0435 30.2477 16.0933 30.4353 16.1882 30.6009C16.2831 30.7665 16.4197 30.9043 16.5845 31.0006C16.7493 31.0968 16.9365 31.1482 17.1273 31.1495H17.1614C17.3308 31.1481 17.4975 31.1074 17.6483 31.0305C17.7992 30.9536 17.9301 30.8426 18.0307 30.7063C18.3725 30.2456 19.03 30.0855 19.5646 30.3825C20.1433 30.704 20.3018 31.2956 19.9907 31.8142C19.9848 31.8254 19.9791 31.8368 19.9737 31.8483L19.8203 32.121C19.7072 32.3281 19.6644 32.5663 19.6982 32.7999C19.732 33.0334 19.8406 33.2497 20.0077 33.4163L20.11 33.5186C20.299 33.708 20.551 33.8213 20.8181 33.837C21.0853 33.8527 21.3488 33.7697 21.5587 33.6038C21.9271 33.3058 22.4544 33.2264 22.8882 33.4674C23.4668 33.7889 23.6253 34.3806 23.3143 34.8991L20.7918 39.126C20.4789 39.6475 19.7666 39.8385 19.1896 39.518L8.07705 32.7345C8.06579 32.7287 8.05443 32.723 8.04297 32.7175C7.61745 32.4811 7.50329 32.0149 7.73618 31.6267L9.98596 27.9111C10.1353 27.6622 10.4082 27.5035 10.6848 27.485C10.8833 27.472 11.0383 27.4998 11.1961 27.5873C11.5125 27.7631 11.6402 28.0867 11.6051 28.3713C11.5855 28.5234 11.5981 28.6778 11.6421 28.8247C11.6862 28.9715 11.7607 29.1074 11.8608 29.2235L11.9631 29.3428C12.0757 29.4756 12.2186 29.5796 12.3797 29.6458C12.5408 29.7121 12.7154 29.7389 12.8889 29.7239C13.0625 29.7089 13.2299 29.6525 13.3772 29.5595C13.5245 29.4665 13.6474 29.3396 13.7356 29.1894L14.6389 27.6725C14.8292 27.3554 15.1589 27.1709 15.5593 27.1442Z" fill="#49A3D1"/>
</svg>
