<svg width="49" height="48" viewBox="0 0 49 48" fill="none" xmlns="http://www.w3.org/2000/svg">
    <path d="M42.4177 0.000563893C41.9604 -0.00351418 41.4948 0.0145463 41.0252 0.0541227C35.0784 0.555285 28.2493 4.25298 21.9047 10.6052L10.7645 21.7454L2.73064 18.4784C5.54344 13.0384 11.803 10.3398 17.6557 12.087C17.7999 12.1292 17.951 12.1426 18.1004 12.1265C18.2497 12.1103 18.3945 12.0649 18.5263 11.9927C18.6581 11.9206 18.7744 11.8233 18.8686 11.7062C18.9628 11.5891 19.033 11.4546 19.0752 11.3104C19.1174 11.1663 19.1308 11.0151 19.1146 10.8658C19.0984 10.7164 19.0529 10.5717 18.9808 10.4399C18.9086 10.3081 18.8113 10.1918 18.6942 10.0976C18.5771 10.0035 18.4426 9.93328 18.2984 9.89109C16.4665 9.34423 14.6033 9.16723 12.7818 9.3198C7.31734 9.77749 2.29942 13.2086 0.0884052 18.6212C0.0301348 18.7606 8.68465e-05 18.9102 1.87981e-07 19.0612C-8.64705e-05 19.2123 0.0297897 19.3619 0.0879001 19.5014C0.146011 19.6409 0.231201 19.7674 0.338543 19.8737C0.445885 19.9801 0.573247 20.064 0.713258 20.1208L10.2289 23.9949L24.0292 37.8131L27.8854 47.293C28.0003 47.5714 28.2203 47.7932 28.4978 47.9102C28.7753 48.0272 29.0877 48.03 29.3672 47.9179C36.5842 44.97 40.3027 37.0174 38.1152 29.69C38.0407 29.4292 37.8759 29.2034 37.6502 29.0529C37.4245 28.9025 37.1527 28.8372 36.8833 28.8688C36.7152 28.8873 36.5533 28.9429 36.4093 29.0315C36.2653 29.1202 36.1427 29.2397 36.0505 29.3814C35.9583 29.5232 35.8987 29.6837 35.876 29.8513C35.8533 30.0188 35.8681 30.1894 35.9193 30.3506C37.6661 36.2017 34.9657 42.4443 29.5279 45.2578L26.2608 37.2418L37.3653 26.0837C45.8332 17.6058 49.615 8.30335 47.363 1.37524C47.3072 1.20423 47.2118 1.04881 47.0846 0.921617C46.9575 0.794424 46.802 0.699056 46.631 0.64327C46.6133 0.636879 46.5955 0.630926 46.5775 0.625417C46.572 0.623703 46.5651 0.627131 46.5596 0.625417C46.5011 0.608785 46.4414 0.596846 46.3811 0.589711C46.3701 0.586283 46.3564 0.593139 46.3454 0.589711C45.1024 0.218068 43.7897 0.012798 42.4177 0.000563893ZM42.632 2.32145C42.9929 2.32376 43.3396 2.32528 43.6853 2.35715C44.2603 2.41017 44.7813 2.54376 45.3099 2.67851C46.009 5.41207 45.6094 8.81413 44.1138 12.4798L37.0976 5.46356C36.9781 5.34114 36.8326 5.24711 36.6719 5.1884C36.5113 5.12969 36.3395 5.1078 36.1692 5.12436C35.9514 5.14555 35.7443 5.22884 35.5724 5.36431C35.4006 5.49978 35.2713 5.68174 35.1998 5.88857C35.1284 6.0954 35.1178 6.31839 35.1694 6.53105C35.221 6.7437 35.3325 6.93707 35.4908 7.08818L43.0961 14.6757C41.4512 17.8793 39.0166 21.215 35.7586 24.4769L28.7424 31.511L19.0304 21.7812C18.909 21.6562 18.7606 21.5607 18.5966 21.5019C18.4326 21.4431 18.2573 21.4226 18.0842 21.4419C17.8664 21.4631 17.6593 21.5464 17.4874 21.6819C17.3156 21.8174 17.1862 21.9993 17.1148 22.2062C17.0433 22.413 17.0328 22.636 17.0844 22.8486C17.1359 23.0613 17.2475 23.2547 17.4058 23.4058L27.1356 33.1356L24.8683 35.4029L12.6033 23.1201L23.5115 12.212C30.1525 5.56296 37.2179 2.28671 42.632 2.32145ZM31.456 11.9442C30.2583 11.9442 29.0553 12.3998 28.1532 13.301C26.3492 15.1035 26.4028 18.0328 28.2068 19.8352C30.0109 21.6377 32.919 21.6377 34.7231 19.8352C36.5272 18.0327 36.5629 15.1036 34.7588 13.301C33.8568 12.3998 32.6537 11.9442 31.456 11.9442ZM31.456 14.2294C32.058 14.2293 32.669 14.4608 33.1342 14.9256C34.0647 15.8553 34.0646 17.3345 33.1342 18.2641C32.2038 19.1937 30.7262 19.1938 29.7957 18.2641C28.8653 17.3345 28.8653 15.8552 29.7957 14.9256C30.2609 14.4608 30.8541 14.2294 31.456 14.2294ZM10.3181 28.5296C9.92427 28.5288 9.53621 28.5408 9.13985 28.5831C6.76167 28.8372 4.39456 29.8816 2.76635 31.9573C0.959576 34.2616 1.08068 37.1004 1.17743 39.6519C1.27418 42.2035 1.32811 44.5034 0.284788 46.1147C0.144119 46.335 0.083238 46.5969 0.112299 46.8567C0.14136 47.1165 0.258607 47.3584 0.444483 47.5422C0.630359 47.726 0.873628 47.8405 1.13372 47.8666C1.3938 47.8928 1.65498 47.8289 1.8737 47.6858C3.48558 46.6428 5.76493 46.7118 8.31861 46.811C10.8723 46.9102 13.7428 47.0282 16.0489 45.2221C18.8206 43.0523 19.7215 39.5675 19.4053 36.492C19.3899 36.3399 19.3441 36.1924 19.2706 36.0584C19.1972 35.9243 19.0976 35.8063 18.9777 35.7114C18.8578 35.6165 18.7202 35.5467 18.5728 35.506C18.4255 35.4652 18.2715 35.4545 18.1199 35.4744C16.3572 35.7031 15.0403 36.4469 13.7995 36.7598C12.6998 37.037 11.5989 36.981 10.0861 36.2599C9.87823 33.9751 10.5469 32.1647 12.1927 30.5291C12.346 30.376 12.4526 30.1826 12.5002 29.9712C12.5477 29.7599 12.5342 29.5394 12.4613 29.3355C12.3883 29.1315 12.2588 28.9525 12.088 28.8193C11.9172 28.6861 11.712 28.6042 11.4964 28.5831C11.1117 28.5437 10.712 28.5303 10.3181 28.5296ZM9.03273 30.9397C7.94317 32.7906 7.50514 34.9275 7.87229 37.2418C7.89703 37.4114 7.95962 37.5733 8.05542 37.7155C8.15123 37.8576 8.27779 37.9764 8.42573 38.063C10.725 39.3654 12.7419 39.3797 14.3529 38.9735C15.4162 38.7055 16.2975 38.3727 17.138 38.0987C17.0372 40.1256 16.2842 42.1305 14.6386 43.4189C13.1166 44.6109 10.933 44.6239 8.40788 44.5258C6.74396 44.4612 4.95766 44.3846 3.23052 44.7579C3.6048 43.0321 3.52565 41.2429 3.46261 39.5805C3.36695 37.0577 3.37648 34.8892 4.56949 33.3677C5.67519 31.9581 7.3139 31.1992 9.03273 30.9397Z" fill="#49A3D1"/>
</svg>
