<svg width="48" height="48" viewBox="0 0 48 48" fill="none" xmlns="http://www.w3.org/2000/svg">
    <path fill-rule="evenodd" clip-rule="evenodd" d="M39.7881 5.91794C35.5685 2.22878 30.0421 0 24 0C10.7516 0 0 10.7516 0 24C0 37.2483 10.7516 48 24 48C37.2484 48 48 37.2483 48 24C48 19.4111 46.7156 15.1096 44.4775 11.4611C44.404 11.3392 44.3073 11.2329 44.1929 11.1481C44.0777 11.0627 43.9467 11.0008 43.8076 10.966C43.6684 10.9312 43.5238 10.9241 43.3819 10.9452C43.24 10.9663 43.1037 11.0152 42.9806 11.089C42.8576 11.1628 42.7504 11.2601 42.665 11.3753C42.5796 11.4906 42.5178 11.6215 42.483 11.7607C42.4482 11.8999 42.4412 12.0445 42.4624 12.1864C42.4835 12.3283 42.5324 12.4646 42.6062 12.5876L42.6089 12.5921C44.6433 15.9077 45.8182 19.8208 45.8182 24C45.8182 36.0563 36.0563 45.8182 24 45.8182C11.9437 45.8182 2.18182 36.0563 2.18182 24C2.18182 11.9437 11.9437 2.18182 24 2.18182C29.4998 2.18182 34.5172 4.20316 38.3538 7.55711C38.4548 7.65669 38.5744 7.73567 38.7058 7.78954C38.8455 7.84682 38.9955 7.87447 39.1465 7.87076C39.2974 7.86705 39.4459 7.83205 39.5826 7.76798C39.7193 7.70391 39.8413 7.61216 39.9407 7.49853C40.0401 7.38491 40.1149 7.25188 40.1602 7.10788C40.2056 6.96387 40.2206 6.81202 40.2042 6.66195C40.1878 6.51183 40.1405 6.36677 40.0652 6.23593C39.9944 6.11283 39.9002 6.00485 39.7881 5.91794ZM14.7783 39.0124C17.4585 40.6591 20.6244 41.625 24 41.625C33.7277 41.625 41.625 33.7277 41.625 24C41.625 14.2723 33.7277 6.375 24 6.375C14.2723 6.375 6.375 14.2723 6.375 24C6.375 28.4745 8.04428 32.5567 10.7941 35.6646C10.8808 35.7761 10.9884 35.8697 11.1109 35.9402C11.2418 36.0155 11.3868 36.0628 11.5369 36.0792C11.687 36.0956 11.8389 36.0806 11.9829 36.0352C12.1269 35.9899 12.2599 35.9151 12.3735 35.8157C12.4872 35.7163 12.5789 35.5944 12.643 35.4576C12.7071 35.3209 12.7421 35.1724 12.7458 35.0215C12.7495 34.8705 12.7218 34.7205 12.6645 34.5808C12.6104 34.4488 12.5309 34.3287 12.4307 34.2274C10.0193 31.5022 8.55682 27.9269 8.55682 24C8.55682 15.4643 15.4643 8.55682 24 8.55682C32.5357 8.55682 39.4432 15.4643 39.4432 24C39.4432 32.5357 32.5357 39.4432 24 39.4432C21.0407 39.4432 18.2816 38.6066 15.9334 37.1651C15.8183 37.084 15.6886 37.0259 15.5512 36.9941C15.4047 36.9602 15.2527 36.9569 15.1048 36.9845C14.9569 37.0121 14.8164 37.07 14.692 37.1545C14.5675 37.239 14.4619 37.3483 14.3818 37.4756C14.3016 37.6029 14.2487 37.7454 14.2262 37.8942C14.2038 38.0429 14.2123 38.1947 14.2514 38.34C14.2904 38.4852 14.359 38.6209 14.453 38.7383C14.5425 38.8502 14.653 38.9433 14.7783 39.0124ZM32.1011 21.1114L27.0335 20.1379C26.8761 20.1077 26.7272 20.0431 26.5976 19.9489C26.468 19.8546 26.3607 19.7329 26.2835 19.5925L26.2812 19.5884L23.8282 15.0388L21.3586 19.5925C21.2813 19.7329 21.174 19.8546 21.0444 19.9489C20.9148 20.0431 20.766 20.1077 20.6086 20.1379L15.5433 21.1109L19.1026 24.9287C19.2104 25.0473 19.2907 25.1882 19.3378 25.3414C19.3843 25.4927 19.3974 25.6522 19.3762 25.8089L19.1549 27.6302C19.1189 27.9184 18.9698 28.1805 18.7405 28.3588C18.5113 28.5371 18.2206 28.617 17.9323 28.581C17.6441 28.545 17.382 28.3959 17.2037 28.1667C17.0254 27.9374 16.9455 27.6467 16.9815 27.3585L16.9818 27.3563L17.1535 26.0254L12.6017 21.145C12.4709 21.0009 12.3811 20.8243 12.3415 20.6337C12.3019 20.443 12.314 20.2453 12.3766 20.061C12.4392 19.8766 12.55 19.7124 12.6975 19.5853C12.8441 19.459 13.0216 19.374 13.2118 19.3389L19.7053 18.0927L22.8702 12.222L22.8714 12.2198C22.9607 12.0521 23.0923 11.9106 23.2531 11.8094C23.4146 11.7077 23.6 11.6501 23.7906 11.6425L23.7954 11.6423L23.8001 11.6422C24.0024 11.6376 24.202 11.6894 24.3766 11.7917C24.5506 11.8937 24.693 12.042 24.7878 12.22L24.7887 12.2217L27.9538 18.0927L34.4538 19.3402L34.4582 19.3411C34.6469 19.3805 34.8219 19.4693 34.9651 19.5984C35.1084 19.7274 35.2149 19.8921 35.2738 20.0758C35.3327 20.2594 35.3419 20.4553 35.3004 20.6436C35.2589 20.832 35.1683 21.0059 35.0377 21.1478L35.0359 21.1497L30.5048 26.0256L31.3426 32.6956C31.366 32.8878 31.3377 33.0829 31.2608 33.2606C31.1838 33.4383 31.0609 33.5924 30.9048 33.7069C30.7486 33.8214 30.5647 33.8923 30.3721 33.9123C30.1794 33.9323 29.9849 33.9006 29.8086 33.8205L29.8037 33.8183L23.8295 30.9625L17.863 33.8147C17.7344 33.8776 17.5947 33.9148 17.4519 33.9239C17.3076 33.9332 17.1629 33.9138 17.0261 33.8668C16.8894 33.8198 16.7633 33.7462 16.6552 33.6502C16.547 33.5543 16.459 33.4378 16.3961 33.3076C16.3333 33.1774 16.2968 33.036 16.2889 32.8916C16.281 32.7473 16.3018 32.6028 16.3501 32.4665C16.3984 32.3302 16.4732 32.2048 16.5702 32.0976C16.6667 31.9909 16.7834 31.9042 16.9134 31.8427L16.9153 31.8418L23.3523 28.7595L23.3538 28.7588C23.5021 28.6869 23.6648 28.6496 23.8295 28.6496C23.9944 28.6496 24.1571 28.6869 24.3054 28.7588L24.3068 28.7595L28.9405 30.9837L28.2832 25.8106C28.2616 25.6533 28.2746 25.4932 28.3213 25.3414C28.3684 25.1882 28.4487 25.0473 28.5565 24.9287L28.5605 24.9243L32.1011 21.1114ZM0.545455 24C0.545455 11.0529 11.0529 0.545455 24 0.545455C29.9123 0.545455 35.3178 2.72828 39.4432 6.34091C39.504 6.38568 39.5548 6.44258 39.5925 6.50801C39.6301 6.57344 39.6538 6.64598 39.662 6.72103C39.6701 6.79608 39.6627 6.87201 39.64 6.94401C39.6173 7.01602 39.5799 7.08253 39.5302 7.13935C39.4805 7.19616 39.4195 7.24204 39.3512 7.27408C39.2828 7.30612 39.2085 7.32362 39.1331 7.32547C39.0576 7.32733 38.9826 7.3135 38.9127 7.28486C38.8429 7.25622 38.7797 7.21339 38.7273 7.15909C34.7927 3.71356 29.6431 1.63636 24 1.63636C11.6424 1.63636 1.63636 11.6424 1.63636 24C1.63636 36.3575 11.6424 46.3636 24 46.3636C36.3576 46.3636 46.3636 36.3575 46.3636 24C46.3636 19.7174 45.1595 15.706 43.0739 12.3068C43.0369 12.2453 43.0124 12.177 43.0019 12.106C42.9913 12.035 42.9948 11.9626 43.0122 11.8929C43.0296 11.8233 43.0605 11.7577 43.1033 11.7C43.146 11.6423 43.1997 11.5936 43.2613 11.5567C43.3228 11.5197 43.3911 11.4953 43.4621 11.4847C43.5331 11.4742 43.6055 11.4777 43.6752 11.4951C43.7448 11.5125 43.8104 11.5435 43.8681 11.5863C43.9258 11.629 43.9744 11.6827 44.0114 11.7443C46.1987 15.3093 47.4545 19.5131 47.4545 24C47.4545 36.9471 36.9471 47.4545 24 47.4545C11.0529 47.4545 0.545455 36.9471 0.545455 24ZM6.92045 24C6.92045 14.5735 14.5735 6.92045 24 6.92045C33.4265 6.92045 41.0795 14.5735 41.0795 24C41.0795 33.4264 33.4265 41.0795 24 41.0795C20.7241 41.0795 17.6519 40.1408 15.0511 38.5398C14.9846 38.5048 14.9259 38.4564 14.879 38.3976C14.832 38.3389 14.7977 38.2711 14.7781 38.1984C14.7586 38.1258 14.7544 38.0499 14.7656 37.9755C14.7768 37.9012 14.8033 37.8299 14.8434 37.7663C14.8834 37.7026 14.9362 37.6479 14.9985 37.6057C15.0607 37.5634 15.131 37.5345 15.2049 37.5207C15.2788 37.5069 15.3548 37.5085 15.4281 37.5255C15.5014 37.5425 15.5703 37.5744 15.6307 37.6193C18.0653 39.1181 20.929 39.9886 24 39.9886C32.8369 39.9886 39.9886 32.8369 39.9886 24C39.9886 15.1631 32.8369 8.01136 24 8.01136C15.1631 8.01136 8.01136 15.1631 8.01136 24C8.01136 28.0717 9.53084 31.7797 12.0341 34.6023C12.0884 34.6547 12.1312 34.7179 12.1599 34.7877C12.1885 34.8576 12.2023 34.9326 12.2005 35.0081C12.1986 35.0835 12.1811 35.1578 12.1491 35.2262C12.117 35.2945 12.0712 35.3555 12.0143 35.4052C11.9575 35.4549 11.891 35.4923 11.819 35.515C11.747 35.5377 11.6711 35.5451 11.596 35.537C11.521 35.5288 11.4484 35.5051 11.383 35.4675C11.3176 35.4298 11.2607 35.379 11.2159 35.3182C8.54288 32.3041 6.92045 28.3433 6.92045 24ZM23.8125 12.1875C23.7171 12.1913 23.6245 12.2201 23.5437 12.2709C23.4629 12.3218 23.3969 12.3929 23.3523 12.4773L20.0625 18.5795L13.3125 19.875C13.2167 19.8923 13.1273 19.935 13.0536 19.9985C12.9798 20.0621 12.9244 20.1442 12.8931 20.2364C12.8618 20.3285 12.8557 20.4274 12.8755 20.5227C12.8953 20.618 12.9403 20.7063 13.0057 20.7784L17.7273 25.8409L17.5227 27.4261C17.5046 27.5708 17.5448 27.7167 17.6343 27.8318C17.7238 27.9469 17.8553 28.0217 18 28.0398C18.1447 28.0579 18.2906 28.0177 18.4057 27.9282C18.5207 27.8387 18.5956 27.7072 18.6136 27.5625L18.8352 25.7386C18.8464 25.6593 18.84 25.5784 18.8165 25.5018C18.7929 25.4252 18.7528 25.3548 18.6989 25.2955L14.4716 20.7614L20.5057 19.6023C20.5844 19.5872 20.6588 19.5549 20.7236 19.5077C20.7884 19.4606 20.842 19.3998 20.8807 19.3295L23.8295 13.892L26.7614 19.3295C26.8 19.3998 26.8536 19.4606 26.9184 19.5077C26.9833 19.5549 27.0577 19.5872 27.1364 19.6023L33.1705 20.7614L28.9602 25.2955C28.9063 25.3548 28.8662 25.4252 28.8426 25.5018C28.819 25.5784 28.8126 25.6593 28.8239 25.7386L29.608 31.9091L24.0682 29.25C23.9938 29.2138 23.9122 29.195 23.8295 29.195C23.7469 29.195 23.6653 29.2138 23.5909 29.25L17.1477 32.3352C17.0821 32.3661 17.0233 32.4097 16.9746 32.4635C16.926 32.5173 16.8885 32.5802 16.8642 32.6486C16.84 32.7169 16.8296 32.7894 16.8336 32.8618C16.8375 32.9342 16.8558 33.0051 16.8873 33.0704C16.9189 33.1358 16.963 33.1942 17.0173 33.2423C17.0715 33.2905 17.1347 33.3274 17.2033 33.351C17.2719 33.3745 17.3445 33.3843 17.4169 33.3796C17.4893 33.375 17.56 33.356 17.625 33.3239L23.8295 30.358L30.0341 33.3239C30.1223 33.3639 30.2195 33.3797 30.3158 33.3698C30.4122 33.3598 30.5041 33.3243 30.5822 33.2671C30.6603 33.2098 30.7217 33.1328 30.7602 33.0439C30.7987 32.955 30.8128 32.8575 30.8011 32.7614L29.9318 25.8409L34.6364 20.7784C34.7017 20.7075 34.747 20.6205 34.7677 20.5263C34.7885 20.4322 34.7839 20.3342 34.7544 20.2424C34.725 20.1505 34.6717 20.0682 34.6001 20.0036C34.5284 19.9391 34.441 19.8947 34.3466 19.875L27.5966 18.5795L24.3068 12.4773C24.2594 12.3879 24.1881 12.3134 24.1008 12.2623C24.0135 12.2111 23.9137 12.1852 23.8125 12.1875Z" fill="#49A3D1"/>
    <path d="M24 0.545455C11.0529 0.545455 0.545455 11.0529 0.545455 24C0.545455 36.9471 11.0529 47.4545 24 47.4545C36.9471 47.4545 47.4545 36.9471 47.4545 24C47.4545 19.5131 46.1987 15.3093 44.0114 11.7443C43.9744 11.6827 43.9258 11.629 43.8681 11.5863C43.8104 11.5435 43.7448 11.5125 43.6752 11.4951C43.6055 11.4777 43.5331 11.4742 43.4621 11.4847C43.3911 11.4953 43.3228 11.5197 43.2613 11.5567C43.1997 11.5936 43.146 11.6423 43.1033 11.7C43.0605 11.7577 43.0296 11.8233 43.0122 11.8929C42.9948 11.9626 42.9913 12.035 43.0019 12.106C43.0124 12.177 43.0369 12.2453 43.0739 12.3068C45.1595 15.706 46.3636 19.7174 46.3636 24C46.3636 36.3575 36.3576 46.3636 24 46.3636C11.6424 46.3636 1.63636 36.3575 1.63636 24C1.63636 11.6424 11.6424 1.63636 24 1.63636C29.6431 1.63636 34.7927 3.71356 38.7273 7.15909C38.7797 7.21339 38.8429 7.25622 38.9127 7.28486C38.9826 7.3135 39.0576 7.32733 39.1331 7.32547C39.2085 7.32362 39.2828 7.30612 39.3512 7.27408C39.4195 7.24204 39.4805 7.19616 39.5302 7.13935C39.5799 7.08253 39.6173 7.01602 39.64 6.94401C39.6627 6.87201 39.6701 6.79608 39.662 6.72103C39.6538 6.64598 39.6301 6.57344 39.5925 6.50801C39.5548 6.44258 39.504 6.38568 39.4432 6.34091C35.3178 2.72828 29.9123 0.545455 24 0.545455Z" fill="#49A3D1"/>
    <path d="M24 6.92045C14.5735 6.92045 6.92045 14.5735 6.92045 24C6.92045 28.3433 8.54288 32.3041 11.2159 35.3182C11.2607 35.379 11.3176 35.4298 11.383 35.4675C11.4484 35.5051 11.521 35.5288 11.596 35.537C11.6711 35.5451 11.747 35.5377 11.819 35.515C11.891 35.4923 11.9575 35.4549 12.0143 35.4052C12.0712 35.3555 12.117 35.2945 12.1491 35.2262C12.1811 35.1578 12.1986 35.0835 12.2005 35.0081C12.2023 34.9326 12.1885 34.8576 12.1599 34.7877C12.1312 34.7179 12.0884 34.6547 12.0341 34.6023C9.53084 31.7797 8.01136 28.0717 8.01136 24C8.01136 15.1631 15.1631 8.01136 24 8.01136C32.8369 8.01136 39.9886 15.1631 39.9886 24C39.9886 32.8369 32.8369 39.9886 24 39.9886C20.929 39.9886 18.0653 39.1181 15.6307 37.6193C15.5703 37.5744 15.5014 37.5425 15.4281 37.5255C15.3548 37.5085 15.2788 37.5069 15.2049 37.5207C15.131 37.5345 15.0607 37.5634 14.9985 37.6057C14.9362 37.6479 14.8834 37.7026 14.8434 37.7663C14.8033 37.8299 14.7768 37.9012 14.7656 37.9755C14.7544 38.0499 14.7586 38.1258 14.7781 38.1984C14.7977 38.2711 14.832 38.3389 14.879 38.3976C14.9259 38.4564 14.9846 38.5048 15.0511 38.5398C17.6519 40.1408 20.7241 41.0795 24 41.0795C33.4265 41.0795 41.0795 33.4264 41.0795 24C41.0795 14.5735 33.4265 6.92045 24 6.92045Z" fill="#49A3D1"/>
    <path d="M23.5437 12.2709C23.6245 12.2201 23.7171 12.1913 23.8125 12.1875C23.9137 12.1852 24.0135 12.2111 24.1008 12.2623C24.1881 12.3134 24.2594 12.3879 24.3068 12.4773L27.5966 18.5795L34.3466 19.875C34.441 19.8947 34.5284 19.9391 34.6001 20.0036C34.6717 20.0682 34.725 20.1505 34.7544 20.2424C34.7839 20.3342 34.7885 20.4322 34.7677 20.5263C34.747 20.6205 34.7017 20.7075 34.6364 20.7784L29.9318 25.8409L30.8011 32.7614C30.8128 32.8575 30.7987 32.955 30.7602 33.0439C30.7217 33.1328 30.6603 33.2098 30.5822 33.2671C30.5041 33.3243 30.4122 33.3598 30.3158 33.3698C30.2195 33.3797 30.1223 33.3639 30.0341 33.3239L23.8295 30.358L17.625 33.3239C17.56 33.356 17.4893 33.375 17.4169 33.3796C17.3445 33.3843 17.2719 33.3745 17.2033 33.351C17.1347 33.3274 17.0715 33.2905 17.0173 33.2423C16.963 33.1942 16.9189 33.1358 16.8873 33.0704C16.8558 33.0051 16.8375 32.9342 16.8336 32.8618C16.8296 32.7894 16.84 32.7169 16.8642 32.6486C16.8885 32.5802 16.926 32.5173 16.9746 32.4635C17.0233 32.4097 17.0821 32.3661 17.1477 32.3352L23.5909 29.25C23.6653 29.2138 23.7469 29.195 23.8295 29.195C23.9122 29.195 23.9938 29.2138 24.0682 29.25L29.608 31.9091L28.8239 25.7386C28.8126 25.6593 28.819 25.5784 28.8426 25.5018C28.8662 25.4252 28.9063 25.3548 28.9602 25.2955L33.1705 20.7614L27.1364 19.6023C27.0577 19.5872 26.9833 19.5549 26.9184 19.5077C26.8536 19.4606 26.8 19.3998 26.7614 19.3295L23.8295 13.892L20.8807 19.3295C20.842 19.3998 20.7884 19.4606 20.7236 19.5077C20.6588 19.5549 20.5844 19.5872 20.5057 19.6023L14.4716 20.7614L18.6989 25.2955C18.7528 25.3548 18.7929 25.4252 18.8165 25.5018C18.84 25.5784 18.8464 25.6593 18.8352 25.7386L18.6136 27.5625C18.5956 27.7072 18.5207 27.8387 18.4057 27.9282C18.2906 28.0177 18.1447 28.0579 18 28.0398C17.8553 28.0217 17.7238 27.9469 17.6343 27.8318C17.5448 27.7167 17.5046 27.5708 17.5227 27.4261L17.7273 25.8409L13.0057 20.7784C12.9403 20.7063 12.8953 20.618 12.8755 20.5227C12.8557 20.4274 12.8618 20.3285 12.8931 20.2364C12.9244 20.1442 12.9798 20.0621 13.0536 19.9985C13.1273 19.935 13.2167 19.8923 13.3125 19.875L20.0625 18.5795L23.3523 12.4773C23.3969 12.3929 23.4629 12.3218 23.5437 12.2709Z" fill="#49A3D1"/>
</svg>
