<svg width="48" height="48" viewBox="0 0 48 48" fill="none" xmlns="http://www.w3.org/2000/svg">
    <path d="M23.8239 0C22.0743 0 20.5103 1.20453 20.3807 2.89773H15.3182C13.8226 2.89773 12.3864 3.94891 12.3864 5.50568V7.39773C12.3864 8.9545 13.8226 10.0057 15.3182 10.0057H32.5C33.9956 10.0057 35.4318 8.9545 35.4318 7.39773V5.50568C35.4318 3.94891 33.9956 2.89773 32.5 2.89773H27.4375C27.3079 1.20453 25.7439 0 23.9943 0H23.9091H23.8239ZM23.8239 2.18182H23.9091H23.9943C24.8463 2.18182 25.3068 2.68003 25.3068 3.10227V3.98864C25.3068 4.27795 25.4218 4.55541 25.6264 4.75999C25.8309 4.96457 26.1084 5.07952 26.3977 5.07955H32.5C33.0324 5.07955 33.25 5.37128 33.25 5.50568V7.39773C33.25 7.53213 33.0324 7.82386 32.5 7.82386H15.3182C14.7857 7.82386 14.5682 7.53213 14.5682 7.39773V5.50568C14.5682 5.37128 14.7857 5.07955 15.3182 5.07955H21.4205C21.7098 5.07952 21.9872 4.96457 22.1918 4.75999C22.3964 4.55541 22.5113 4.27795 22.5114 3.98864V3.10227C22.5114 2.68003 22.9719 2.18182 23.8239 2.18182ZM8.875 6.22159C8.59463 6.25472 8.33801 6.39525 8.15909 6.61364C7.34175 7.57585 7 8.84893 7 10.1761V43.0398C7 45.7632 9.20897 48 11.9261 48H35.892C38.6092 48 40.8182 45.7632 40.8182 43.0398V10.1761C40.8182 8.84893 40.4764 7.57585 39.6591 6.61364C39.5662 6.50395 39.4526 6.41364 39.3248 6.34786C39.197 6.28207 39.0575 6.2421 38.9143 6.23023C38.771 6.21836 38.6268 6.23482 38.4899 6.27867C38.3531 6.32252 38.2262 6.3929 38.1165 6.4858C38.0068 6.57869 37.9165 6.69228 37.8507 6.82008C37.7849 6.94788 37.7449 7.08738 37.7331 7.23063C37.7212 7.37387 37.7377 7.51805 37.7815 7.65494C37.8254 7.79182 37.8957 7.91873 37.9886 8.02841C38.3705 8.47795 38.6364 9.23595 38.6364 10.1761V43.0398C38.6364 44.5997 37.4307 45.8182 35.892 45.8182H11.9261C10.3875 45.8182 9.18182 44.5997 9.18182 43.0398V10.1761C9.18182 9.23595 9.44769 8.47795 9.82955 8.02841C9.97712 7.86232 10.0705 7.65514 10.0971 7.43456C10.1238 7.21399 10.0824 6.99053 9.97865 6.79408C9.87487 6.59763 9.71358 6.43755 9.51635 6.33525C9.31913 6.23294 9.09537 6.19329 8.875 6.22159ZM15.1818 15.0341C13.4545 15.0341 12.0114 16.4494 12.0114 18.1875V18.4091C12.0114 20.1472 13.4437 21.5795 15.1818 21.5795H15.4034C17.1415 21.5795 18.5568 20.1364 18.5568 18.4091V18.1875C18.5568 16.4602 17.1307 15.0341 15.4034 15.0341H15.1818ZM15.1818 17.2159H15.4034C15.9722 17.2159 16.375 17.6187 16.375 18.1875V18.4091C16.375 18.9779 15.9614 19.3977 15.4034 19.3977H15.1818C14.6238 19.3977 14.1932 18.9671 14.1932 18.4091V18.1875C14.1932 17.6295 14.613 17.2159 15.1818 17.2159ZM21.4205 17.2159C21.2772 17.2226 21.1366 17.2574 21.0068 17.3185C20.877 17.3795 20.7605 17.4655 20.6639 17.5715C20.5673 17.6776 20.4926 17.8016 20.444 17.9365C20.3953 18.0715 20.3737 18.2147 20.3805 18.358C20.3872 18.5012 20.4221 18.6418 20.4831 18.7716C20.5441 18.9014 20.6301 19.0179 20.7362 19.1145C20.8423 19.211 20.9663 19.2857 21.1013 19.3343C21.2362 19.3829 21.3794 19.4045 21.5227 19.3977H34.7159C34.8605 19.3998 35.004 19.3731 35.1381 19.3192C35.2723 19.2653 35.3944 19.1852 35.4973 19.0837C35.6003 18.9822 35.682 18.8613 35.7378 18.7279C35.7936 18.5945 35.8224 18.4514 35.8224 18.3068C35.8224 18.1622 35.7936 18.0191 35.7378 17.8857C35.682 17.7524 35.6003 17.6314 35.4973 17.5299C35.3944 17.4284 35.2723 17.3484 35.1381 17.2945C35.004 17.2406 34.8605 17.2139 34.7159 17.2159H21.5227C21.4887 17.2143 21.4545 17.2143 21.4205 17.2159ZM18.1989 23.5739C18.0398 23.5873 17.8856 23.6355 17.7472 23.715C17.6087 23.7945 17.4895 23.9034 17.3977 24.0341L14.9773 27.3068L14.0568 25.9602C13.9834 25.8285 13.8836 25.7133 13.7634 25.6221C13.6433 25.5309 13.5056 25.4656 13.359 25.4303C13.2124 25.395 13.06 25.3904 12.9116 25.417C12.7631 25.4435 12.6217 25.5006 12.4964 25.5845C12.3711 25.6684 12.2646 25.7774 12.1835 25.9046C12.1025 26.0318 12.0487 26.1744 12.0255 26.3235C12.0024 26.4725 12.0104 26.6247 12.049 26.7705C12.0876 26.9163 12.1561 27.0525 12.25 27.1705L14.0227 29.8125C14.1205 29.9586 14.2521 30.0789 14.4064 30.1632C14.5606 30.2475 14.733 30.2933 14.9087 30.2966C15.0845 30.3 15.2584 30.2608 15.4158 30.1824C15.5732 30.1041 15.7093 29.9889 15.8125 29.8466L19.1534 25.3295C19.2833 25.162 19.3616 24.9603 19.3787 24.749C19.3958 24.5378 19.351 24.3261 19.2498 24.1398C19.1485 23.9536 18.9952 23.8009 18.8086 23.7004C18.6219 23.5999 18.4101 23.5559 18.1989 23.5739ZM21.4205 26.5398C21.2772 26.5465 21.1366 26.5813 21.0068 26.6423C20.877 26.7033 20.7605 26.7893 20.6639 26.8954C20.5673 27.0014 20.4926 27.1255 20.444 27.2604C20.3953 27.3954 20.3737 27.5386 20.3805 27.6818C20.3872 27.8251 20.4221 27.9657 20.4831 28.0955C20.5441 28.2253 20.6301 28.3418 20.7362 28.4383C20.8423 28.5349 20.9663 28.6096 21.1013 28.6582C21.2362 28.7068 21.3794 28.7283 21.5227 28.7216H34.7159C34.8605 28.7236 35.004 28.6969 35.1381 28.643C35.2723 28.5891 35.3944 28.5091 35.4973 28.4076C35.6003 28.3061 35.682 28.1851 35.7378 28.0518C35.7936 27.9184 35.8224 27.7753 35.8224 27.6307C35.8224 27.4861 35.7936 27.343 35.7378 27.2096C35.682 27.0762 35.6003 26.9553 35.4973 26.8538C35.3944 26.7523 35.2723 26.6722 35.1381 26.6183C35.004 26.5644 34.8605 26.5377 34.7159 26.5398H21.5227C21.4887 26.5382 21.4545 26.5382 21.4205 26.5398ZM15.1818 33.6818C13.4437 33.6818 12.0114 35.1141 12.0114 36.8523V37.0739C12.0114 38.812 13.4545 40.2273 15.1818 40.2273H15.4034C17.1308 40.2273 18.5568 38.8012 18.5568 37.0739V36.8523C18.5568 35.1249 17.1415 33.6818 15.4034 33.6818H15.1818ZM15.1818 35.8636H15.4034C15.9614 35.8636 16.375 36.2835 16.375 36.8523V37.0739C16.375 37.6426 15.9722 38.0455 15.4034 38.0455H15.1818C14.6131 38.0455 14.1932 37.6318 14.1932 37.0739V36.8523C14.1932 36.2943 14.6238 35.8636 15.1818 35.8636ZM21.5227 35.8636C21.3782 35.8616 21.2346 35.8883 21.1005 35.9422C20.9664 35.9961 20.8443 36.0761 20.7413 36.1776C20.6384 36.2791 20.5566 36.4001 20.5008 36.5335C20.445 36.6668 20.4163 36.81 20.4163 36.9545C20.4163 37.0991 20.445 37.2423 20.5008 37.3756C20.5566 37.509 20.6384 37.6299 20.7413 37.7314C20.8443 37.833 20.9664 37.913 21.1005 37.9669C21.2346 38.0208 21.3782 38.0475 21.5227 38.0455H34.7159C34.8605 38.0475 35.004 38.0208 35.1381 37.9669C35.2723 37.913 35.3944 37.833 35.4973 37.7314C35.6003 37.6299 35.682 37.509 35.7378 37.3756C35.7936 37.2423 35.8224 37.0991 35.8224 36.9545C35.8224 36.81 35.7936 36.6668 35.7378 36.5335C35.682 36.4001 35.6003 36.2791 35.4973 36.1776C35.3944 36.0761 35.2723 35.9961 35.1381 35.9422C35.004 35.8883 34.8605 35.8616 34.7159 35.8636H21.5227Z" fill="#49A3D1"/>
</svg>
