<svg width="48" height="48" viewBox="0 0 48 48" fill="none" xmlns="http://www.w3.org/2000/svg">
    <path fill-rule="evenodd" clip-rule="evenodd" d="M30.5793 29.6002C27.5806 29.6002 25.1262 32.0716 25.1262 35.0704C25.1262 36.3911 25.5983 37.6041 26.3872 38.5468V46.8968C26.3815 47.3432 26.6845 47.7808 27.103 47.9363C27.5214 48.0919 28.0257 47.9543 28.3129 47.6126L30.5793 44.9712L32.8458 47.6126C33.136 47.9415 33.6279 48.0733 34.0386 47.9193C34.4494 47.7653 34.752 47.3355 34.7544 46.8968V38.5638C35.5526 37.6185 36.0324 36.3998 36.0324 35.0704C36.0324 32.0716 33.5781 29.6002 30.5793 29.6002ZM30.5793 31.7985C30.4656 31.7985 30.3491 31.7874 30.2385 31.7985C28.5791 31.965 27.3074 33.3642 27.3074 35.0704C27.3074 36.8903 28.7594 38.3423 30.5793 38.3423C32.3992 38.3423 33.8512 36.8903 33.8512 35.0704C33.8512 33.2505 32.3992 31.7985 30.5793 31.7985ZM30.5793 40.5065C29.8678 40.5065 29.1932 40.3639 28.5685 40.1145V43.9658L29.7443 42.6025C30.1474 42.1245 30.9844 42.1159 31.3973 42.5855L32.5731 43.9488V40.1316C31.954 40.3758 31.283 40.5065 30.5793 40.5065Z" fill="#49A3D1"/>
    <path d="M14.5608 24.4198C13.9845 24.4198 13.4531 24.9342 13.4531 25.5104C13.4531 26.0866 13.9845 26.601 14.5608 26.601H34.1579C34.7342 26.601 35.2656 26.0866 35.2656 25.5104C35.2656 24.9342 34.7341 24.4116 34.1579 24.4198C33.6402 24.4271 21.0932 24.4198 14.5608 24.4198Z" fill="#49A3D1"/>
    <path d="M14.5608 19.938C13.9845 19.938 13.4531 20.4524 13.4531 21.0286C13.4531 21.6049 13.9845 22.1192 14.5608 22.1192C21.0932 22.1192 33.6402 22.1119 34.1579 22.1192C34.7341 22.1274 35.2656 21.6049 35.2656 21.0286C35.2656 20.4524 34.7341 19.9298 34.1579 19.938C33.6402 19.9453 21.0932 19.938 14.5608 19.938Z" fill="#49A3D1"/>
    <path d="M14.5608 15.4562C13.9845 15.4562 13.4531 15.9706 13.4531 16.5468C13.4531 17.1231 13.9845 17.6375 14.5608 17.6375C21.0932 17.6375 33.6402 17.6301 34.1579 17.6375C34.7341 17.6456 35.2656 17.1231 35.2656 16.5468C35.2656 15.9706 34.7342 15.4562 34.1579 15.4562H14.5608Z" fill="#49A3D1"/>
    <path d="M11.6127 3.41581e-05C9.6868 3.41581e-05 8 1.46262 8 3.37415V39.0921C8 41.0036 9.6868 42.4662 11.6127 42.4662H24.2401C24.8163 42.4743 25.3477 41.9518 25.3477 41.3756C25.3477 40.7993 24.8163 40.2768 24.2401 40.2849H11.6127C10.7548 40.2849 10.1812 39.7084 10.1812 39.0921V3.37415C10.1812 2.75786 10.7548 2.18128 11.6127 2.18128H29.4716L38.5375 11.9117V39.0921C38.5375 39.7084 37.9639 40.2849 37.106 40.2849C36.5298 40.2768 35.9983 40.7993 35.9983 41.3756C35.9983 41.9518 36.5298 42.4743 37.106 42.4662C39.0319 42.4662 40.7187 41.0036 40.7187 39.0921V11.4857C40.7211 11.2113 40.6153 10.9374 40.429 10.7359L30.7497 0.340854C30.5445 0.124123 30.2472 -0.00238795 29.9488 3.41581e-05H11.6127Z" fill="#49A3D1"/>
</svg>
