<svg width="48" height="48" viewBox="0 0 48 48" fill="none" xmlns="http://www.w3.org/2000/svg">
    <path d="M10.2784 0C9.90003 0 9.5308 0.21817 9.34091 0.545455L0.153409 16.3807C0.0556936 16.5449 0.00219382 16.7351 0 16.9261V46.9091C5.72727e-05 47.4803 0.519726 47.9999 1.09091 48H46.9091C47.4803 47.9999 47.9999 47.4803 48 46.9091V16.9261C47.9978 16.7351 47.9443 16.5449 47.8466 16.3807L38.6591 0.545455C38.4692 0.21817 38.1 0 37.7216 0H10.2784ZM10.9091 2.18182H37.0909L45.017 15.8352H37.7727C37.6282 15.8332 37.4846 15.8599 37.3505 15.9138C37.2164 15.9677 37.0943 16.0477 36.9913 16.1492C36.8884 16.2507 36.8066 16.3717 36.7508 16.5051C36.695 16.6384 36.6663 16.7816 36.6663 16.9261C36.6663 17.0707 36.695 17.2138 36.7508 17.3472C36.8066 17.4806 36.8884 17.6015 36.9913 17.703C37.0943 17.8045 37.2164 17.8846 37.3505 17.9385C37.4846 17.9924 37.6282 18.0191 37.7727 18.017H45.8182V45.8182H2.18182V18.017H33.2216C33.3661 18.0191 33.5097 17.9924 33.6438 17.9385C33.778 17.8846 33.9001 17.8045 34.003 17.703C34.106 17.6015 34.1877 17.4806 34.2435 17.3472C34.2993 17.2138 34.328 17.0707 34.328 16.9261C34.328 16.7816 34.2993 16.6384 34.2435 16.5051C34.1877 16.3717 34.106 16.2507 34.003 16.1492C33.9001 16.0477 33.778 15.9677 33.6438 15.9138C33.5097 15.8599 33.3661 15.8332 33.2216 15.8352H2.98295L10.9091 2.18182ZM6.80114 21.733C6.22474 21.733 5.69318 22.2475 5.69318 22.8239C5.69318 23.4003 6.22474 23.9148 6.80114 23.9148H23.1136C23.69 23.9148 24.2216 23.4003 24.2216 22.8239C24.2216 22.2475 23.69 21.733 23.1136 21.733H6.80114ZM6.81818 25.5682C6.24179 25.5682 5.71023 26.0827 5.71023 26.6591C5.71023 27.2355 6.24179 27.75 6.81818 27.75H23.1307C23.7071 27.75 24.2386 27.2355 24.2386 26.6591C24.2386 26.0827 23.7071 25.5682 23.1307 25.5682H6.81818Z" fill="#49A3D1"/>
</svg>
